<svg xmlns="http://www.w3.org/2000/svg" xmlns:xlink="http://www.w3.org/1999/xlink" width="136.382" height="36.57" viewBox="0 0 136.382 36.57">
  <defs>
    <clipPath id="clip-path">
      <rect id="Rectangle_1659" data-name="Rectangle 1659" width="136.382" height="36.57" fill="none"/>
    </clipPath>
  </defs>
  <g id="b" transform="translate(0)">
    <g id="c" transform="translate(0)">
      <g id="Group_11717" data-name="Group 11717" clip-path="url(#clip-path)">
        <path id="Path_588" data-name="Path 588" d="M153.23,54.852a8.025,8.025,0,0,1-4.218-1.607,7.21,7.21,0,0,1-2.323-4.594,7.537,7.537,0,0,1-.046-1.525,7.157,7.157,0,0,1,3.41-5.6,7.719,7.719,0,0,1,4.425-.953,7.321,7.321,0,0,1,5.068,2.405,7.2,7.2,0,0,1,1.576,3.925,7.5,7.5,0,0,1-1.571,5.511,7.161,7.161,0,0,1-5.063,2.467,7.25,7.25,0,0,1-1.252-.031m-4.842-7.134a5.4,5.4,0,0,0,3.348,5.182,6.372,6.372,0,0,0,3.3.263,4.8,4.8,0,0,0,3.94-3.132,6.392,6.392,0,0,0,.062-4.471,4.7,4.7,0,0,0-3.286-3.127,6.549,6.549,0,0,0-3.673-.01,4.713,4.713,0,0,0-3.08,2.565,6.153,6.153,0,0,0-.613,2.735" transform="translate(-71.101 -19.662)" fill="#dcddef"/>
        <path id="Path_589" data-name="Path 589" d="M101.736,40.558c.314.021.623.057.932.1a5.5,5.5,0,0,1,2.622.973,3.5,3.5,0,0,1,1.319,2.709h-1.643s-.041-.242-.067-.366a2.231,2.231,0,0,0-1.18-1.427,5.12,5.12,0,0,0-1.834-.484c-1.442-.16-3.9-.221-4.723,1.252a1.976,1.976,0,0,0,.994,2.864,8.435,8.435,0,0,0,2.364.484,20.55,20.55,0,0,1,3.719.536,3.58,3.58,0,0,1,2.143,1.442,3.189,3.189,0,0,1,.474,1.453,3.641,3.641,0,0,1-2.225,4.1,9.37,9.37,0,0,1-3.755.7,9.52,9.52,0,0,1-3.776-.628,3.45,3.45,0,0,1-2.174-2.751c-.026-.149-.052-.3-.067-.458h1.633a2.636,2.636,0,0,0,2.241,2.117,9.871,9.871,0,0,0,3.585.118c1.252-.191,2.581-.783,2.787-2.174a2.267,2.267,0,0,0-1.535-2.472,1.245,1.245,0,0,0-.237-.067c-1.071-.149-2.143-.309-3.219-.438a11.6,11.6,0,0,1-2.678-.536,3.469,3.469,0,0,1-2.349-3,3.531,3.531,0,0,1,1.319-2.977,5.418,5.418,0,0,1,2.534-.958,12.346,12.346,0,0,1,2.792-.108" transform="translate(-46 -19.651)" fill="#dcddef"/>
        <path id="Path_590" data-name="Path 590" d="M209.81,54.847H208.1V41.125c.067,0,.139-.01.206-.01.767,0,1.535.005,2.3-.005a.307.307,0,0,1,.335.232q2.387,5.663,4.785,11.327a1.98,1.98,0,0,0,.2.309,2,2,0,0,0,.185-.294q2.4-5.671,4.8-11.347a.29.29,0,0,1,.314-.221c.84.01,1.679.005,2.539.005V54.852h-1.7V43.1l-.072-.041a1.122,1.122,0,0,0-.17.216c-.592,1.391-1.179,2.781-1.772,4.172q-1.53,3.608-3.054,7.216a.267.267,0,0,1-.288.2c-.515-.01-1.03-.01-1.54,0a.283.283,0,0,1-.3-.206q-2.38-5.64-4.78-11.275c-.046-.113-.031-.319-.278-.283V54.863Z" transform="translate(-100.913 -19.935)" fill="#dcddef"/>
        <path id="Path_591" data-name="Path 591" d="M179.5,41.1h7.551a6.239,6.239,0,0,1,2.23.386,3.778,3.778,0,0,1,2.5,3.178,5.64,5.64,0,0,1-.144,2.5,3.716,3.716,0,0,1-2.369,2.524c-.093.036-.18.072-.288.113.968,1.674,1.926,3.333,2.91,5.037h-.551c-.35,0-.7-.01-1.051,0a.294.294,0,0,1-.3-.18c-.8-1.432-1.622-2.854-2.421-4.285a.527.527,0,0,0-.541-.319c-1.829.021-3.652.01-5.48.01h-.319v4.754H179.49V41.09Zm1.731,7.366c.082.005.139.015.2.015,1.726,0,3.456.01,5.187-.005a8.23,8.23,0,0,0,1.334-.113,2.32,2.32,0,0,0,2.1-1.952,4.939,4.939,0,0,0,.062-1.169,2.368,2.368,0,0,0-1.942-2.38,5.553,5.553,0,0,0-1.3-.175c-1.818-.021-3.636-.01-5.455-.01-.062,0-.124.015-.18.021v5.774Z" transform="translate(-87.039 -19.926)" fill="#dcddef"/>
        <path id="Path_592" data-name="Path 592" d="M127.95,54.872h-1.762V42.706H120.77V41.15h12.573V42.7H127.95Z" transform="translate(-58.564 -19.955)" fill="#dcddef"/>
        <path id="Path_593" data-name="Path 593" d="M16.359,36.426h-.592a15.813,15.813,0,0,1,0-31.626h.546V5.99h-.546a14.625,14.625,0,0,0-.592,29.236V33.011A12.411,12.411,0,0,1,15.766,8.2h.592v4.775h-.592a7.632,7.632,0,0,0-7.613,7.633,7.5,7.5,0,0,0,7.02,7.613v-2.5a5.146,5.146,0,0,1,.592-10.255h.546v1.19h-.546a3.956,3.956,0,0,0,0,7.912h.592v4.867h-.592a8.822,8.822,0,0,1-8.8-8.823,8.688,8.688,0,0,1,8.205-8.8V9.41a11.222,11.222,0,0,0-10.6,11.208A11.347,11.347,0,0,0,15.766,31.841h.592v4.589Z" transform="translate(0 -2.328)" fill="#dcddef"/>
        <path id="Path_594" data-name="Path 594" d="M34.66,36.426v-1.19a14.623,14.623,0,0,0,0-29.246V4.8a15.813,15.813,0,0,1,0,31.626" transform="translate(-16.807 -2.328)" fill="#dcddef"/>
        <path id="Path_595" data-name="Path 595" d="M102.457,2.546a6.56,6.56,0,0,1,2.838.8,6.279,6.279,0,0,1,2.874,4.636c-.788,0-1.576,0-2.369-.005A3.279,3.279,0,0,0,104.265,6a5.163,5.163,0,0,0-5.795.639,4.322,4.322,0,0,0-1.082,4.038,4.192,4.192,0,0,0,2.06,2.745,5.568,5.568,0,0,0,2.622.525,4.709,4.709,0,0,0,2.225-.458,3.466,3.466,0,0,0,1.633-2.122c.742,0,1.489.005,2.23.01a6.546,6.546,0,0,1-1.962,3.966,6.478,6.478,0,0,1-3.992,1.447,7.213,7.213,0,0,1-5.7-2.086,7.52,7.52,0,0,1-1.695-5.223A7.543,7.543,0,0,1,95.972,5.42a6.587,6.587,0,0,1,3.3-2.447,8.282,8.282,0,0,1,3.183-.428" transform="translate(-45.973 -1.227)" fill="#dcddef"/>
        <path id="Path_596" data-name="Path 596" d="M156.175,3.14h7.067a7.727,7.727,0,0,1,2.328.294,2.726,2.726,0,0,1,1.952,2.333,6.6,6.6,0,0,1,.031,2.112,2.37,2.37,0,0,1-1.4,1.973,1.185,1.185,0,0,0,.108.077,2.749,2.749,0,0,1,1.777,2.611,5.241,5.241,0,0,1-.17,1.957,2.84,2.84,0,0,1-2.112,2.04,8.919,8.919,0,0,1-1.916.247c-2.5.026-5.007.01-7.51.01-.046,0-.1-.005-.16-.01V3.14Zm2.416,10.868s3.348.005,4.965-.005a2.775,2.775,0,0,0,1.36-.211,1.359,1.359,0,0,0,.711-1.252,1.277,1.277,0,0,0-.737-1.2,3.081,3.081,0,0,0-1.143-.185c-1.653-.026-5.161,0-5.161,0,.01.283,0,2.859,0,2.859M158.6,8.6a.617.617,0,0,0,.124.021c1.586,0,3.178.01,4.764-.031a2.4,2.4,0,0,0,1.123-.242,1.271,1.271,0,0,0,.005-2.132,2.224,2.224,0,0,0-1.046-.237c-1.633-.046-3.271-.036-4.909-.046a.279.279,0,0,0-.062.021V8.595Z" transform="translate(-75.731 -1.523)" fill="#dcddef"/>
        <path id="Path_597" data-name="Path 597" d="M187.006,16.787H184.59V3.158s4.945-.021,7.319-.01a5.5,5.5,0,0,1,2.648.6,3.556,3.556,0,0,1,1.787,2.215,7.084,7.084,0,0,1-.031,4.152,3.636,3.636,0,0,1-1.643,2.019l-.155.1c.819,1.509,2.457,4.543,2.457,4.543l-2.684.015s-1.442-2.735-2.05-3.894H186.99v3.873Zm0-10.77v4.038h4.285a3.921,3.921,0,0,0,1.865-.324A1.8,1.8,0,0,0,194.145,8a1.809,1.809,0,0,0-1.035-1.679,3.483,3.483,0,0,0-1.55-.294c-.994-.01-1.993-.005-2.987-.005h-1.566" transform="translate(-89.512 -1.525)" fill="#dcddef"/>
        <path id="Path_598" data-name="Path 598" d="M226.132,16.785h-2.57l-.742-1.8h-7.767l-.747,1.808H211.9l5.831-13.67h2.539s5.82,13.562,5.862,13.665M221.707,12.4,219.333,6.72h-.8l-2.4,5.681Z" transform="translate(-102.755 -1.513)" fill="#dcddef"/>
        <path id="Path_599" data-name="Path 599" d="M123.08,3.135l2.833.01,4.594,7.762,4.564-7.778c.85.01,1.947.005,2.833.005-.046.088-6.191,10.5-6.191,10.5V16.78H129.3l-.021-3.142Z" transform="translate(-59.684 -1.518)" fill="#dcddef"/>
        <path id="Path_600" data-name="Path 600" d="M243.92,16.795V3.14h2.447V13.926h8.3v2.869Z" transform="translate(-118.283 -1.523)" fill="#dcddef"/>
        <rect id="Rectangle_1658" data-name="Rectangle 1658" width="1.01" height="36.57" transform="translate(40.722)" fill="#dcddef"/>
      </g>
    </g>
  </g>
</svg>
