<svg xmlns="http://www.w3.org/2000/svg" width="571.385" height="646.736" viewBox="0 0 571.385 646.736">
  <path id="Path_2496" data-name="Path 2496" d="M299.113,583.056H288.282C129.308,583.056,0,453.372,0,293.928S129.308,4.8,288.282,4.8h9.983V26.555h-9.983c-147.014,0-266.621,119.983-266.621,267.373S135.43,555.368,277.452,561.112v-40.5c-119.7-5.651-215.388-105.2-215.388-226.688S163.5,67.052,288.282,67.052h10.831v87.3H288.282c-76.756,0-139.2,62.629-139.2,139.573s56.7,133.639,128.366,139.2V387.353a94.068,94.068,0,0,1-82.972-93.425c0-51.892,42.1-94.084,93.8-94.084h9.983V221.6h-9.983a72.329,72.329,0,0,0,0,144.658h10.831v89H288.282c-88.717,0-160.858-72.423-160.858-161.328s66.4-155.395,150.027-160.951V89.09C169.711,94.74,83.725,184.493,83.725,294.022s91.731,205.215,204.557,205.215h10.831v83.819Z" transform="translate(326.093 -3.979) rotate(34)" fill="#414158"/>
</svg>
