<svg id="alert" xmlns="http://www.w3.org/2000/svg" xmlns:xlink="http://www.w3.org/1999/xlink" width="24.633" height="21.882" viewBox="0 0 24.633 21.882">
  <defs>
    <linearGradient id="linear-gradient" x1="0.5" x2="0.5" y2="1" gradientUnits="objectBoundingBox">
      <stop offset="0" stop-color="#7a34f4"/>
      <stop offset="0.344" stop-color="#6473f6"/>
      <stop offset="0.637" stop-color="#54a2f8"/>
      <stop offset="0.86" stop-color="#4abef9"/>
      <stop offset="0.989" stop-color="#46c9f9"/>
    </linearGradient>
  </defs>
  <path id="Path_1939" data-name="Path 1939" d="M385.1,208.5a.481.481,0,1,1,.34-.141A.484.484,0,0,1,385.1,208.5Zm0,0" transform="translate(-366.116 -197.582)" fill="url(#linear-gradient)"/>
  <path id="Path_1940" data-name="Path 1940" d="M22.558,22.381H2.074A2.071,2.071,0,0,1,.281,19.275L10.523,1.535a2.071,2.071,0,0,1,3.587,0l4.247,7.356a.481.481,0,0,1-.833.481L13.277,2.016a1.109,1.109,0,0,0-1.921,0L1.114,19.756a1.109,1.109,0,0,0,.961,1.664H22.558a1.109,1.109,0,0,0,.961-1.664l-4.105-7.111a.481.481,0,0,1,.833-.481l4.105,7.111a2.071,2.071,0,0,1-1.794,3.107Zm0,0" transform="translate(0 -0.499)" fill="url(#linear-gradient)"/>
  <path id="Path_1941" data-name="Path 1941" d="M225.543,156.213A1.541,1.541,0,0,1,224,154.674v-4.342a1.539,1.539,0,0,1,3.079,0v4.342A1.541,1.541,0,0,1,225.543,156.213Zm0-6.458a.578.578,0,0,0-.577.577v4.342a.577.577,0,1,0,1.155,0v-4.342A.578.578,0,0,0,225.543,149.755Zm0,0" transform="translate(-213.227 -141.658)" fill="url(#linear-gradient)"/>
  <path id="Path_1942" data-name="Path 1942" d="M225.543,330.107a1.539,1.539,0,1,1,1.089-.451A1.541,1.541,0,0,1,225.543,330.107Zm0-2.117a.577.577,0,1,0,.577.577A.578.578,0,0,0,225.543,327.99Zm0,0" transform="translate(-213.227 -311.318)" fill="url(#linear-gradient)"/>
</svg>
