<svg id="artificial-intelligence" xmlns="http://www.w3.org/2000/svg" xmlns:xlink="http://www.w3.org/1999/xlink" width="39.88" height="39.88" viewBox="0 0 39.88 39.88">
  <defs>
    <linearGradient id="linear-gradient" y1="0.5" x2="1" y2="0.5" gradientUnits="objectBoundingBox">
      <stop offset="0" stop-color="#7a34f4"/>
      <stop offset="0.344" stop-color="#6473f6"/>
      <stop offset="0.594" stop-color="#46c9f9"/>
      <stop offset="0.637" stop-color="#54a2f8"/>
      <stop offset="0.86" stop-color="#4abef9"/>
      <stop offset="1" stop-color="#46c9f9"/>
    </linearGradient>
  </defs>
  <path id="Path_1947" data-name="Path 1947" d="M39.566,29.933a2.339,2.339,0,0,0-3.171-.867l-5.889-5.143v-3.2h3.276a2.337,2.337,0,1,0,0-1.558H30.506v-3.2L36.4,10.816a2.354,2.354,0,0,0,1.151.3A2.336,2.336,0,1,0,35.37,9.644l-5.607,4.9L25.34,10.117l.367-.42a.779.779,0,1,0-1.173-1.025l-.613.7h-3.2V6.1a2.337,2.337,0,1,0-1.558,0V9.374h-3.2l-5.143-5.89A2.337,2.337,0,0,0,10.8,1.169h0a2.337,2.337,0,1,0-1.162,3.34l4.9,5.608-4.423,4.423-5.607-4.9A2.337,2.337,0,1,0,1.167,10.8a2.321,2.321,0,0,0,1.164.313,2.355,2.355,0,0,0,1.151-.3l5.889,5.143v3.2H6.1a2.337,2.337,0,1,0,0,1.558H9.371v3.2L3.482,29.066a2.339,2.339,0,0,0-3.171.867h0a2.337,2.337,0,1,0,4.194.307l5.608-4.9,4.423,4.423-4.9,5.608A2.335,2.335,0,1,0,10.814,36.4l5.143-5.889h3.2v3.276a2.337,2.337,0,1,0,1.558,0V30.509h3.2L29.063,36.4a2.34,2.34,0,1,0,1.174-1.024l-4.9-5.609,4.423-4.423,5.608,4.9a2.336,2.336,0,1,0,4.194-.307h0ZM35.985,19.162a.779.779,0,1,1-.779.779A.78.78,0,0,1,35.985,19.162ZM19.939,3.116a.779.779,0,1,1-.779.779A.78.78,0,0,1,19.939,3.116ZM3.893,20.72a.779.779,0,1,1,.779-.779A.78.78,0,0,1,3.893,20.72ZM19.939,36.766a.779.779,0,1,1,.779-.779A.78.78,0,0,1,19.939,36.766ZM37.153,8.106a.779.779,0,1,1-.363.473A.773.773,0,0,1,37.153,8.106ZM8.1,2.727a.779.779,0,1,1,1.064.285A.78.78,0,0,1,8.1,2.727ZM1.946,9.455a.779.779,0,0,1,.779-1.349h0a.779.779,0,1,1-.779,1.349ZM3.01,31.491a.779.779,0,1,1-.285-1.064A.78.78,0,0,1,3.01,31.491Zm6.158,6.729a.779.779,0,1,1,.285-1.064A.78.78,0,0,1,9.168,38.219ZM31.1,36.766a.779.779,0,1,1-.676.389.774.774,0,0,1,.676-.389ZM28.949,23.955l-5,5H15.925l-5-5V15.928l5-5h8.027l5,5Zm8.983,7.821a.779.779,0,1,1,.285-1.064.78.78,0,0,1-.285,1.064Z" transform="translate(0.001 -0.001)" fill="url(#linear-gradient)"/>
  <path id="Path_1948" data-name="Path 1948" d="M340.224,79.757a1.033,1.033,0,0,0,0-2.066A1.033,1.033,0,0,0,340.224,79.757Z" transform="translate(-313.14 -71.345)" fill="url(#linear-gradient)"/>
  <path id="Path_1949" data-name="Path 1949" d="M365.609,6.716a1.033,1.033,0,0,0,1.457-.1l.559-.64a3.1,3.1,0,1,0-1.541-4.428h0a3.1,3.1,0,0,0-.015,3.069l-.559.641a1.033,1.033,0,0,0,.1,1.457Zm2.265-4.134a1.033,1.033,0,1,1,.378,1.411A1.034,1.034,0,0,1,367.873,2.582Z" transform="translate(-338.129 -0.001)" fill="url(#linear-gradient)"/>
  <path id="Path_1950" data-name="Path 1950" d="M202.355,206.776l-.011-.028a1.216,1.216,0,0,0-1.128-.756h0a1.216,1.216,0,0,0-1.128.758l-.009.024-3.1,8.146a1.033,1.033,0,1,0,1.93.735l.519-1.364h3.559l.514,1.361a1.033,1.033,0,1,0,1.932-.729Zm-2.144,5.449,1-2.628.992,2.628Z" transform="translate(-182.538 -191.216)" fill="url(#linear-gradient)"/>
  <path id="Path_1951" data-name="Path 1951" d="M295.072,207.024v8.262a1.033,1.033,0,1,0,2.066,0v-8.262a1.033,1.033,0,0,0-2.066,0Z" transform="translate(-272.392 -191.215)" fill="url(#linear-gradient)"/>
</svg>
