<svg id="big-data_1_" data-name="big-data (1)" xmlns="http://www.w3.org/2000/svg" xmlns:xlink="http://www.w3.org/1999/xlink" width="30.567" height="26.657" viewBox="0 0 30.567 26.657">
  <defs>
    <linearGradient id="linear-gradient" x1="0.5" x2="0.5" y2="1" gradientUnits="objectBoundingBox">
      <stop offset="0" stop-color="#7a34f4"/>
      <stop offset="0.344" stop-color="#6473f6"/>
      <stop offset="0.637" stop-color="#54a2f8"/>
      <stop offset="0.86" stop-color="#4abef9"/>
      <stop offset="0.989" stop-color="#46c9f9"/>
    </linearGradient>
  </defs>
  <path id="Path_1925" data-name="Path 1925" d="M28.886,23.481A1.483,1.483,0,0,0,27.405,22H21.481A1.483,1.483,0,0,0,20,23.481v.987a1.47,1.47,0,0,0,.385.987,1.47,1.47,0,0,0-.385.987v.987a1.47,1.47,0,0,0,.385.987,1.47,1.47,0,0,0-.385.987v.987a1.483,1.483,0,0,0,1.481,1.481h5.924a1.483,1.483,0,0,0,1.481-1.481v-.987a1.47,1.47,0,0,0-.385-.987,1.47,1.47,0,0,0,.385-.987v-.987a1.47,1.47,0,0,0-.385-.987,1.47,1.47,0,0,0,.385-.987ZM27.9,30.393a.494.494,0,0,1-.494.494H21.481a.494.494,0,0,1-.494-.494v-.987a.494.494,0,0,1,.494-.494h5.924a.494.494,0,0,1,.494.494Zm0-2.962a.494.494,0,0,1-.494.494H21.481a.494.494,0,0,1-.494-.494v-.987a.494.494,0,0,1,.494-.494h5.924a.494.494,0,0,1,.494.494Zm0-2.962a.494.494,0,0,1-.494.494H21.481a.494.494,0,0,1-.494-.494v-.987a.494.494,0,0,1,.494-.494h5.924a.494.494,0,0,1,.494.494Z" transform="translate(-10.661 -13.609)" fill="url(#linear-gradient)"/>
  <path id="Path_1926" data-name="Path 1926" d="M23,25h.987v.987H23Z" transform="translate(-12.18 -15.128)" fill="url(#linear-gradient)"/>
  <path id="Path_1927" data-name="Path 1927" d="M27,25h3.949v.987H27Z" transform="translate(-14.206 -15.128)" fill="url(#linear-gradient)"/>
  <path id="Path_1928" data-name="Path 1928" d="M23,31h.987v.987H23Z" transform="translate(-12.18 -18.166)" fill="url(#linear-gradient)"/>
  <path id="Path_1929" data-name="Path 1929" d="M27,31h3.949v.987H27Z" transform="translate(-14.206 -18.166)" fill="url(#linear-gradient)"/>
  <path id="Path_1930" data-name="Path 1930" d="M23,37h.987v.987H23Z" transform="translate(-12.18 -21.204)" fill="url(#linear-gradient)"/>
  <path id="Path_1931" data-name="Path 1931" d="M27,37h3.949v.987H27Z" transform="translate(-14.206 -21.204)" fill="url(#linear-gradient)"/>
  <path id="Path_1932" data-name="Path 1932" d="M18.363,12.8a9.479,9.479,0,1,0,8.087,14.426l-.842-.516a8.491,8.491,0,1,1,.224-8.475l.868-.471A9.479,9.479,0,0,0,18.363,12.8Z" transform="translate(-5.034 -8.95)" fill="url(#linear-gradient)"/>
  <path id="Path_1933" data-name="Path 1933" d="M24.823,24.548a.751.751,0,0,1-.105-.882l-.876-.455a1.733,1.733,0,0,0,.283,2.035l.3.3a12.334,12.334,0,0,1-2.8,2.8l-.3-.3a1.732,1.732,0,0,0-2.035-.283,10.562,10.562,0,0,1-1.667.692,1.733,1.733,0,0,0-1.236,1.638v.42a12.136,12.136,0,0,1-3.955,0v-.42A1.733,1.733,0,0,0,11.2,28.452a10.568,10.568,0,0,1-1.667-.693,1.734,1.734,0,0,0-2.035.283l-.3.3a12.324,12.324,0,0,1-2.8-2.8l.3-.3a1.733,1.733,0,0,0,.283-2.035,10.58,10.58,0,0,1-.692-1.667,1.733,1.733,0,0,0-1.637-1.237h-.42a12.1,12.1,0,0,1,0-3.955h.42a1.732,1.732,0,0,0,1.637-1.236,10.58,10.58,0,0,1,.692-1.667A1.733,1.733,0,0,0,4.7,11.415l-.3-.3a12.324,12.324,0,0,1,2.8-2.8l.3.3A1.732,1.732,0,0,0,9.532,8.9,10.573,10.573,0,0,1,11.2,8.209a1.733,1.733,0,0,0,1.236-1.638v-.42a12.15,12.15,0,0,1,3.955,0v.42a1.733,1.733,0,0,0,1.236,1.638,10.556,10.556,0,0,1,1.667.692,1.734,1.734,0,0,0,2.036-.283l.3-.3a12.33,12.33,0,0,1,2.8,2.8l-.3.3a1.733,1.733,0,0,0-.283,2.035l.876-.455a.751.751,0,0,1,.105-.882l.593-.593a.494.494,0,0,0,.061-.625,13.335,13.335,0,0,0-3.629-3.628.492.492,0,0,0-.625.06l-.592.593a.748.748,0,0,1-.882.1,11.616,11.616,0,0,0-1.823-.757.74.74,0,0,1-.548-.7V5.738a.494.494,0,0,0-.4-.485,13.24,13.24,0,0,0-5.131,0,.494.494,0,0,0-.4.485v.834a.74.74,0,0,1-.548.7,11.611,11.611,0,0,0-1.823.757.748.748,0,0,1-.882-.1L7.6,7.327a.492.492,0,0,0-.625-.06A13.327,13.327,0,0,0,3.349,10.9a.494.494,0,0,0,.061.625L4,12.113A.741.741,0,0,1,4.108,13a11.545,11.545,0,0,0-.757,1.823.74.74,0,0,1-.7.548H1.82a.494.494,0,0,0-.485.4,13.166,13.166,0,0,0,0,5.131.494.494,0,0,0,.485.4h.834a.74.74,0,0,1,.7.548,11.545,11.545,0,0,0,.757,1.823A.741.741,0,0,1,4,24.548l-.593.593a.494.494,0,0,0-.061.625,13.327,13.327,0,0,0,3.628,3.628.492.492,0,0,0,.625-.06l.593-.593a.751.751,0,0,1,.882-.106,11.545,11.545,0,0,0,1.823.758.74.74,0,0,1,.548.7v.834a.494.494,0,0,0,.4.485,13.178,13.178,0,0,0,5.131,0,.494.494,0,0,0,.4-.485V30.09a.74.74,0,0,1,.548-.7,11.528,11.528,0,0,0,1.823-.757.75.75,0,0,1,.882.105l.593.593a.492.492,0,0,0,.625.06,13.327,13.327,0,0,0,3.628-3.628.494.494,0,0,0-.061-.625Z" transform="translate(-1.084 -5.002)" fill="url(#linear-gradient)"/>
  <path id="Path_1934" data-name="Path 1934" d="M52.911,36.494a1.479,1.479,0,0,0-1.39.987h-.814l-.841-1.261a.494.494,0,0,0-.411-.22H46v.987h3.192l.841,1.261a.494.494,0,0,0,.411.22h1.078a1.478,1.478,0,1,0,1.39-1.975Zm0,1.975a.494.494,0,1,1,.494-.494A.494.494,0,0,1,52.911,38.468Z" transform="translate(-23.826 -20.697)" fill="url(#linear-gradient)"/>
  <path id="Path_1935" data-name="Path 1935" d="M49.392,31.962A1.481,1.481,0,1,0,48,29.987H41v.987h7a1.479,1.479,0,0,0,1.39.987Zm0-1.975a.494.494,0,1,1-.494.494A.494.494,0,0,1,49.392,29.987Z" transform="translate(-21.294 -17.153)" fill="url(#linear-gradient)"/>
  <path id="Path_1936" data-name="Path 1936" d="M52.911,21a1.479,1.479,0,0,0-1.39.987H50.443a.494.494,0,0,0-.411.22l-.841,1.261H46v.987h3.456a.494.494,0,0,0,.411-.22l.841-1.261h.814A1.478,1.478,0,1,0,52.911,21Zm0,1.975a.494.494,0,1,1,.494-.494A.494.494,0,0,1,52.911,22.975Z" transform="translate(-23.826 -13.102)" fill="url(#linear-gradient)"/>
  <path id="Path_1937" data-name="Path 1937" d="M42,36h.987v.987H42Z" transform="translate(-21.801 -20.697)" fill="url(#linear-gradient)"/>
  <path id="Path_1938" data-name="Path 1938" d="M42,26h.987v.987H42Z" transform="translate(-21.801 -15.634)" fill="url(#linear-gradient)"/>
</svg>
