<svg xmlns="http://www.w3.org/2000/svg" width="31.531" height="31.452" viewBox="0 0 31.531 31.452">
  <g id="city-building" transform="translate(-10 -10.1)">
    <path id="Path_601" data-name="Path 601" d="M23.695,70h1.855a.373.373,0,0,1,.395.395v1.855a.373.373,0,0,1-.395.395H23.695a.373.373,0,0,1-.395-.395V70.395A.4.4,0,0,1,23.695,70Z" transform="translate(-8.051 -36.261)" fill="#fff"/>
    <path id="Path_602" data-name="Path 602" d="M50.395,70h1.855a.373.373,0,0,1,.395.395v1.855a.373.373,0,0,1-.395.395H50.395A.373.373,0,0,1,50,72.249V70.395A.373.373,0,0,1,50.395,70Z" transform="translate(-24.215 -36.261)" fill="#fff"/>
    <path id="Path_603" data-name="Path 603" d="M23.695,56.7h1.855a.373.373,0,0,1,.395.395v1.855a.373.373,0,0,1-.395.395H23.695a.373.373,0,0,1-.395-.395V57.095A.4.4,0,0,1,23.695,56.7Z" transform="translate(-8.051 -28.21)" fill="#fff"/>
    <path id="Path_604" data-name="Path 604" d="M37.095,63.3h1.855a.373.373,0,0,1,.395.395v1.855a.373.373,0,0,1-.395.395H37.095a.373.373,0,0,1-.395-.395V63.695A.4.4,0,0,1,37.095,63.3Z" transform="translate(-16.163 -32.205)" fill="#fff"/>
    <path id="Path_605" data-name="Path 605" d="M50.395,56.7h1.855a.373.373,0,0,1,.395.395v1.855a.373.373,0,0,1-.395.395H50.395A.373.373,0,0,1,50,58.949V57.095A.373.373,0,0,1,50.395,56.7Z" transform="translate(-24.215 -28.21)" fill="#fff"/>
    <path id="Path_606" data-name="Path 606" d="M23.695,43.3h1.855a.373.373,0,0,1,.395.395v1.855a.373.373,0,0,1-.395.395H23.695a.373.373,0,0,1-.395-.395V43.695A.424.424,0,0,1,23.695,43.3Z" transform="translate(-8.051 -20.098)" fill="#fff"/>
    <path id="Path_607" data-name="Path 607" d="M37.095,50h1.855a.373.373,0,0,1,.395.395v1.855a.373.373,0,0,1-.395.395H37.095a.373.373,0,0,1-.395-.395V50.395A.373.373,0,0,1,37.095,50Z" transform="translate(-16.163 -24.154)" fill="#fff"/>
    <path id="Path_608" data-name="Path 608" d="M50.395,43.3h1.855a.373.373,0,0,1,.395.395v1.855a.373.373,0,0,1-.395.395H50.395A.373.373,0,0,1,50,45.549V43.695A.4.4,0,0,1,50.395,43.3Z" transform="translate(-24.215 -20.098)" fill="#fff"/>
    <path id="Path_609" data-name="Path 609" d="M23.695,30h1.855a.373.373,0,0,1,.395.395v1.855a.373.373,0,0,1-.395.395H23.695a.373.373,0,0,1-.395-.395V30.395A.4.4,0,0,1,23.695,30Z" transform="translate(-8.051 -12.047)" fill="#fff"/>
    <path id="Path_610" data-name="Path 610" d="M37.095,36.7h1.855a.373.373,0,0,1,.395.395v1.855a.373.373,0,0,1-.395.395H37.095a.373.373,0,0,1-.395-.395V37.095A.373.373,0,0,1,37.095,36.7Z" transform="translate(-16.163 -16.103)" fill="#fff"/>
    <path id="Path_611" data-name="Path 611" d="M50.395,30h1.855a.373.373,0,0,1,.395.395v1.855a.373.373,0,0,1-.395.395H50.395A.373.373,0,0,1,50,32.249V30.395A.373.373,0,0,1,50.395,30Z" transform="translate(-24.215 -12.047)" fill="#fff"/>
    <path id="Path_612" data-name="Path 612" d="M33.678,16.572V16.1a1.292,1.292,0,0,0-.789-1.184l-10.5-4.7a1.258,1.258,0,0,0-1.066,0l-10.537,4.7A1.292,1.292,0,0,0,10,16.1V40.25a1.314,1.314,0,0,0,1.3,1.3H40.229a1.314,1.314,0,0,0,1.3-1.3V19.216a1.314,1.314,0,0,0-1.3-1.3H34.98A1.349,1.349,0,0,1,33.678,16.572ZM23.141,37.606a1.3,1.3,0,0,0-2.6,0,1.314,1.314,0,0,1-1.3,1.3H13.946a1.314,1.314,0,0,1-1.3-1.3V17.835a1.292,1.292,0,0,1,.789-1.184l7.893-3.512a1.258,1.258,0,0,1,1.066,0l7.893,3.512a1.292,1.292,0,0,1,.789,1.184V37.645a1.314,1.314,0,0,1-1.3,1.3H24.483a1.331,1.331,0,0,1-1.342-1.342Zm14.483,1.342H34.98a1.3,1.3,0,1,1,0-2.6,1.3,1.3,0,1,0,0-2.6,1.3,1.3,0,1,1,0-2.6,1.3,1.3,0,1,0,0-2.6,1.3,1.3,0,1,1,0-2.6,1.3,1.3,0,0,0,0-2.6,1.3,1.3,0,1,1,0-2.6h2.644a1.314,1.314,0,0,1,1.3,1.3V37.8A1.3,1.3,0,0,1,37.624,38.948Z" fill="#fff"/>
    <circle id="Ellipse_397" data-name="Ellipse 397" cx="1.302" cy="1.302" r="1.302" transform="translate(20.537 15.349)" fill="#fff"/>
  </g>
</svg>
