<svg xmlns="http://www.w3.org/2000/svg" width="23.523" height="23.531" viewBox="0 0 23.523 23.531">
  <g id="data" transform="translate(-0.951 -0.95)">
    <path id="Path_1986" data-name="Path 1986" d="M7.42,34.261l1.662,1.284a.378.378,0,0,0,.453.006l1.332-.979a16.09,16.09,0,0,0,6.753-11.3.378.378,0,0,0-.313-.416l-.727-.122a12.875,12.875,0,0,1-2.448-.675.38.38,0,0,0-.323.026l-1.449.834a.378.378,0,0,0-.189.329l.007,2.307-1.3.694.635-.925a.378.378,0,0,0,.064-.262l-.319-2.485L12.3,21.8a.378.378,0,0,0-.038-.628,12.907,12.907,0,0,1-2.679-2.054.378.378,0,0,0-.536,0,12.8,12.8,0,0,1-7,3.622l-.726.122a.388.388,0,0,0-.311.428A16.121,16.121,0,0,0,7.42,34.261ZM2.169,23.483A13.547,13.547,0,0,0,9.313,19.91,13.59,13.59,0,0,0,11.4,21.531l-.768.579a.378.378,0,0,0-.147.35l.328,2.559L9.379,27.1a.378.378,0,0,0,.491.547l2.867-1.53a.378.378,0,0,0,.2-.335l-.007-2.315,1.1-.636a13.5,13.5,0,0,0,2.425.651l.369.062a15.375,15.375,0,0,1-6.407,10.417l-1.1.81L7.883,33.662A15.425,15.425,0,0,1,1.8,23.543Z" transform="translate(0 -11.203)" fill="#fafafa" stroke="#fafafa" stroke-width="0.1"/>
    <path id="Path_1987" data-name="Path 1987" d="M40,24h.756v.756H40Z" transform="translate(-24.265 -14.311)" fill="#fafafa" stroke="#fafafa" stroke-width="0.1"/>
    <path id="Path_1988" data-name="Path 1988" d="M46,25h.756v.756H46Z" transform="translate(-27.998 -14.933)" fill="#fafafa" stroke="#fafafa" stroke-width="0.1"/>
    <path id="Path_1989" data-name="Path 1989" d="M45,20h.756v.756H45Z" transform="translate(-27.376 -11.822)" fill="#fafafa" stroke="#fafafa" stroke-width="0.1"/>
    <path id="Path_1990" data-name="Path 1990" d="M29,16h.756v.756H29Z" transform="translate(-17.42 -9.333)" fill="#fafafa" stroke="#fafafa" stroke-width="0.1"/>
    <path id="Path_1991" data-name="Path 1991" d="M31,20h.756v.756H31Z" transform="translate(-18.665 -11.822)" fill="#fafafa" stroke="#fafafa" stroke-width="0.1"/>
    <path id="Path_1992" data-name="Path 1992" d="M44.2,1H34.756A.756.756,0,0,0,34,1.756V5.911a.756.756,0,0,0,.756.756h.938l-.907,2.118a.378.378,0,0,0,.564.458l3.68-2.576H44.2a.756.756,0,0,0,.756-.756V1.756A.756.756,0,0,0,44.2,1Zm0,4.911H38.911a.378.378,0,0,0-.216.068L36,7.863l.611-1.426a.378.378,0,0,0-.346-.527H34.756V1.756H44.2Z" transform="translate(-20.532 0)" fill="#fafafa" stroke="#fafafa" stroke-width="0.1"/>
    <path id="Path_1993" data-name="Path 1993" d="M53.706,7.809l.534-.534.534.534.534-.534-.534-.534.534-.534-.534-.534-.534.534-.534-.534-.534.534.534.534-.534.534Z" transform="translate(-32.461 -2.907)" fill="#fafafa" stroke="#fafafa" stroke-width="0.1"/>
    <path id="Path_1994" data-name="Path 1994" d="M46.206,7.809l.534-.534.534.534.534-.534-.534-.534.534-.534-.534-.534-.534.534-.534-.534-.534.534.534.534-.534.534Z" transform="translate(-27.794 -2.907)" fill="#fafafa" stroke="#fafafa" stroke-width="0.1"/>
    <path id="Path_1995" data-name="Path 1995" d="M38.706,7.809l.534-.534.534.534.534-.534-.534-.534.534-.534-.534-.534-.534.534-.534-.534-.534.534.534.534-.534.534Z" transform="translate(-23.127 -2.907)" fill="#fafafa" stroke="#fafafa" stroke-width="0.1"/>
  </g>
</svg>
