<svg id="double-click_1_" data-name="double-click (1)" xmlns="http://www.w3.org/2000/svg" xmlns:xlink="http://www.w3.org/1999/xlink" width="14.1" height="25.783" viewBox="0 0 14.1 25.783">
  <defs>
    <linearGradient id="linear-gradient" x1="0.5" x2="0.5" y2="1" gradientUnits="objectBoundingBox">
      <stop offset="0" stop-color="#7a34f4"/>
      <stop offset="0.344" stop-color="#6473f6"/>
      <stop offset="0.637" stop-color="#54a2f8"/>
      <stop offset="0.86" stop-color="#4abef9"/>
      <stop offset="0.989" stop-color="#46c9f9"/>
    </linearGradient>
  </defs>
  <path id="Path_1943" data-name="Path 1943" d="M129.62,10.6a1.637,1.637,0,0,0-2.04-.221,1.636,1.636,0,0,0-1.962-.656A5.665,5.665,0,1,0,116,5.665a5.664,5.664,0,0,0,4.029,5.424v1.543a2.591,2.591,0,0,0-.633-1.059,2.042,2.042,0,0,0-.667-.442,2.152,2.152,0,0,0-.823-.161c-.063,0-.127,0-.188.007h0a1.249,1.249,0,0,0-1.162,1.246,1.261,1.261,0,0,0,.015.19c.136.9.394,2.106.535,2.746.221,1,.645,2.567.691,2.721.156.525.332,1.121.531,1.714a9.878,9.878,0,0,0,.878,2.032,4.648,4.648,0,0,0,1.613,1.594,2.986,2.986,0,0,0,.405.188l-.009,1.87a.5.5,0,0,0,.5.506H127.2a.5.5,0,0,0,.5-.506L127.7,23.29a4.732,4.732,0,0,0,.86-.72,4.4,4.4,0,0,0,.832-1.286.5.5,0,1,0-.924-.4,3.439,3.439,0,0,1-1.418,1.628l-5.286.008a1.655,1.655,0,0,1-.521-.215,3.8,3.8,0,0,1-1.193-1.225,8.815,8.815,0,0,1-.768-1.805c-.191-.569-.366-1.157-.52-1.676-.046-.156-.467-1.721-.674-2.655-.236-1.068-.526-2.705-.526-2.718a.244.244,0,0,1,.225-.242s.07,0,.106,0a1.084,1.084,0,0,1,.8.314,1.751,1.751,0,0,1,.451.917l.907,3.292a.5.5,0,0,0,.865.2.5.5,0,0,0,.124-.331V5.867a.629.629,0,1,1,1.259,0v8.67a.5.5,0,0,0,1.007,0V10.751a.629.629,0,0,1,1.259,0v4.037a.5.5,0,0,0,1.007,0V11.255a.629.629,0,1,1,1.259,0V15.04a.5.5,0,0,0,1.007,0V11.758a.629.629,0,0,1,1.259,0s0,4.785,0,4.869a.5.5,0,0,0,.5.508h0a.505.505,0,0,0,.5-.5c0-.088,0-4.878,0-4.878a1.625,1.625,0,0,0-.479-1.157Zm-7.393,12.922,4.387-.006h.076l.007,1.258h-4.477Zm.594-18.814a1.637,1.637,0,0,0-2.794,1.157V7.74a2.644,2.644,0,1,1,3.273,0V5.867A1.626,1.626,0,0,0,122.822,4.709Zm1.8,4.557A1.637,1.637,0,0,0,123.3,9.24V8.928a3.651,3.651,0,1,0-3.273,0v1.1a4.66,4.66,0,1,1,4.591-.762Z" transform="translate(-116 0)" fill="url(#linear-gradient)"/>
  <circle id="Ellipse_519" data-name="Ellipse 519" cx="0.504" cy="0.504" r="0.504" transform="translate(12.963 18.389)" fill="url(#linear-gradient)"/>
</svg>
