<svg xmlns="http://www.w3.org/2000/svg" width="21.5" height="18.5" viewBox="0 0 21.5 18.5">
  <path id="Path_2020" data-name="Path 2020" d="M13.135,5.75a1.252,1.252,0,0,1-1.026-.535l-.9-1.287A2.75,2.75,0,0,0,8.956,2.75H4A2.75,2.75,0,0,0,1.25,5.5v13A2.748,2.748,0,0,0,4,21.25H20a2.748,2.748,0,0,0,2.75-2.75V8.5A2.748,2.748,0,0,0,20,5.75Zm0,1.5H20A1.25,1.25,0,0,1,21.25,8.5v10A1.25,1.25,0,0,1,20,19.75H4A1.25,1.25,0,0,1,2.75,18.5V5.5A1.25,1.25,0,0,1,4,4.25H8.956a1.252,1.252,0,0,1,1.026.535l.9,1.287A2.749,2.749,0,0,0,13.135,7.25Z" transform="translate(-1.25 -2.75)" fill="#fafafa" fill-rule="evenodd"/>
</svg>
