<svg id="Group_17" data-name="Group 17" xmlns="http://www.w3.org/2000/svg" xmlns:xlink="http://www.w3.org/1999/xlink" width="34.744" height="39.91" viewBox="0 0 34.744 39.91">
  <defs>
    <linearGradient id="linear-gradient" x1="-0.187" y1="0.631" x2="1.387" y2="0.628" gradientUnits="objectBoundingBox">
      <stop offset="0" stop-color="#7a34f4"/>
      <stop offset="0.413" stop-color="#6473f6"/>
      <stop offset="0.637" stop-color="#54a2f8"/>
      <stop offset="0.773" stop-color="#46c9f9"/>
      <stop offset="0.86" stop-color="#4abef9"/>
      <stop offset="1" stop-color="#46c9f9"/>
    </linearGradient>
  </defs>
  <g id="network" transform="translate(0 0)">
    <g id="Group_11996" data-name="Group 11996">
      <path id="Path_1878" data-name="Path 1878" d="M50.765,21.778,54.4,22.5a3.7,3.7,0,1,0,.376-1.872l-3.76-.746a5.943,5.943,0,0,0-1.553-3.838L54.53,8.883a4.632,4.632,0,1,0-1.558-1.1l-5.008,7.075a5.951,5.951,0,0,0-7.271,1.138l-6.563-5.1A3.711,3.711,0,1,0,32.9,12.361l6.723,5.221a5.953,5.953,0,0,0,1.414,6.888l-4.027,5.7a4.929,4.929,0,1,0,1.461,1.241l4.167-5.894a5.945,5.945,0,0,0,4.58.1L52.2,32.972a4.181,4.181,0,1,0,1.555-1.109l-4.89-7.224A5.982,5.982,0,0,0,50.765,21.778Zm7.328-1.3A1.793,1.793,0,1,1,56.3,22.267,1.793,1.793,0,0,1,58.093,20.473ZM56.361,1.933a2.71,2.71,0,1,1-2.71,2.71A2.71,2.71,0,0,1,56.361,1.933ZM30.774,11.128a1.793,1.793,0,1,1,1.793-1.793A1.8,1.8,0,0,1,30.774,11.128Zm3.853,26.337a3.006,3.006,0,1,1,3.006-3.006A3.006,3.006,0,0,1,34.626,37.465Zm20.719-4a2.278,2.278,0,1,1-2.278,2.278A2.281,2.281,0,0,1,55.345,33.46ZM45.053,24.114A4.061,4.061,0,0,1,41,20.057h0a4.057,4.057,0,1,1,4.057,4.057Z" transform="translate(-27.055 -0.001)" fill="url(#linear-gradient)"/>
    </g>
  </g>
</svg>
