<svg id="Group_12102" data-name="Group 12102" xmlns="http://www.w3.org/2000/svg" xmlns:xlink="http://www.w3.org/1999/xlink" width="28" height="32.163" viewBox="0 0 28 32.163">
  <defs>
    <linearGradient id="linear-gradient" x1="0.5" x2="0.5" y2="1" gradientUnits="objectBoundingBox">
      <stop offset="0" stop-color="#7a34f4"/>
      <stop offset="0.344" stop-color="#6473f6"/>
      <stop offset="0.637" stop-color="#54a2f8"/>
      <stop offset="0.86" stop-color="#4abef9"/>
      <stop offset="0.989" stop-color="#46c9f9"/>
    </linearGradient>
  </defs>
  <g id="network" transform="translate(0 0)">
    <g id="Group_11996" data-name="Group 11996">
      <path id="Path_1878" data-name="Path 1878" d="M46.163,17.551l2.928.581a2.985,2.985,0,1,0,.3-1.509l-3.03-.6a4.79,4.79,0,0,0-1.251-3.093L49.2,7.159a3.733,3.733,0,1,0-1.255-.89l-4.036,5.7a4.8,4.8,0,0,0-5.86.917L32.757,8.781a2.991,2.991,0,1,0-.988,1.181l5.418,4.208a4.8,4.8,0,0,0,1.139,5.551l-3.246,4.59a3.972,3.972,0,1,0,1.177,1l3.358-4.75a4.791,4.791,0,0,0,3.691.081l4.015,5.931a3.369,3.369,0,1,0,1.253-.894l-3.941-5.821A4.821,4.821,0,0,0,46.163,17.551ZM52.068,16.5a1.445,1.445,0,1,1-1.445,1.445A1.445,1.445,0,0,1,52.068,16.5Zm-1.4-14.941a2.184,2.184,0,1,1-2.184,2.184A2.184,2.184,0,0,1,50.672,1.558Zm-20.62,7.41A1.445,1.445,0,1,1,31.5,7.523,1.447,1.447,0,0,1,30.052,8.968Zm3.1,21.225a2.422,2.422,0,1,1,2.422-2.422A2.422,2.422,0,0,1,33.157,30.193Zm16.7-3.228A1.836,1.836,0,1,1,48.018,28.8,1.838,1.838,0,0,1,49.854,26.965Zm-8.294-7.532a3.273,3.273,0,0,1-3.269-3.269h0a3.269,3.269,0,1,1,3.269,3.269Z" transform="translate(-27.055 -0.001)" fill="url(#linear-gradient)"/>
    </g>
  </g>
</svg>
