<svg id="SvgjsSvg1001" width="288" height="288" xmlns="http://www.w3.org/2000/svg" version="1.1" xmlns:xlink="http://www.w3.org/1999/xlink" xmlns:svgjs="http://svgjs.com/svgjs"><defs id="SvgjsDefs1002"></defs><g id="SvgjsG1008"><svg xmlns="http://www.w3.org/2000/svg" fill="none" viewBox="0 0 17 16" width="288" height="288"><path fill="#ffffff" d="M7.72568 15.0069H7.4437C5.46405 14.9911 3.57087 14.1935 2.17661 12.7881.782353 11.3826 0 9.48315 0 7.50344 0 5.52373.782353 3.62424 2.17661 2.21879 3.57087.813339 5.46405.0158264 7.4437 0H7.7041V.563484H7.4437C5.62769.563634 3.8841 1.27562 2.58706 2.54667 1.29002 3.81772.542888 5.54655.505986 7.36218.469083 9.17781 1.14535 10.9356 2.38967 12.2583 3.63399 13.581 5.34721 14.3632 7.16171 14.4372V13.386C5.62588 13.3126 4.17966 12.6414 3.1321 11.5159 2.08453 10.3904 1.5187 8.8998 1.55552 7.36265 1.59235 5.82551 2.2289 4.36372 3.32915 3.28966 4.42941 2.2156 5.90611 1.61446 7.4437 1.61468H7.72568V3.88012H7.4437C6.50719 3.88026 5.60711 4.24298 4.93217 4.89221 4.25724 5.54145 3.85988 6.42679 3.82342 7.36258 3.78695 8.29838 4.11421 9.21195 4.73657 9.91175 5.35893 10.6115 6.22806 11.0432 7.16171 11.1162V9.92882C6.54346 9.85596 5.97638 9.54973 5.57638 9.07271 5.17638 8.5957 4.97367 7.98393 5.00967 7.36244 5.04568 6.74095 5.31769 6.15668 5.7701 5.72905 6.22251 5.30143 6.82117 5.06273 7.4437 5.06176H7.7041V5.62524H7.4437C6.94557 5.62524 6.46784 5.82313 6.11561 6.17536 5.76338 6.52759 5.5655 7.00531 5.5655 7.50344 5.5655 8.00157 5.76338 8.4793 6.11561 8.83153 6.46784 9.18376 6.94557 9.38164 7.4437 9.38164H7.72568V11.6907H7.4437C6.35894 11.6886 5.31732 11.2656 4.5382 10.5109 3.75907 9.7561 3.30325 8.72844 3.2667 7.64429 3.23015 6.56014 3.61574 5.50412 4.34227 4.6986 5.06879 3.89307 6.07956 3.40091 7.16171 3.32575V2.18536C5.75038 2.22275 4.4117 2.81926 3.44018 3.84367 2.46866 4.86807 1.94387 6.23646 1.98126 7.64779 2.01866 9.05912 2.61517 10.3978 3.63957 11.3693 4.66398 12.3408 6.03236 12.8656 7.4437 12.8282H7.72568V15.0069zM8.72656 15.0071V14.4432C10.5671 14.4432 12.3322 13.712 13.6337 12.4106 14.9351 11.1091 15.6663 9.34397 15.6663 7.50344 15.6663 5.66292 14.9351 3.89777 13.6337 2.59632 12.3322 1.29487 10.5671.563724 8.72656.563724V.0002398C9.71698-.00767813 10.6992.180558 11.6165.554091 12.5338.927625 13.3681 1.47907 14.0712 2.17661 14.7743 2.87416 15.3324 3.70401 15.7133 4.6183 16.0942 5.53259 16.2902 6.51324 16.2902 7.50368 16.2902 8.49413 16.0942 9.47478 15.7133 10.3891 15.3324 11.3034 14.7743 12.1332 14.0712 12.8308 13.3681 13.5283 12.5338 14.0797 11.6165 14.4533 10.6992 14.8268 9.71698 15.015 8.72656 15.0071z" class="color73F svgShape"></path></svg></g></svg>