<svg id="Group_12099" data-name="Group 12099" xmlns="http://www.w3.org/2000/svg" xmlns:xlink="http://www.w3.org/1999/xlink" width="33.072" height="40.101" viewBox="0 0 33.072 40.101">
  <defs>
    <linearGradient id="linear-gradient" x1="0.5" x2="0.5" y2="1" gradientUnits="objectBoundingBox">
      <stop offset="0" stop-color="#7a34f4"/>
      <stop offset="0.344" stop-color="#6473f6"/>
      <stop offset="0.637" stop-color="#54a2f8"/>
      <stop offset="0.86" stop-color="#4abef9"/>
      <stop offset="0.989" stop-color="#46c9f9"/>
    </linearGradient>
  </defs>
  <g id="_x39_3_cyber_crime">
    <path id="Path_1844" data-name="Path 1844" d="M81.271,16.56H77.06a9.68,9.68,0,0,0-19.326-.4c-.01.135-.013.268-.017.4H53.462a2.635,2.635,0,0,0-2.632,2.632V38.969A2.635,2.635,0,0,0,53.462,41.6h9.664v2.379h-.786a2.927,2.927,0,0,0-2.892,2.508H58.54a.418.418,0,1,0,0,.835H76.193a.418.418,0,0,0,0-.835h-.907a2.928,2.928,0,0,0-2.892-2.508h-.786V41.6h9.664A2.635,2.635,0,0,0,83.9,38.969V19.191A2.635,2.635,0,0,0,81.271,16.56ZM61.647,24.695a1.82,1.82,0,0,1,.763,1.371,2.609,2.609,0,0,0,2.608,2.481h4.743a2.608,2.608,0,0,0,2.607-2.474v-.007s0,0,0,0a1.832,1.832,0,0,1,.767-1.372,9.714,9.714,0,0,0,3.292-4.344h3.688V36.111h-25.5V20.347h3.719A9.623,9.623,0,0,0,61.647,24.695Zm-3.08-8.475a8.846,8.846,0,1,1,14.072,7.8,2.665,2.665,0,0,0-1.105,2v.007a1.774,1.774,0,0,1-1.772,1.684H65.018a1.774,1.774,0,0,1-1.773-1.688,2.653,2.653,0,0,0-1.1-2A8.808,8.808,0,0,1,58.567,16.219ZM74.441,46.487H60.291a2.094,2.094,0,0,1,2.048-1.673H72.393A2.094,2.094,0,0,1,74.441,46.487Zm-3.67-2.508h-6.81V41.6h6.81Zm12.3-5.01a1.8,1.8,0,0,1-1.8,1.8H53.462a1.8,1.8,0,0,1-1.8-1.8V19.191a1.8,1.8,0,0,1,1.8-1.8h4.258a9.709,9.709,0,0,0,.347,2.116H54.2a.417.417,0,0,0-.418.418v16.6a.417.417,0,0,0,.418.418H80.533a.417.417,0,0,0,.418-.418v-16.6a.417.417,0,0,0-.418-.418H76.7a9.627,9.627,0,0,0,.351-2.116H81.27a1.8,1.8,0,0,1,1.8,1.8V38.969Zm-20.873-18.6a3.113,3.113,0,0,0,4.219-1.236c.835-1.53-.141-2.584-1.675-3.423s-2.944-1.09-3.781.443A3.11,3.11,0,0,0,62.193,20.368Zm-.5-3.815c.576-1.057,1.583-.691,2.647-.11s1.924,1.224,1.343,2.289a2.273,2.273,0,0,1-3.99-2.178Zm10.892,3.815a3.11,3.11,0,0,0,1.238-4.215c-.837-1.533-2.249-1.279-3.781-.443s-2.511,1.893-1.675,3.423A3.106,3.106,0,0,0,72.581,20.368Zm-2.143-3.925c1.066-.582,2.071-.946,2.647.11a2.273,2.273,0,0,1-3.99,2.178C68.516,17.668,69.366,17.028,70.439,16.443Z" transform="translate(-50.83 -7.221)" fill="url(#linear-gradient)"/>
  </g>
</svg>
