<svg xmlns="http://www.w3.org/2000/svg" width="20.777" height="14.566" viewBox="0 0 20.777 14.566">
  <g id="Group_12110" data-name="Group 12110" transform="translate(-24.613 0)">
    <path id="Path_467" data-name="Path 467" d="M18.865,64.267H1.912C.858,64.267,0,64.9,0,65.682S.858,67.1,1.912,67.1H18.865c1.054,0,1.912-.635,1.912-1.415S19.919,64.267,18.865,64.267Z" transform="translate(24.613 -64.267)" fill="#fafafa"/>
    <path id="Path_468" data-name="Path 468" d="M18.865,208.867H1.912C.858,208.867,0,209.5,0,210.282S.858,211.7,1.912,211.7H18.865c1.054,0,1.912-.635,1.912-1.415S19.919,208.867,18.865,208.867Z" transform="translate(24.613 -202.998)" fill="#fafafa"/>
    <path id="Path_469" data-name="Path 469" d="M18.865,353.467H1.912C.858,353.467,0,354.1,0,354.883S.858,356.3,1.912,356.3H18.865c1.054,0,1.912-.635,1.912-1.414S19.919,353.467,18.865,353.467Z" transform="translate(24.613 -341.731)" fill="#fafafa"/>
  </g>
</svg>
