<svg xmlns="http://www.w3.org/2000/svg" width="84" height="90" viewBox="0 0 84 90">
  <g id="Group_19391" data-name="Group 19391" transform="translate(-674 -387)">
    <g id="Flat" transform="translate(672.5 385.5)">
      <g id="Color" transform="translate(1.5 1.5)">
        <rect id="Rectangle_5466" data-name="Rectangle 5466" width="84" height="75" rx="12" fill="#ababf1"/>
        <path id="Path_2149" data-name="Path 2149" d="M85.5,9.564v10.08H1.5V9.564A8.064,8.064,0,0,1,9.564,1.5H77.436A8.064,8.064,0,0,1,85.5,9.564Z" transform="translate(-1.5 -1.5)" fill="#5252e2"/>
        <circle id="Ellipse_545" data-name="Ellipse 545" cx="2" cy="2" r="2" transform="translate(7 7)" fill="#e91e63"/>
        <circle id="Ellipse_546" data-name="Ellipse 546" cx="2" cy="2" r="2" transform="translate(29 7)" fill="#cddc39"/>
        <circle id="Ellipse_547" data-name="Ellipse 547" cx="2" cy="2" r="2" transform="translate(18 7)" fill="#ffc107"/>
        <path id="Path_2150" data-name="Path 2150" d="M105.268,12.5H94.516a2.016,2.016,0,1,0,0,4.032h10.752a2.016,2.016,0,0,0,0-4.032Z" transform="translate(-31.348 -5.108)" fill="#fff"/>
        <rect id="Rectangle_5467" data-name="Rectangle 5467" width="72" height="26" rx="6" transform="translate(6 26)" fill="#9191ea"/>
        <path id="Path_2152" data-name="Path 2152" d="M62.524,88.576A3,3,0,0,1,59.5,85.6V75.631a3.024,3.024,0,0,1,6.048,0V85.6a3,3,0,0,1-3.024,2.981Z" transform="translate(-20.524 -24.837)" fill="#fff"/>
        <circle id="Ellipse_548" data-name="Ellipse 548" cx="3" cy="3" r="3" transform="translate(39 69)" fill="#fff"/>
      </g>
    </g>
    <g id="reloading" transform="translate(690.5 426.527)">
      <path id="Path_2153" data-name="Path 2153" d="M50.973,25.236A25.236,25.236,0,1,1,25.736,0,25.265,25.265,0,0,1,50.973,25.236Z" transform="translate(0)" fill="#e91e63" fill-rule="evenodd"/>
      <path id="Path_2154" data-name="Path 2154" d="M162.164,153.271a11.717,11.717,0,0,1-21.107-1.715,1.577,1.577,0,0,1,2.951-1.114A8.559,8.559,0,1,0,146.332,141l2.233-.355a1.577,1.577,0,1,1,.495,3.115l-5.843.929a1.615,1.615,0,0,1-.249.02,1.578,1.578,0,0,1-1.576-1.55l-.11-6.212a1.577,1.577,0,1,1,3.154-.056l.027,1.559a11.719,11.719,0,0,1,17.7,14.82Z" transform="translate(-126.609 -122)" fill="#fff" fill-rule="evenodd"/>
    </g>
  </g>
</svg>
