<svg xmlns="http://www.w3.org/2000/svg" width="16" height="16" viewBox="0 0 16 16">
  <g id="Group_19760" data-name="Group 19760" transform="translate(8144 15410)" opacity="0.5">
    <rect id="Rectangle_5623" data-name="Rectangle 5623" width="16" height="16" transform="translate(-8144 -15410)" fill="#fff" opacity="0"/>
    <g id="svgexport-17_39_" data-name="svgexport-17 (39)" transform="translate(-8143.332 -15406.499)">
      <path id="Path_2654" data-name="Path 2654" d="M9.153,20.6l.833-.681a1.863,1.863,0,0,1,.1.58,2.54,2.54,0,0,1-2.749,2.249,3.315,3.315,0,0,1-.709-.079l.833-.681a1.686,1.686,0,0,0,1.7-1.388Zm5.454-.283a8.542,8.542,0,0,0-2.418-2.2l-.667.546A8.369,8.369,0,0,1,13.667,20.5a8.162,8.162,0,0,1-7.874,2.85l-.753.616a9.364,9.364,0,0,0,2.293.283,9.025,9.025,0,0,0,7.274-3.567A.316.316,0,0,0,14.606,20.317ZM12.7,16.64,2.615,24.888a.533.533,0,0,1-.648,0,.329.329,0,0,1,0-.53L3.25,23.308A8.787,8.787,0,0,1,.058,20.681a.316.316,0,0,1,0-.364A9.025,9.025,0,0,1,7.332,16.75a9.182,9.182,0,0,1,3.233.574l1.484-1.214a.533.533,0,0,1,.648,0A.329.329,0,0,1,12.7,16.64Zm-8.763,6.11,1.16-.949a1.974,1.974,0,0,1-.511-1.3,2.54,2.54,0,0,1,2.749-2.249,3.161,3.161,0,0,1,1.591.418l.938-.768a8.072,8.072,0,0,0-2.529-.4A8.219,8.219,0,0,0,1,20.5,8.457,8.457,0,0,0,3.933,22.749Zm1.825-1.494,2.5-2.044A2.123,2.123,0,0,0,7.332,19,1.694,1.694,0,0,0,5.5,20.5,1.289,1.289,0,0,0,5.759,21.256Z" transform="translate(0 -16)"/>
    </g>
  </g>
</svg>
