<svg xmlns="http://www.w3.org/2000/svg" xmlns:xlink="http://www.w3.org/1999/xlink" width="56.623" height="42.588" viewBox="0 0 56.623 42.588">
  <defs>
    <linearGradient id="linear-gradient" y1="0.5" x2="1" y2="0.5" gradientUnits="objectBoundingBox">
      <stop offset="0" stop-color="#7a34f4"/>
      <stop offset="0.344" stop-color="#6473f6"/>
      <stop offset="0.637" stop-color="#54a2f8"/>
      <stop offset="0.86" stop-color="#4abef9"/>
      <stop offset="0.989" stop-color="#46c9f9"/>
    </linearGradient>
  </defs>
  <path id="laptop" d="M23.211,32.74a1.011,1.011,0,0,0-.715.3l-2.022,2.022a1.018,1.018,0,0,0,.715,1.726,1.008,1.008,0,0,0,.715-.3l1.726-1.726h1.684c1.28,8.021,12.713,8.024,13.994,0h1.684l1.726,1.726a1.011,1.011,0,1,0,1.43-1.43l-2.022-2.022a1.011,1.011,0,0,0-.715-.3H39.389V30.718h2.022a1.011,1.011,0,1,0,0-2.022H39.389V26.673h2.022a1.011,1.011,0,0,0,.715-.3l2.022-2.022a1.011,1.011,0,1,0-1.43-1.43l-1.726,1.726H39.2a3.028,3.028,0,0,0-2.847-2.022V20.606a4.044,4.044,0,1,0-8.089,0v2.022a3.028,3.028,0,0,0-2.847,2.022H23.63L21.9,22.925a1.011,1.011,0,1,0-1.43,1.43L22.5,26.377c.347.494,2.024.238,2.737.3V28.7H23.211a1.011,1.011,0,1,0,0,2.022h2.022V32.74Zm14.156-7.078v8.089A5.064,5.064,0,0,1,33.323,38.7V24.651h3.033a1.012,1.012,0,0,1,1.011,1.011Zm-7.078-5.056a2.022,2.022,0,1,1,4.045,0v2.022H30.289Zm-2.022,4.044c.643-.011,2.369.008,3.033,0V38.7a5.064,5.064,0,0,1-4.044-4.953V25.662a1.012,1.012,0,0,1,1.011-1.011Zm32.356,21.8a7.086,7.086,0,0,1-7.078,7.078H11.078A7.086,7.086,0,0,1,4,46.45a2.025,2.025,0,0,1,2.022-2.022H26.245a1,1,0,0,1,.51.138l1.786,1.042h7.542c.355-.156,1.9-1.249,2.3-1.18H48.489a1.011,1.011,0,0,1,0,2.022H38.652c-.358.153-1.893,1.252-2.3,1.18H28.267c-.415.055-1.923-1.008-2.3-1.18H6.022a5.062,5.062,0,0,0,5.056,5.056H53.545A5.062,5.062,0,0,0,58.6,46.45H53.545a1.011,1.011,0,1,1,0-2.022h3.033V13.973a1.012,1.012,0,0,0-1.011-1.011H9.056a1.012,1.012,0,0,0-1.011,1.011v26.41a1.011,1.011,0,0,1-2.022,0V13.973A3.037,3.037,0,0,1,9.056,10.94H55.567A3.037,3.037,0,0,1,58.6,13.973V44.428a2.025,2.025,0,0,1,2.022,2.022Z" transform="translate(-4 -10.94)" fill="url(#linear-gradient)"/>
</svg>
