<svg xmlns="http://www.w3.org/2000/svg" xmlns:xlink="http://www.w3.org/1999/xlink" version="1.1" width="1000" height="1000" viewBox="0 0 1000 1000" xml:space="preserve">
<desc>Created with Fabric.js 3.5.0</desc>
<defs>
</defs>
<rect x="0" y="0" width="100%" height="100%" fill="rgba(255,255,255,0)"/>
<g transform="matrix(-41.3223 0 0 -41.3223 500.0002 500.0002)" id="762768">
<g style="" vector-effect="non-scaling-stroke">
		<g transform="matrix(1 0 0 1 0 0)" id="Path_1899">
<path style="stroke: none; stroke-width: 1; stroke-dasharray: none; stroke-linecap: butt; stroke-dashoffset: 0; stroke-linejoin: miter; stroke-miterlimit: 4; is-custom-font: none; font-file-url: none; fill: rgb(245,245,245); fill-rule: nonzero; opacity: 0.49;" transform=" translate(-12, -12)" d="M 12 1 A 11 11 0 1 0 23 12 A 11 11 0 0 0 12 1 Z m 0 20 a 9 9 0 1 1 9 -9 A 9 9 0 0 1 12 21 Z" stroke-linecap="round"/>
</g>
		<g transform="matrix(0 1 -1 0 0 0.9937)" id="Path_1900">
<path style="stroke: none; stroke-width: 1; stroke-dasharray: none; stroke-linecap: butt; stroke-dashoffset: 0; stroke-linejoin: miter; stroke-miterlimit: 4; is-custom-font: none; font-file-url: none; fill: rgb(245,245,245); fill-rule: nonzero; opacity: 0.49;" transform=" translate(-12.4937, -12)" d="M 10.707 6.293 A 1 1 0 1 0 9.293 7.707 L 13.586 12 L 9.293 16.293 a 1 1 0 1 0 1.414 1.414 l 5 -5 a 1 1 0 0 0 0 -1.414 Z" stroke-linecap="round"/>
</g>
</g>
</g>
</svg>