<svg id="list_1_" data-name="list (1)" xmlns="http://www.w3.org/2000/svg" width="15.132" height="15.132" viewBox="0 0 15.132 15.132">
  <path id="Path_2006" data-name="Path 2006" d="M3.153,0H.631A.631.631,0,0,0,0,.631V3.153a.631.631,0,0,0,.631.631H3.153a.631.631,0,0,0,.631-.631V.631A.631.631,0,0,0,3.153,0Z" fill="#e4e4e4"/>
  <path id="Path_2007" data-name="Path 2007" d="M17.458,0H8.631A.631.631,0,0,0,8,.631V3.153a.631.631,0,0,0,.631.631h8.827a.631.631,0,0,0,.631-.631V.631A.631.631,0,0,0,17.458,0Z" transform="translate(-2.956)" fill="#e4e4e4"/>
  <path id="Path_2008" data-name="Path 2008" d="M3.153,9H.631A.631.631,0,0,0,0,9.631v2.522a.631.631,0,0,0,.631.631H3.153a.631.631,0,0,0,.631-.631V9.631A.631.631,0,0,0,3.153,9Z" transform="translate(0 -3.325)" fill="#e4e4e4"/>
  <path id="Path_2009" data-name="Path 2009" d="M17.458,9H8.631A.631.631,0,0,0,8,9.631v2.522a.631.631,0,0,0,.631.631h8.827a.631.631,0,0,0,.631-.631V9.631A.631.631,0,0,0,17.458,9Z" transform="translate(-2.956 -3.325)" fill="#e4e4e4"/>
  <path id="Path_2010" data-name="Path 2010" d="M3.153,18H.631A.631.631,0,0,0,0,18.631v2.522a.631.631,0,0,0,.631.631H3.153a.631.631,0,0,0,.631-.631V18.631A.631.631,0,0,0,3.153,18Z" transform="translate(0 -6.651)" fill="#e4e4e4"/>
  <path id="Path_2011" data-name="Path 2011" d="M17.458,18H8.631A.631.631,0,0,0,8,18.631v2.522a.631.631,0,0,0,.631.631h8.827a.631.631,0,0,0,.631-.631V18.631A.631.631,0,0,0,17.458,18Z" transform="translate(-2.956 -6.651)" fill="#e4e4e4"/>
</svg>
