<svg id="Icon" xmlns="http://www.w3.org/2000/svg" width="15.132" height="15.132" viewBox="0 0 15.132 15.132">
  <path id="Path_2005" data-name="Path 2005" d="M12.81,15.079a.757.757,0,0,0-.757-.757h-5.3A.757.757,0,0,0,6,15.079v5.3a.757.757,0,0,0,.757.757h5.3a.757.757,0,0,0,.757-.757Zm8.323,0a.757.757,0,0,0-.757-.757h-5.3a.757.757,0,0,0-.757.757v5.3a.757.757,0,0,0,.757.757h5.3a.757.757,0,0,0,.757-.757Zm0-8.323A.757.757,0,0,0,20.376,6h-5.3a.757.757,0,0,0-.757.757v5.3a.757.757,0,0,0,.757.757h5.3a.757.757,0,0,0,.757-.757Zm-8.323,0A.757.757,0,0,0,12.053,6h-5.3A.757.757,0,0,0,6,6.757v5.3a.757.757,0,0,0,.757.757h5.3a.757.757,0,0,0,.757-.757Z" transform="translate(-6 -6)" fill="#e4e4e4" fill-rule="evenodd"/>
</svg>
