<svg id="b" xmlns="http://www.w3.org/2000/svg" xmlns:xlink="http://www.w3.org/1999/xlink" width="151.034" height="40.499" viewBox="0 0 151.034 40.499">
  <defs>
    <clipPath id="clip-path">
      <rect id="Rectangle_1659" data-name="Rectangle 1659" width="151.034" height="40.499" fill="none"/>
    </clipPath>
  </defs>
  <g id="c">
    <g id="Group_11717" data-name="Group 11717" clip-path="url(#clip-path)">
      <path id="Path_588" data-name="Path 588" d="M153.94,56.389a8.887,8.887,0,0,1-4.672-1.78,7.985,7.985,0,0,1-2.573-5.088,8.348,8.348,0,0,1-.051-1.688,7.926,7.926,0,0,1,3.776-6.206,8.548,8.548,0,0,1,4.9-1.055,8.108,8.108,0,0,1,5.613,2.664,7.976,7.976,0,0,1,1.745,4.347,8.3,8.3,0,0,1-1.74,6.1,7.93,7.93,0,0,1-5.607,2.732,8.028,8.028,0,0,1-1.386-.034m-5.362-7.9a5.981,5.981,0,0,0,3.708,5.738,7.057,7.057,0,0,0,3.656.291,5.311,5.311,0,0,0,4.364-3.468,7.078,7.078,0,0,0,.068-4.951,5.2,5.2,0,0,0-3.639-3.462,7.253,7.253,0,0,0-4.067-.011,5.219,5.219,0,0,0-3.411,2.841,6.814,6.814,0,0,0-.679,3.029" transform="translate(-62.988 -17.419)" fill="#fff"/>
      <path id="Path_589" data-name="Path 589" d="M102.475,40.562c.348.023.69.063,1.032.114a6.1,6.1,0,0,1,2.9,1.078,3.881,3.881,0,0,1,1.46,3h-1.82s-.046-.268-.074-.4a2.47,2.47,0,0,0-1.306-1.58,5.67,5.67,0,0,0-2.031-.536c-1.6-.177-4.318-.245-5.231,1.386a2.189,2.189,0,0,0,1.1,3.171,9.342,9.342,0,0,0,2.618.536,22.758,22.758,0,0,1,4.118.593,3.964,3.964,0,0,1,2.373,1.6,3.531,3.531,0,0,1,.525,1.609,4.033,4.033,0,0,1-2.464,4.54,10.376,10.376,0,0,1-4.158.77,10.543,10.543,0,0,1-4.181-.7,3.821,3.821,0,0,1-2.407-3.046c-.029-.165-.057-.331-.074-.508h1.808a2.919,2.919,0,0,0,2.481,2.344,10.932,10.932,0,0,0,3.97.131c1.386-.211,2.858-.867,3.086-2.407a2.511,2.511,0,0,0-1.7-2.738,1.379,1.379,0,0,0-.262-.074c-1.186-.165-2.373-.342-3.565-.485a12.845,12.845,0,0,1-2.966-.593,3.841,3.841,0,0,1-2.6-3.326,3.91,3.91,0,0,1,1.46-3.3,6,6,0,0,1,2.806-1.061,13.672,13.672,0,0,1,3.092-.12" transform="translate(-40.751 -17.409)" fill="#fff"/>
      <path id="Path_590" data-name="Path 590" d="M209.994,56.323H208.1v-15.2c.074,0,.154-.011.228-.011.85,0,1.7.006,2.55-.006a.34.34,0,0,1,.371.257q2.644,6.272,5.3,12.543a2.2,2.2,0,0,0,.222.342,2.21,2.21,0,0,0,.205-.325q2.661-6.28,5.311-12.566a.321.321,0,0,1,.348-.245c.93.011,1.86.006,2.812.006V56.329h-1.882V43.312l-.08-.046a1.243,1.243,0,0,0-.188.24c-.656,1.54-1.306,3.08-1.962,4.62q-1.694,4-3.383,7.991a.3.3,0,0,1-.319.217c-.57-.011-1.141-.011-1.706,0a.314.314,0,0,1-.337-.228Q212.954,49.86,210.3,43.62c-.051-.125-.034-.354-.308-.314V56.34Z" transform="translate(-89.397 -17.66)" fill="#fff"/>
      <path id="Path_591" data-name="Path 591" d="M179.5,41.1h8.362a6.909,6.909,0,0,1,2.47.428,4.184,4.184,0,0,1,2.766,3.519,6.246,6.246,0,0,1-.16,2.772,4.116,4.116,0,0,1-2.624,2.8c-.1.04-.2.08-.319.125,1.072,1.854,2.133,3.691,3.223,5.579h-.61c-.388,0-.776-.011-1.164,0a.326.326,0,0,1-.337-.2c-.89-1.586-1.8-3.16-2.681-4.746a.584.584,0,0,0-.6-.354c-2.025.023-4.044.011-6.069.011H181.4V56.3H179.49V41.09Zm1.917,8.157c.091.006.154.017.217.017,1.911,0,3.827.011,5.744-.006a9.114,9.114,0,0,0,1.477-.125,2.569,2.569,0,0,0,2.327-2.162,5.469,5.469,0,0,0,.068-1.295,2.623,2.623,0,0,0-2.15-2.635,6.149,6.149,0,0,0-1.443-.194c-2.014-.023-4.027-.011-6.041-.011-.068,0-.137.017-.2.023v6.394Z" transform="translate(-77.107 -17.652)" fill="#fff"/>
      <path id="Path_592" data-name="Path 592" d="M128.722,56.346h-1.951V42.873h-6V41.15h13.924v1.711h-5.972Z" transform="translate(-51.881 -17.678)" fill="#fff"/>
      <path id="Path_593" data-name="Path 593" d="M18.116,39.823H17.46a17.512,17.512,0,0,1,0-35.023h.6V6.118h-.6A16.2,16.2,0,0,0,16.8,38.494V36.041A13.744,13.744,0,0,1,17.46,8.57h.656v5.288H17.46A8.452,8.452,0,0,0,9.03,22.312,8.308,8.308,0,0,0,16.8,30.742V27.97a5.7,5.7,0,0,1,.656-11.357h.6v1.318h-.6a4.381,4.381,0,0,0,0,8.762h.656v5.39H17.46a9.769,9.769,0,0,1-9.743-9.771A9.622,9.622,0,0,1,16.8,12.563V9.905A12.428,12.428,0,0,0,5.071,22.317,12.566,12.566,0,0,0,17.46,34.747h.656v5.082Z" transform="translate(0 -2.062)" fill="#fff"/>
      <path id="Path_594" data-name="Path 594" d="M34.66,39.823V38.506a16.194,16.194,0,0,0,0-32.388V4.8a17.512,17.512,0,0,1,0,35.023" transform="translate(-14.89 -2.062)" fill="#fff"/>
      <path id="Path_595" data-name="Path 595" d="M103.279,2.547a7.265,7.265,0,0,1,3.143.89A6.953,6.953,0,0,1,109.6,8.571c-.873,0-1.745,0-2.624-.006a3.631,3.631,0,0,0-1.7-2.19,5.717,5.717,0,0,0-6.417.707,4.787,4.787,0,0,0-1.2,4.472,4.643,4.643,0,0,0,2.282,3.04,6.166,6.166,0,0,0,2.9.582,5.215,5.215,0,0,0,2.464-.508,3.838,3.838,0,0,0,1.808-2.35c.821,0,1.648.006,2.47.011a7.25,7.25,0,0,1-2.173,4.392,7.174,7.174,0,0,1-4.421,1.6,7.988,7.988,0,0,1-6.314-2.31,8.328,8.328,0,0,1-1.877-5.784A8.353,8.353,0,0,1,96.1,5.73a7.3,7.3,0,0,1,3.651-2.709,9.172,9.172,0,0,1,3.525-.473" transform="translate(-40.727 -1.087)" fill="#fff"/>
      <path id="Path_596" data-name="Path 596" d="M156.176,3.14H164a8.557,8.557,0,0,1,2.578.325,3.019,3.019,0,0,1,2.162,2.584,7.314,7.314,0,0,1,.034,2.339,2.624,2.624,0,0,1-1.552,2.185,1.324,1.324,0,0,0,.12.086,3.045,3.045,0,0,1,1.968,2.892,5.8,5.8,0,0,1-.188,2.168,3.145,3.145,0,0,1-2.339,2.259,9.877,9.877,0,0,1-2.122.274c-2.772.029-5.544.011-8.317.011-.051,0-.108-.006-.177-.011V3.14Zm2.675,12.036s3.708.006,5.5-.006a3.073,3.073,0,0,0,1.506-.234,1.5,1.5,0,0,0,.787-1.386,1.414,1.414,0,0,0-.816-1.329,3.412,3.412,0,0,0-1.266-.205c-1.831-.029-5.716,0-5.716,0,.011.314,0,3.166,0,3.166m.017-6a.683.683,0,0,0,.137.023c1.757,0,3.519.011,5.276-.034a2.657,2.657,0,0,0,1.243-.268,1.407,1.407,0,0,0,.006-2.362,2.463,2.463,0,0,0-1.158-.262c-1.808-.051-3.622-.04-5.436-.051a.308.308,0,0,0-.068.023V9.181Z" transform="translate(-67.089 -1.349)" fill="#fff"/>
      <path id="Path_597" data-name="Path 597" d="M187.265,18.252H184.59V3.159s5.476-.023,8.106-.011a6.093,6.093,0,0,1,2.932.667,3.938,3.938,0,0,1,1.979,2.453,7.845,7.845,0,0,1-.034,4.6,4.026,4.026,0,0,1-1.82,2.236l-.171.114c.907,1.671,2.721,5.031,2.721,5.031l-2.972.017s-1.6-3.029-2.27-4.312h-5.812v4.289Zm0-11.927V10.8h4.746a4.342,4.342,0,0,0,2.065-.359,2,2,0,0,0,1.1-1.917,2,2,0,0,0-1.147-1.86,3.857,3.857,0,0,0-1.717-.325c-1.1-.011-2.207-.006-3.308-.006h-1.734" transform="translate(-79.298 -1.351)" fill="#fff"/>
      <path id="Path_598" data-name="Path 598" d="M227.66,18.253h-2.846l-.821-2h-8.6l-.827,2H211.9L218.357,3.12h2.812s6.446,15.019,6.491,15.133m-4.9-4.854-2.63-6.292h-.884L216.589,13.4Z" transform="translate(-91.03 -1.34)" fill="#fff"/>
      <path id="Path_599" data-name="Path 599" d="M123.08,3.136l3.137.011,5.088,8.6,5.054-8.613c.941.011,2.156.006,3.137.006-.051.1-6.856,11.631-6.856,11.631v3.48h-2.675l-.023-3.48Z" transform="translate(-52.874 -1.345)" fill="#fff"/>
      <path id="Path_600" data-name="Path 600" d="M243.92,18.262V3.14h2.709V15.084h9.189v3.177Z" transform="translate(-104.785 -1.349)" fill="#fff"/>
      <rect id="Rectangle_1658" data-name="Rectangle 1658" width="1.118" height="40.499" transform="translate(45.097)" fill="#fff"/>
    </g>
  </g>
</svg>
