<svg xmlns="http://www.w3.org/2000/svg" width="23.919" height="14.403" viewBox="0 0 23.919 14.403">
  <g id="Mastercard" transform="translate(0 0)" style="mix-blend-mode: luminosity;isolation: isolate">
    <path id="Path_15" data-name="Path 15" d="M858.561,12.435a7.066,7.066,0,0,0,4.8,1.867,7.2,7.2,0,0,0,0-14.4,7.066,7.066,0,0,0-4.8,1.867,7.206,7.206,0,0,0,0,10.669Z" transform="translate(-846.596 0.1)" fill="#e9b040"/>
    <path id="Path_16" data-name="Path 16" d="M2047.5,979.922a.221.221,0,0,1,.222-.222.224.224,0,0,1,.234.222.227.227,0,0,1-.234.234A.224.224,0,0,1,2047.5,979.922Zm.222.186a.19.19,0,0,0,.185-.185.179.179,0,0,0-.185-.173.176.176,0,0,0-.173.173A.189.189,0,0,0,2047.722,980.108Zm-.025-.075h-.049v-.21h.086a.075.075,0,0,1,.049.012c.025.012.025.025.025.049s-.012.049-.037.049l.049.1h-.062l-.025-.086h-.037v-.037h.049c.012,0,.012-.012.012-.025s0-.012-.012-.025h-.049Z" transform="translate(-2024.533 -968.709)" fill="#e9b040"/>
    <path id="Path_17" data-name="Path 17" d="M14.277,6.44c-.025-.259-.074-.507-.123-.766H9.778a7.5,7.5,0,0,1,.2-.754h3.968q-.13-.39-.3-.766H10.284c.123-.261.26-.517.408-.766h2.534a6.394,6.394,0,0,0-.544-.754H11.236a7.026,7.026,0,0,1,.729-.766A7.18,7.18,0,1,0,7.157,14.4a7.1,7.1,0,0,0,4.809-1.867,6.791,6.791,0,0,0,.717-.754H11.236a8.56,8.56,0,0,1-.544-.766h2.534a5.836,5.836,0,0,0,.421-.766H10.284c-.111-.247-.222-.495-.31-.754h3.969a7.777,7.777,0,0,0,.21-.766,7.629,7.629,0,0,0,.123-.766c.025-.25.037-.5.037-.754a7.483,7.483,0,0,0-.036-.77Z" transform="translate(0 0.001)" fill="#cc2131"/>
    <path id="Path_18" data-name="Path 18" d="M2047.5,770.534a.224.224,0,0,1,.222-.234.227.227,0,0,1,.234.234.234.234,0,0,1-.234.234A.231.231,0,0,1,2047.5,770.534Zm.222.174a.173.173,0,1,0,0-.345.173.173,0,0,0,0,.345Zm-.025-.075h-.049v-.2h.136c.025.012.025.037.025.062a.066.066,0,0,1-.037.049l.049.086h-.062l-.025-.074h-.037v-.037h.025c.012,0,.025,0,.025-.012s.012-.012.012-.025a.012.012,0,0,0-.012-.012c0-.012-.012,0-.025,0h-.025Z" transform="translate(-2024.533 -761.658)" fill="#fff"/>
    <path id="Path_19" data-name="Path 19" d="M77.708,478.386l-.136.791a1.487,1.487,0,0,0-.692-.2c-.581,0-.989.569-.989,1.372,0,.556.271.89.729.89a1.518,1.518,0,0,0,.655-.185l-.136.828a2.583,2.583,0,0,1-.68.111c-.84,0-1.36-.606-1.36-1.582,0-1.3.717-2.213,1.743-2.213a1.518,1.518,0,0,1,.358.037l.31.074c.1.038.123.05.2.075Zm-2.5.544h-.074c-.259,0-.408.123-.643.482l.074-.458h-.706l-.482,2.967h.778c.284-1.817.358-2.126.729-2.126h.049a3.1,3.1,0,0,1,.3-.852l-.022-.013Zm-4.475,2.955a1.609,1.609,0,0,1-.556.1.571.571,0,0,1-.618-.655,2.067,2.067,0,0,1,.025-.26l.049-.3.037-.234.334-2.027h.766l-.086.445h.4l-.1.729h-.4l-.21,1.236a.463.463,0,0,0-.012.123c0,.148.074.21.259.21a.513.513,0,0,0,.21-.025l-.1.655Zm-2.979-1.991a.864.864,0,0,0,.581.828c.322.148.371.2.371.322,0,.185-.136.271-.445.271a2.315,2.315,0,0,1-.692-.111l-.111.68.037.012.136.025a.806.806,0,0,0,.21.025,2.866,2.866,0,0,0,.421.025c.815,0,1.2-.31,1.2-.989a.821.821,0,0,0-.544-.828c-.334-.148-.371-.185-.371-.322,0-.16.136-.234.384-.234a4.827,4.827,0,0,1,.556.037l.111-.68a4.494,4.494,0,0,0-.68-.062c-.866,0-1.174.459-1.162,1Zm15.871,2.028H82.9l.037-.285a.927.927,0,0,1-.717.322c-.569,0-.939-.482-.939-1.224,0-.989.581-1.83,1.261-1.83a.885.885,0,0,1,.741.408l.173-1.039h.766l-.593,3.647Zm-1.137-.692c.359,0,.606-.421.606-1,0-.384-.136-.581-.408-.581-.347,0-.606.408-.606.989,0,.395.137.593.408.593Zm-9.382.629a2.545,2.545,0,0,1-.8.123A1.178,1.178,0,0,1,71,480.648c0-1.014.569-1.768,1.347-1.768a.994.994,0,0,1,1.051,1.076,2.993,2.993,0,0,1-.1.742H71.762a.241.241,0,0,0-.012.086c0,.347.234.519.68.519a1.7,1.7,0,0,0,.8-.185l-.123.742Zm-.432-1.767v-.148a.343.343,0,0,0-.371-.384c-.247,0-.421.185-.495.532Zm-7.875,1.83h-.766l.445-2.807-1,2.807h-.532l-.062-2.782-.47,2.782H61.7l.606-3.647h1.113l.037,2.263.741-2.263h1.211l-.606,3.647Zm1.916-1.322c-.074,0-.111-.012-.173-.012-.433,0-.655.16-.655.458a.26.26,0,0,0,.271.3c.322,0,.544-.3.556-.741Zm.569,1.322h-.643l.012-.31a.964.964,0,0,1-.815.359.718.718,0,0,1-.7-.8c0-.729.495-1.15,1.36-1.15.086,0,.2.012.322.025a.623.623,0,0,0,.025-.185c0-.2-.136-.271-.495-.271a2.556,2.556,0,0,0-.643.074l-.111.037-.074.012.111-.667a3.118,3.118,0,0,1,.928-.148c.667,0,1.026.3,1.026.865a3.744,3.744,0,0,1-.062.593l-.173,1.051-.025.185-.012.148-.012.111-.015.074ZM78.957,480.6c-.086,0-.123-.012-.173-.012-.445,0-.667.16-.667.458a.269.269,0,0,0,.285.3c.308,0,.543-.3.555-.741Zm.569,1.322h-.643l.012-.31a.964.964,0,0,1-.815.359.718.718,0,0,1-.7-.8c0-.729.495-1.15,1.36-1.15a3.094,3.094,0,0,1,.31.025.784.784,0,0,0,.037-.185c0-.2-.136-.271-.495-.271a2.652,2.652,0,0,0-.655.074l-.1.037-.074.012.111-.667a3.118,3.118,0,0,1,.928-.148c.667,0,1.014.3,1.014.865a2.657,2.657,0,0,1-.062.593l-.16,1.051-.025.185-.025.148-.012.111,0,.074ZM81.6,478.93h-.074c-.259,0-.408.123-.643.482l.074-.458h-.7l-.47,2.967h.766c.285-1.817.359-2.126.729-2.126h.049a3.1,3.1,0,0,1,.3-.852l-.024-.013Z" transform="translate(-61.008 -472.835)" fill="#fff"/>
  </g>
</svg>
