<svg xmlns="http://www.w3.org/2000/svg" width="20.261" height="20.015" viewBox="0 0 20.261 20.015">
  <g id="node" transform="translate(0.387 0.25)">
    <path id="Path_1970" data-name="Path 1970" d="M203.962,3.995V6.683a3.094,3.094,0,0,1,1.143,0V3.994a2.038,2.038,0,1,0-1.143,0Z" transform="translate(-194.775)" fill="#fafafa" stroke="#29297b" stroke-width="0.5"/>
    <path id="Path_1971" data-name="Path 1971" d="M205.981,203.9a1.987,1.987,0,1,0,1.987,1.987A1.989,1.989,0,0,0,205.981,203.9Z" transform="translate(-196.217 -196.13)" fill="#fafafa" stroke="#29297b" stroke-width="0.5"/>
    <path id="Path_1972" data-name="Path 1972" d="M302.489,7.976a3.155,3.155,0,0,1,.809.807l4.128-4.128a2.038,2.038,0,1,0-.808-.808Z" transform="translate(-290.958 -0.799)" fill="#fafafa" stroke="#29297b" stroke-width="0.5"/>
    <path id="Path_1973" data-name="Path 1973" d="M2.038,4.138a2.04,2.04,0,0,0,.979-.25L7.182,8.053a3.155,3.155,0,0,1,.807-.809L3.826,3.08A2.04,2.04,0,1,0,2.038,4.138Z" transform="translate(0 -0.061)" fill="#fafafa" stroke="#29297b" stroke-width="0.5"/>
    <path id="Path_1974" data-name="Path 1974" d="M339.524,205.168a2.038,2.038,0,1,0,0-1.143h-2.682a3.1,3.1,0,0,1,0,1.143h2.682Z" transform="translate(-324.002 -194.837)" fill="#fafafa" stroke="#29297b" stroke-width="0.5"/>
    <path id="Path_1975" data-name="Path 1975" d="M42.451,204.024a2.038,2.038,0,1,0,0,1.143h1.226a3.1,3.1,0,0,1,0-1.143H42.451Z" transform="translate(-36.99 -194.836)" fill="#fafafa" stroke="#29297b" stroke-width="0.5"/>
    <path id="Path_1976" data-name="Path 1976" d="M205.141,337.84v-1.11a3.094,3.094,0,0,1-1.143,0v1.111a2.038,2.038,0,1,0,1.143,0Z" transform="translate(-194.81 -323.894)" fill="#fafafa" stroke="#29297b" stroke-width="0.5"/>
    <path id="Path_1977" data-name="Path 1977" d="M308.435,306.486a2.026,2.026,0,0,0-.98.25l-4.157-4.157a3.155,3.155,0,0,1-.809.807l4.159,4.159a2.038,2.038,0,1,0,1.787-1.059Z" transform="translate(-290.958 -291.046)" fill="#fafafa" stroke="#29297b" stroke-width="0.5"/>
    <path id="Path_1978" data-name="Path 1978" d="M8.027,303.208a3.155,3.155,0,0,1-.807-.809l-4.163,4.163a2.038,2.038,0,1,0,.808.808Z" transform="translate(-0.038 -290.873)" fill="#fafafa" stroke="#29297b" stroke-width="0.5"/>
  </g>
</svg>
