<svg xmlns="http://www.w3.org/2000/svg" width="17.232" height="17.232" viewBox="0 0 17.232 17.232">
  <g id="noun-tips-2378579" transform="translate(-81.802 -50.396)">
    <path id="Path_587" data-name="Path 587" d="M129.016,50.4a8.6,8.6,0,0,0-7.033,13.574l-1.563,3.356a.21.21,0,0,0,.282.276l3.251-1.622a7.662,7.662,0,0,0,.755.565.21.21,0,1,0,.21-.361c-.219-.128-.57-.434-.821-.617a.21.21,0,0,0-.217-.02l-2.83,1.412,1.359-2.916a.21.21,0,0,0-.02-.21,8.194,8.194,0,1,1,6.626,3.375,9.556,9.556,0,0,1-2.876-.414.211.211,0,1,0-.131.4,9.785,9.785,0,0,0,3.008.433,8.616,8.616,0,0,0,0-17.232Zm0,2.522a3.979,3.979,0,0,0-3.993,3.96,3.774,3.774,0,0,0,.88,2.522,3.05,3.05,0,0,1,.8,2.134.21.21,0,0,0,.21.21h4.2a.21.21,0,0,0,.21-.21,3.05,3.05,0,0,1,.8-2.134,3.774,3.774,0,0,0,.88-2.522,3.979,3.979,0,0,0-3.993-3.96Zm0,.42a3.553,3.553,0,0,1,3.572,3.54,3.251,3.251,0,0,1-.8,2.272,3.641,3.641,0,0,0-.86,2.174h-1.7V57.732a1.051,1.051,0,1,0-.42,0v3.592h-1.7a3.641,3.641,0,0,0-.86-2.174,3.251,3.251,0,0,1-.8-2.272,3.553,3.553,0,0,1,3.572-3.54Zm0,2.732a.63.63,0,1,1-.63.63A.627.627,0,0,1,129.016,56.07Zm-1.826,6.935a.211.211,0,1,0,.039.42H130.8a.21.21,0,1,0,0-.42H127.23a.219.219,0,0,0-.039,0Zm.84,1.681a.211.211,0,0,0,.039.42h1.891a.21.21,0,1,0,0-.42H128.07A.22.22,0,0,0,128.031,64.686Z" transform="translate(-38.598)" fill="#fff"/>
  </g>
</svg>
