<svg id="Page-1" xmlns="http://www.w3.org/2000/svg" xmlns:xlink="http://www.w3.org/1999/xlink" width="49.315" height="42.74" viewBox="0 0 49.315 42.74">
  <defs>
    <linearGradient id="linear-gradient" x1="-0.097" y1="0.568" x2="1" y2="0.593" gradientUnits="objectBoundingBox">
      <stop offset="0" stop-color="#7a34f4"/>
      <stop offset="0.344" stop-color="#6473f6"/>
      <stop offset="0.637" stop-color="#54a2f8"/>
      <stop offset="0.86" stop-color="#4abef9"/>
      <stop offset="0.872" stop-color="#46c9f9"/>
      <stop offset="1" stop-color="#46c9f9"/>
    </linearGradient>
  </defs>
  <g id="_017---Dark-Web" data-name="017---Dark-Web">
    <path id="Shape" d="M46.849,0H2.466A2.466,2.466,0,0,0,0,2.466V38.63a4.11,4.11,0,0,0,4.11,4.11h41.1a4.11,4.11,0,0,0,4.11-4.11V2.466A2.466,2.466,0,0,0,46.849,0ZM1.644,2.466a.822.822,0,0,1,.822-.822H46.849a.822.822,0,0,1,.822.822v4.11H1.644ZM47.671,38.63A2.466,2.466,0,0,1,45.205,41.1H4.11A2.466,2.466,0,0,1,1.644,38.63V8.219H47.671Z" fill="url(#linear-gradient)"/>
    <circle id="Oval" cx="0.747" cy="0.747" r="0.747" transform="translate(2.989 3.188)" fill="url(#linear-gradient)"/>
    <circle id="Oval-2" data-name="Oval" cx="0.747" cy="0.747" r="0.747" transform="translate(7.472 3.188)" fill="url(#linear-gradient)"/>
    <circle id="Oval-3" data-name="Oval" cx="0.747" cy="0.747" r="0.747" transform="translate(10.461 3.188)" fill="url(#linear-gradient)"/>
    <path id="Shape-2" data-name="Shape" d="M53.753,4H48.822a.822.822,0,0,0,0,1.644h4.932a.822.822,0,1,0,0-1.644Z" transform="translate(-8.548 -0.712)" fill="url(#linear-gradient)"/>
    <path id="Shape-3" data-name="Shape" d="M12.43,29.634c-.74,2.523-.173,5.622,1.742,9.46a4.11,4.11,0,0,0,3.058,2.384,5.112,5.112,0,0,0,.707.049,10.636,10.636,0,0,0,3.411-.756l.534-.181a12.9,12.9,0,0,1,8.4,0l.534.181a8.992,8.992,0,0,0,4.11.707A4.052,4.052,0,0,0,37.967,39.1c1.923-3.847,2.466-6.945,1.751-9.468,2.688-1.019,4.43-2.4,4.43-4.11,0-2.91-4.71-4.447-7.858-5.145l-1.315-5.564a4.11,4.11,0,0,0-4.5-3.107,34.957,34.957,0,0,1-4.389.23,34.957,34.957,0,0,1-4.405-.255,4.11,4.11,0,0,0-4.5,3.107l-1.315,5.564C12.71,21.053,8,22.623,8,25.5c0,1.734,1.742,3.115,4.43,4.134Zm24.082,8.737A2.531,2.531,0,0,1,34.7,39.85a7.66,7.66,0,0,1-3.353-.633l-.559-.156a14.449,14.449,0,0,0-9.419,0l-.559.189a7.644,7.644,0,0,1-3.345.633A2.556,2.556,0,0,1,15.644,38.4C13.934,34.976,13.4,32.28,14,30.176a45.206,45.206,0,0,0,12.082,1.488,45.205,45.205,0,0,0,12.09-1.512c.592,2.1.058,4.8-1.66,8.219ZM35.847,25.59c-.682.362-2.959,1.142-9.764,1.142s-9.041-.822-9.764-1.142l.386-1.644c1.323.575,3.995,1.142,9.378,1.142s8.055-.567,9.378-1.151ZM18.767,15.168a2.466,2.466,0,0,1,2.7-1.849,38.326,38.326,0,0,0,4.611.263,38.326,38.326,0,0,0,4.611-.263,2.466,2.466,0,0,1,2.7,1.849l1.644,7.126c-.542.329-2.614,1.151-8.959,1.151s-8.416-.822-8.992-1.151Zm-3.329,6.97-.822,3.584a.822.822,0,0,0,.066.559c.3.625,2.038,2.1,11.4,2.1s11.1-1.471,11.416-2.1a.822.822,0,0,0,.066-.559l-.822-3.584c3.986,1,5.753,2.375,5.753,3.362,0,1.89-6.255,4.521-16.438,4.521S9.619,27.39,9.619,25.5c.025-.986,1.833-2.359,5.819-3.362Z" transform="translate(-1.425 -2.075)" fill="url(#linear-gradient)"/>
    <path id="Shape-4" data-name="Shape" d="M25.613,40.046,18.355,36.1a.848.848,0,0,0-1.2.592c-.066.353-.592,3.477.7,5.03a2.466,2.466,0,0,0,1.923.855,19.036,19.036,0,0,0,5.753-1.036.809.809,0,0,0,.082-1.5Zm-5.836.888a.822.822,0,0,1-.658-.279,4.159,4.159,0,0,1-.477-2.523l4.4,2.392a15,15,0,0,1-3.263.411Z" transform="translate(-3.026 -6.413)" fill="url(#linear-gradient)"/>
    <path id="Shape-5" data-name="Shape" d="M32.548,41.538A19.035,19.035,0,0,0,38.3,42.574a2.466,2.466,0,0,0,1.923-.871c1.29-1.553.764-4.677.7-5.03a.848.848,0,0,0-1.2-.592l-7.258,3.945a.843.843,0,0,0,.082,1.512ZM39.4,38.128a4.159,4.159,0,0,1-.468,2.523.822.822,0,0,1-.658.279,15,15,0,0,1-3.288-.411Z" transform="translate(-5.704 -6.41)" fill="url(#linear-gradient)"/>
    <path id="Shape-6" data-name="Shape" d="M4.822,16.11a.822.822,0,0,0,.822-.822V12.822a.822.822,0,0,0-1.644,0v2.466A.822.822,0,0,0,4.822,16.11Z" transform="translate(-0.712 -2.137)" fill="url(#linear-gradient)"/>
    <path id="Shape-7" data-name="Shape" d="M4.822,32.973a.822.822,0,0,0,.822-.822V19.822a.822.822,0,0,0-1.644,0V32.151A.822.822,0,0,0,4.822,32.973Z" transform="translate(-0.712 -3.384)" fill="url(#linear-gradient)"/>
  </g>
</svg>
