<svg xmlns="http://www.w3.org/2000/svg" width="10.982" height="13.803" viewBox="0 0 10.982 13.803">
  <path id="Path_2136" data-name="Path 2136" d="M107.035,32.151l1.874-1.753,2.22-9.444a.961.961,0,0,0-.715-1.155l-2.27-.534a.962.962,0,0,0-1.155.716l-2.22,9.444,1.34,3.592v.027h9.642v-.893Zm1.138-2.523-.766-.18,1.518-6.46.767.18Zm-.315-9.442a.068.068,0,0,1,.082-.051l2.27.534a.077.077,0,0,1,.051.082L109.9,22.3l-2.4-.564Zm-.568,2.417.766.18-1.518,6.46-.766-.18Zm-1.345,7.418,1.647.387-1.114,1.041Z" transform="translate(-104.769 -19.241)" fill="#fafafa"/>
</svg>
