<svg xmlns="http://www.w3.org/2000/svg" width="42.107" height="11.223" viewBox="0 0 42.107 11.223">
  <g id="Paypal" transform="translate(0 0)" style="mix-blend-mode: luminosity;isolation: isolate">
    <path id="Path_1" data-name="Path 1" d="M886.2,3.068c-.18,1.175-1.077,1.175-1.944,1.175h-.493l.347-2.2a.274.274,0,0,1,.271-.231h.225c.591,0,1.148,0,1.437.337a1.1,1.1,0,0,1,.156.915M885.824,0h-3.275a.458.458,0,0,0-.451.385l-1.323,8.4a.275.275,0,0,0,.228.313.215.215,0,0,0,.042,0h1.681a.321.321,0,0,0,.316-.268l.377-2.381a.456.456,0,0,1,.448-.385H884.9a3.363,3.363,0,0,0,3.729-3.113,2.533,2.533,0,0,0-.416-2.114A3.063,3.063,0,0,0,885.824,0" transform="translate(-857.412 0)" fill="#009cde"/>
    <path id="Path_2" data-name="Path 2" d="M5.4,3.068C5.22,4.243,4.321,4.243,3.454,4.243H2.96l.347-2.2a.274.274,0,0,1,.271-.231H3.8c.591,0,1.148,0,1.437.337a1.1,1.1,0,0,1,.156.915M5.021,0H1.746A.458.458,0,0,0,1.3.385l-1.323,8.4A.273.273,0,0,0,.2,9.094a.228.228,0,0,0,.042,0H1.807a.453.453,0,0,0,.448-.385l.358-2.265a.456.456,0,0,1,.448-.385H4.1A3.365,3.365,0,0,0,7.827,2.949,2.532,2.532,0,0,0,7.41.835,3.053,3.053,0,0,0,5.021,0m7.6,6.084a1.748,1.748,0,0,1-1.769,1.5A1.32,1.32,0,0,1,9.8,7.158a1.332,1.332,0,0,1-.247-1.1,1.755,1.755,0,0,1,1.758-1.509,1.323,1.323,0,0,1,1.045.427,1.353,1.353,0,0,1,.265,1.109M14.81,3.029H13.242a.274.274,0,0,0-.271.231L12.9,3.7l-.109-.159a2.228,2.228,0,0,0-1.851-.658,3.607,3.607,0,0,0-3.5,3.153,2.962,2.962,0,0,0,.583,2.411,2.456,2.456,0,0,0,1.976.8,3,3,0,0,0,2.172-.9l-.069.435a.273.273,0,0,0,.228.313.228.228,0,0,0,.042,0h1.411a.458.458,0,0,0,.451-.385l.849-5.368a.275.275,0,0,0-.228-.313.258.258,0,0,1-.048,0" transform="translate(0.032 0)" fill="#003087"/>
    <path id="Path_3" data-name="Path 3" d="M1166.043,111.8a1.748,1.748,0,0,1-1.769,1.5,1.217,1.217,0,0,1-1.3-1.525,1.755,1.755,0,0,1,1.758-1.509,1.323,1.323,0,0,1,1.045.427,1.352,1.352,0,0,1,.265,1.109m2.185-3.055h-1.567a.274.274,0,0,0-.271.231l-.069.438-.109-.159a2.228,2.228,0,0,0-1.851-.658,3.607,3.607,0,0,0-3.5,3.153,2.961,2.961,0,0,0,.583,2.411,2.456,2.456,0,0,0,1.976.8,3,3,0,0,0,2.172-.9l-.069.435a.273.273,0,0,0,.225.313.244.244,0,0,0,.045,0h1.411a.458.458,0,0,0,.451-.385l.849-5.368a.275.275,0,0,0-.228-.313.243.243,0,0,1-.048,0" transform="translate(-1130.028 -105.72)" fill="#009cde"/>
    <path id="Path_4" data-name="Path 4" d="M606.209,114.2h-1.578a.455.455,0,0,0-.377.2l-2.175,3.2-.923-3.076a.46.46,0,0,0-.435-.326h-1.549a.273.273,0,0,0-.273.273.243.243,0,0,0,.016.088l1.737,5.1-1.634,2.3a.275.275,0,0,0,.223.432h1.575a.458.458,0,0,0,.374-.2l5.243-7.569a.272.272,0,0,0-.225-.427" transform="translate(-583.016 -111.171)" fill="#003087"/>
    <path id="Path_5" data-name="Path 5" d="M1460.619.231l-1.345,8.55a.275.275,0,0,0,.228.313.229.229,0,0,0,.042,0h1.353a.458.458,0,0,0,.451-.385l1.326-8.4a.273.273,0,0,0-.228-.313.227.227,0,0,0-.042,0h-1.512a.272.272,0,0,0-.273.231" transform="translate(-1420.57 0)" fill="#009cde"/>
  </g>
</svg>
