<svg xmlns="http://www.w3.org/2000/svg" width="15.724" height="18.476" viewBox="0 0 15.724 18.476">
  <path id="shield_1_" data-name="shield (1)" d="M19.8,6.066,12.622,3.65a.684.684,0,0,0-.437,0L5.008,6.066a.684.684,0,0,0-.466.649v6a9.55,9.55,0,0,0,7.732,9.364.684.684,0,0,0,.259,0,9.551,9.551,0,0,0,7.732-9.364v-6a.684.684,0,0,0-.466-.649Zm-.9,6.648A8.18,8.18,0,0,1,12.4,20.708,8.18,8.18,0,0,1,5.91,12.714V7.206L12.4,5.02,18.9,7.206Zm-6.493-.83,2.108-2.108a.684.684,0,0,1,.968.968l-2.108,2.108L15.48,14.96a.684.684,0,1,1-.968.968L12.4,13.82,10.3,15.928a.684.684,0,0,1-.968-.968l2.108-2.108L9.328,10.744a.684.684,0,1,1,.968-.968Z" transform="translate(-4.542 -3.614)" fill="#fafafa"/>
</svg>
