<svg xmlns="http://www.w3.org/2000/svg" width="16" height="16" viewBox="0 0 16 16">
  <g id="Group_19761" data-name="Group 19761" transform="translate(7458 15819)" opacity="0.5">
    <rect id="Rectangle_5623" data-name="Rectangle 5623" width="16" height="16" transform="translate(-7458 -15819)" fill="#fff" opacity="0"/>
    <g id="svgexport-17_40_" data-name="svgexport-17 (40)" transform="translate(-7457 -15839)">
      <path id="Path_2655" data-name="Path 2655" d="M7.33,33A8.811,8.811,0,0,1,.058,28.719a.443.443,0,0,1,0-.437A8.811,8.811,0,0,1,7.33,24,8.811,8.811,0,0,1,14.6,28.281a.443.443,0,0,1,0,.437A8.811,8.811,0,0,1,7.33,33ZM1,28.5A7.925,7.925,0,0,0,7.33,32.1a7.9,7.9,0,0,0,6.333-3.6A7.925,7.925,0,0,0,7.33,24.9,7.9,7.9,0,0,0,1,28.5ZM7.33,31.2a2.7,2.7,0,1,1,2.749-2.7A2.728,2.728,0,0,1,7.33,31.2Zm0-4.5a1.8,1.8,0,1,0,1.833,1.8A1.819,1.819,0,0,0,7.33,26.7Z" transform="translate(0)"/>
    </g>
  </g>
</svg>
