<svg xmlns="http://www.w3.org/2000/svg" width="5.039" height="3.36" viewBox="0 0 5.039 3.36">
  <path id="Icon_ionic-ios-arrow-round-forward" data-name="Icon ionic-ios-arrow-round-forward" d="M11.088,11.316a.229.229,0,0,0,0,.322L12.15,12.7H8.1a.228.228,0,0,0,0,.455h4.048l-1.064,1.066a.23.23,0,0,0,0,.322.227.227,0,0,0,.32,0l1.442-1.453h0a.255.255,0,0,0,.047-.072.217.217,0,0,0,.017-.088.228.228,0,0,0-.065-.159l-1.442-1.453A.223.223,0,0,0,11.088,11.316Z" transform="translate(-7.875 -11.252)" fill="#fff"/>
</svg>
