<svg xmlns="http://www.w3.org/2000/svg" width="24" height="11.801" viewBox="0 0 24 11.801">
  <g id="svgexport-17_34_" data-name="svgexport-17 (34)" transform="translate(-113.75 -0.5)">
    <path id="Path_2500" data-name="Path 2500" d="M116.6,12.3A2.851,2.851,0,0,0,119,7.906l2.159-2.159a2.851,2.851,0,0,0,3.089,0L126.4,7.906a2.85,2.85,0,1,0,4.793,0l2.159-2.159a2.851,2.851,0,0,0,3.56-4.412,2.851,2.851,0,0,0-4.412,3.56l-2.159,2.159a2.851,2.851,0,0,0-3.089,0L125.1,4.895a2.85,2.85,0,1,0-4.793,0l-2.159,2.159A2.851,2.851,0,1,0,116.6,12.3ZM133.736,2.187a1.646,1.646,0,1,1-.482,1.164,1.635,1.635,0,0,1,.482-1.164Zm-3.773,6.1A1.646,1.646,0,1,1,128.8,7.8,1.635,1.635,0,0,1,129.964,8.287Zm-8.427-6.1a1.646,1.646,0,1,1,.07,2.393.544.544,0,0,0-.135-.135,1.645,1.645,0,0,1,.065-2.257Zm-6.1,6.1a1.645,1.645,0,1,1-.482,1.164A1.635,1.635,0,0,1,115.437,8.287Zm0,0" fill="#8484aa"/>
  </g>
</svg>
