<svg xmlns="http://www.w3.org/2000/svg" width="31.391" height="22.072" viewBox="0 0 31.391 22.072">
  <g id="team" transform="translate(0)">
    <path id="Path_613" data-name="Path 613" d="M164.478,202.5a5.984,5.984,0,0,0-5.978,5.978v3.679h11.955v-3.679A5.984,5.984,0,0,0,164.478,202.5Zm0,0" transform="translate(-148.782 -190.085)" fill="#fff"/>
    <path id="Path_614" data-name="Path 614" d="M196.777,71.638a4.138,4.138,0,1,0-4.138,4.138A4.143,4.143,0,0,0,196.777,71.638Zm0,0" transform="translate(-176.943 -63.362)" fill="#fff"/>
    <path id="Path_615" data-name="Path 615" d="M39.277,4.138a4.138,4.138,0,1,0-4.138,4.138A4.143,4.143,0,0,0,39.277,4.138Zm0,0" transform="translate(-29.099)" fill="#fff"/>
    <path id="Path_616" data-name="Path 616" d="M330.056,135a5.978,5.978,0,0,0-5.45,3.548,7.8,7.8,0,0,1,3.611,6.568h7.878v-4.138A6.037,6.037,0,0,0,330.056,135Zm0,0" transform="translate(-304.703 -126.723)" fill="#fff"/>
    <path id="Path_617" data-name="Path 617" d="M354.277,4.138a4.138,4.138,0,1,0-4.138,4.138A4.143,4.143,0,0,0,354.277,4.138Zm0,0" transform="translate(-324.786)" fill="#fff"/>
    <path id="Path_618" data-name="Path 618" d="M11.49,138.548A6.008,6.008,0,0,0,0,140.978v4.138H7.879A7.8,7.8,0,0,1,11.49,138.548Zm0,0" transform="translate(0 -126.723)" fill="#fff"/>
  </g>
</svg>
