<svg id="Group_17" data-name="Group 17" xmlns="http://www.w3.org/2000/svg" width="8.005" height="2.002" viewBox="0 0 8.005 2.002">
  <path id="Shape" d="M1.505,1.867A1,1,0,1,0,.135,1.5a1,1,0,0,0,1.37.366Z" transform="translate(0 0.002)" fill="#fff"/>
  <path id="Shape-2" data-name="Shape" d="M1.5,1.867A.993.993,0,0,0,1.861.5.99.99,0,0,0,.5.135a1,1,0,1,0,1,1.732Z" transform="translate(3.004 0.001)" fill="#fff"/>
  <path id="Shape-3" data-name="Shape" d="M1.5,1.866A1,1,0,1,0,.131,1.5a1.005,1.005,0,0,0,1.37.366Z" transform="translate(6.004 0)" fill="#fff"/>
</svg>
