<svg xmlns="http://www.w3.org/2000/svg" width="31.313" height="10.159" viewBox="0 0 31.313 10.159">
  <g id="Visa" transform="translate(0 0)" style="mix-blend-mode: luminosity;isolation: isolate">
    <g id="Group_3" data-name="Group 3" transform="translate(0 0)">
      <path id="Path_11" data-name="Path 11" d="M13.574,9.989H11.019l1.6-9.814h2.555ZM8.87.176,6.434,6.925,6.145,5.471h0L5.286,1.06A1.094,1.094,0,0,0,4.075.176H.048L0,.341A9.555,9.555,0,0,1,2.673,1.463l2.22,8.526H7.556L11.62.176Zm20.1,9.814h2.347L29.267.176H27.213a1.176,1.176,0,0,0-1.18.731l-3.81,9.083h2.664l.533-1.457h3.247l.3,1.457ZM26.155,6.517,27.5,2.844l.755,3.673ZM22.422,2.536,22.787.429A7.364,7.364,0,0,0,20.489,0C19.221,0,16.21.554,16.21,3.249c0,2.536,3.535,2.567,3.535,3.9s-3.17,1.092-4.216.253l-.38,2.2a7.17,7.17,0,0,0,2.884.554c1.744,0,4.374-.9,4.374-3.361,0-2.552-3.566-2.789-3.566-3.9s2.488-.966,3.581-.363Z" transform="translate(0 0)" fill="#2566af"/>
    </g>
    <path id="Path_12" data-name="Path 12" d="M6.147,17l-.86-4.414A1.094,1.094,0,0,0,4.075,11.7H.048L0,11.867a9.911,9.911,0,0,1,3.792,1.9A7.659,7.659,0,0,1,6.147,17Z" transform="translate(0 -11.526)" fill="#e6a540"/>
  </g>
</svg>
