<svg width="24" height="24" viewBox="0 0 24 24" fill="none" xmlns="http://www.w3.org/2000/svg">
<rect width="24" height="24" rx="12" fill="#5252E2"/>
<path d="M14.6002 10.2032H10.9818C10.8301 10.2032 10.7071 10.0802 10.7071 9.92846V8.54566C10.7071 7.66026 11.4274 6.93994 12.3128 6.93994H13.2692C14.1546 6.93994 14.8749 7.66026 14.8749 8.54566V9.92846C14.8749 10.0802 14.7519 10.2032 14.6002 10.2032ZM11.2565 9.65375H14.3255V8.54566C14.3255 7.96322 13.8517 7.48937 13.2692 7.48937H12.3128C11.7304 7.48937 11.2565 7.96321 11.2565 8.54566V9.65375Z" fill="white"/>
<path d="M11.8863 10.2028C11.7346 10.2028 11.6116 10.0798 11.6116 9.9281V9.02351C11.6116 8.87179 11.7346 8.74879 11.8863 8.74879C12.038 8.74879 12.161 8.87179 12.161 9.02351V9.9281C12.161 10.0798 12.038 10.2028 11.8863 10.2028ZM13.6955 10.2028C13.5438 10.2028 13.4208 10.0798 13.4208 9.9281V9.02351C13.4208 8.87179 13.5438 8.74879 13.6955 8.74879C13.8472 8.74879 13.9702 8.87179 13.9702 9.02351V9.9281C13.9702 10.0798 13.8472 10.2028 13.6955 10.2028ZM12.7909 7.48901C12.1406 7.48901 11.6116 6.95998 11.6116 6.30969C11.6116 5.65941 12.1406 5.13037 12.7909 5.13037C13.4412 5.13037 13.9702 5.65941 13.9702 6.30969C13.9702 6.95998 13.4412 7.48901 12.7909 7.48901ZM12.7909 5.6798C12.4436 5.6798 12.161 5.96237 12.161 6.30969C12.161 6.65701 12.4436 6.93958 12.7909 6.93958C13.1382 6.93958 13.4208 6.65701 13.4208 6.30969C13.4208 5.96237 13.1382 5.6798 12.7909 5.6798Z" fill="white"/>
<path d="M12.7909 11.7862C12.2655 11.7862 11.7556 11.6833 11.2755 11.4802C10.8119 11.2841 10.3955 11.0034 10.0381 10.646C9.68064 10.2885 9.39997 9.8722 9.20388 9.40859C9.0008 8.92845 8.89783 8.41857 8.89783 7.89313C8.89783 7.36767 9.0008 6.8578 9.20388 6.37766C9.39997 5.91404 9.68064 5.49772 10.0381 5.14027C10.3955 4.78281 10.8119 4.50215 11.2755 4.30606C11.7556 4.10297 12.2655 4 12.7909 4C13.3164 4 13.8263 4.10297 14.3064 4.30606C14.77 4.50215 15.1864 4.78283 15.5438 5.14027C15.9013 5.49772 16.1819 5.91404 16.378 6.37766C16.5811 6.8578 16.6841 7.36767 16.6841 7.89313C16.6841 8.41857 16.5811 8.92845 16.378 9.40859C16.1819 9.8722 15.9013 10.2885 15.5438 10.646C15.1864 11.0034 14.77 11.2841 14.3064 11.4802C13.8263 11.6833 13.3164 11.7862 12.7909 11.7862ZM12.7909 4.54943C10.9472 4.54943 9.44726 6.0494 9.44726 7.89313C9.44726 9.73684 10.9472 11.2368 12.7909 11.2368C14.6347 11.2368 16.1346 9.73684 16.1346 7.89313C16.1346 6.0494 14.6347 4.54943 12.7909 4.54943Z" fill="white"/>
<path d="M13.746 10.2034C13.6473 10.2034 13.5519 10.1501 13.5027 10.0567L13.4525 9.96147C13.3817 9.82726 13.4332 9.66111 13.5674 9.59034C13.7016 9.5196 13.8678 9.57103 13.9385 9.70524L13.9888 9.80051C14.0595 9.93472 14.0081 10.1009 13.8739 10.1716C13.8345 10.1925 13.7906 10.2034 13.746 10.2034ZM7.89312 18.3448H4.27472C4.12299 18.3448 4 18.2218 4 18.07V16.6872C4 15.8018 4.72032 15.0815 5.60572 15.0815H6.56213C7.44753 15.0815 8.16784 15.8018 8.16784 16.6872V18.07C8.16783 18.2218 8.04484 18.3448 7.89312 18.3448ZM4.54943 17.7953H7.6184V16.6872C7.6184 16.1048 7.14456 15.6309 6.56212 15.6309H5.60572C5.02328 15.6309 4.54943 16.1048 4.54943 16.6872V17.7953Z" fill="white"/>
<path d="M5.1792 18.3448C5.02747 18.3448 4.90448 18.2218 4.90448 18.0701V17.1655C4.90448 17.0137 5.02747 16.8907 5.1792 16.8907C5.33092 16.8907 5.45391 17.0137 5.45391 17.1655V18.0701C5.45391 18.2218 5.33092 18.3448 5.1792 18.3448ZM6.9884 18.3448C6.83667 18.3448 6.71368 18.2218 6.71368 18.0701V17.1655C6.71368 17.0137 6.83667 16.8907 6.9884 16.8907C7.14012 16.8907 7.26311 17.0137 7.26311 17.1655V18.0701C7.26311 18.2218 7.14012 18.3448 6.9884 18.3448ZM6.08379 15.631C5.43351 15.631 4.90448 15.1019 4.90448 14.4517C4.90448 13.8014 5.43351 13.2723 6.08379 13.2723C6.73407 13.2723 7.26311 13.8014 7.26311 14.4517C7.26311 15.1019 6.73407 15.631 6.08379 15.631ZM6.08379 13.8218C5.73647 13.8218 5.45391 14.1043 5.45391 14.4517C5.45391 14.799 5.73648 15.0815 6.08379 15.0815C6.4311 15.0815 6.71368 14.799 6.71368 14.4517C6.71368 14.1043 6.43111 13.8218 6.08379 13.8218ZM12.2847 19.9278H8.66628C8.51456 19.9278 8.39157 19.8048 8.39157 19.6531V18.2703C8.39157 17.3849 9.11189 16.6646 9.99728 16.6646H10.9537C11.8391 16.6646 12.5594 17.3849 12.5594 18.2703V19.6531C12.5594 19.8048 12.4364 19.9278 12.2847 19.9278ZM8.941 19.3784H12.01V18.2703C12.01 17.6879 11.5361 17.214 10.9537 17.214H9.99729C9.41485 17.214 8.94101 17.6879 8.94101 18.2703L8.941 19.3784Z" fill="white"/>
<path d="M9.57098 19.9279C9.41926 19.9279 9.29626 19.8049 9.29626 19.6532V18.7486C9.29626 18.5969 9.41926 18.4739 9.57098 18.4739C9.7227 18.4739 9.8457 18.5969 9.8457 18.7486V19.6532C9.8457 19.8049 9.7227 19.9279 9.57098 19.9279ZM11.3802 19.9279C11.2285 19.9279 11.1055 19.8049 11.1055 19.6532V18.7486C11.1055 18.5969 11.2285 18.4739 11.3802 18.4739C11.5319 18.4739 11.6549 18.5969 11.6549 18.7486V19.6532C11.6549 19.8049 11.5319 19.9279 11.3802 19.9279ZM10.4756 17.2141C9.8253 17.2141 9.29626 16.6851 9.29626 16.0348C9.29626 15.3845 9.8253 14.8555 10.4756 14.8555C11.1259 14.8555 11.6549 15.3845 11.6549 16.0348C11.6549 16.6851 11.1259 17.2141 10.4756 17.2141ZM10.4756 15.4049C10.1283 15.4049 9.8457 15.6875 9.8457 16.0348C9.8457 16.3821 10.1283 16.6647 10.4756 16.6647C10.8229 16.6647 11.1055 16.3821 11.1055 16.0348C11.1055 15.6875 10.8229 15.4049 10.4756 15.4049Z" fill="white"/>
<path d="M18.4379 19.9274H14.8195C14.6678 19.9274 14.5448 19.8044 14.5448 19.6527V18.2699C14.5448 17.3845 15.2651 16.6642 16.1505 16.6642H17.1069C17.9923 16.6642 18.7126 17.3845 18.7126 18.2699V19.6527C18.7126 19.8044 18.5896 19.9274 18.4379 19.9274ZM15.0942 19.378H18.1632V18.2699C18.1632 17.6875 17.6894 17.2136 17.1069 17.2136H16.1505C15.5681 17.2136 15.0942 17.6875 15.0942 18.2699V19.378Z" fill="white"/>
<path d="M17.6959 19.9276C17.5442 19.9276 17.4212 19.8046 17.4212 19.6529V18.7483C17.4212 18.5965 17.5442 18.4736 17.6959 18.4736C17.8477 18.4736 17.9707 18.5965 17.9707 18.7483V19.6529C17.9707 19.8046 17.8477 19.9276 17.6959 19.9276ZM15.8867 19.9276C15.735 19.9276 15.612 19.8046 15.612 19.6529V18.7483C15.612 18.5965 15.735 18.4736 15.8867 18.4736C16.0385 18.4736 16.1614 18.5965 16.1614 18.7483V19.6529C16.1614 19.8046 16.0385 19.9276 15.8867 19.9276ZM16.7913 17.2138C16.141 17.2138 15.612 16.6847 15.612 16.0345C15.612 15.3842 16.1411 14.8551 16.7913 14.8551C17.4416 14.8551 17.9706 15.3842 17.9706 16.0345C17.9707 16.6847 17.4416 17.2138 16.7913 17.2138ZM16.7913 15.4046C16.444 15.4046 16.1614 15.6872 16.1614 16.0345C16.1614 16.3818 16.444 16.6643 16.7913 16.6643C17.1387 16.6643 17.4212 16.3818 17.4212 16.0345C17.4212 15.6872 17.1387 15.4046 16.7913 15.4046ZM10.7014 15.433C10.6753 15.433 10.6494 15.4293 10.6244 15.422C10.4787 15.3795 10.3951 15.227 10.4376 15.0813L11.541 11.2986C11.5835 11.1529 11.736 11.0693 11.8817 11.1118C12.0273 11.1543 12.1109 11.3068 12.0685 11.4524L10.965 15.2352C10.93 15.3551 10.8204 15.433 10.7014 15.433ZM6.69969 14.0636C6.62707 14.0636 6.55459 14.035 6.50058 13.9782C6.39602 13.8683 6.40038 13.6944 6.51031 13.5898L10.0313 10.2408C10.1412 10.1363 10.3151 10.1406 10.4197 10.2506C10.5242 10.3605 10.5199 10.5344 10.4099 10.639L6.88896 13.9879C6.83796 14.0366 6.77016 14.0637 6.69969 14.0636Z" fill="white"/>
<path d="M15.971 15.9446C15.8923 15.9446 15.8142 15.911 15.7598 15.8458L13.4464 11.7945C13.3493 11.6779 13.3651 11.5047 13.4816 11.4076C13.5982 11.3104 13.7714 11.3262 13.8685 11.4427L16.1819 15.494C16.279 15.6106 16.2633 15.7838 16.1467 15.8809C16.0974 15.9221 16.0352 15.9447 15.971 15.9446Z" fill="white"/>
</svg>
