<svg width="25" height="33" viewBox="0 0 25 33" fill="none" xmlns="http://www.w3.org/2000/svg">
<path d="M16.25 8H12.5V18H15V15.5H16.25C18.3177 15.5 20 13.8177 20 11.75C20 9.68225 18.3177 8 16.25 8ZM16.25 13H15V10.5H16.25C16.9393 10.5 17.5 11.0608 17.5 11.75C17.5 12.4392 16.9393 13 16.25 13ZM7.5 18H10V8H7.5V18ZM12.5 0.5C5.6075 0.5 0 6.1075 0 13C0 18.0184 3.31106 21.3166 6.23231 24.2266C8.81269 26.7969 11.25 29.2248 11.25 32.5H13.75C13.75 29.2248 16.1873 26.7969 18.7677 24.2266C21.6889 21.3166 25 18.0184 25 13C25 6.1075 19.3925 0.5 12.5 0.5ZM17.0034 22.4554C15.3261 24.1261 13.6151 25.8306 12.5 27.8408C11.3849 25.8307 9.67387 24.1261 7.99662 22.4554C5.16994 19.6396 2.5 16.98 2.5 13C2.5 7.486 6.986 3 12.5 3C18.014 3 22.5 7.486 22.5 13C22.5 16.98 19.8301 19.6396 17.0034 22.4554Z" fill="url(#paint0_linear_233_3820)"/>
<defs>
<linearGradient id="paint0_linear_233_3820" x1="12.5" y1="32.5" x2="12.5" y2="0.5" gradientUnits="userSpaceOnUse">
<stop stop-color="#009EFD"/>
<stop offset="1" stop-color="#2AF598"/>
</linearGradient>
</defs>
</svg>
