<svg width="16" height="16" viewBox="0 0 16 16" fill="none" xmlns="http://www.w3.org/2000/svg">
<path d="M9.5001 12.5716H7.29602V11.3525C5.78072 11.7182 5.36745 10.4382 5.36745 10.4382C5.09194 9.82871 4.81643 9.52395 4.81643 9.52395C4.26541 9.15824 4.81643 9.21919 4.81643 9.21919C5.36745 9.21919 5.64296 9.82871 5.64296 9.82871C6.13888 10.743 6.99296 10.5906 7.29602 10.4382C7.29602 10.1335 7.40623 9.67633 7.57153 9.52395C6.35929 9.37157 5.36745 8.60966 5.36745 7.08585C5.36745 5.56204 5.64296 5.25728 5.91847 4.95252C5.86337 4.80014 5.64296 4.25157 5.91847 3.42871C5.91847 3.42871 6.46949 3.42871 7.02051 4.343C7.29602 4.03823 8.12255 4.03823 8.39806 4.03823C8.67357 4.03823 9.5001 4.03823 9.77561 4.343C10.3266 3.42871 10.8777 3.42871 10.8777 3.42871C11.1807 4.25157 10.9328 4.80014 10.8777 4.95252C11.1532 5.25728 11.4287 5.56204 11.4287 7.08585C11.4287 8.60966 10.4368 9.37157 9.22459 9.52395C9.3899 9.67633 9.5001 10.1944 9.5001 10.4382V12.5716Z" fill="#9596AA"/>
<circle cx="8" cy="8" r="7.5" stroke="#9596AA"/>
</svg>
