<svg width="18" height="18" viewBox="0 0 18 18" fill="none" xmlns="http://www.w3.org/2000/svg">
<path d="M13.8974 12.9001V12.8998H13.8996V9.67237C13.8996 8.09354 13.5597 6.87727 11.7139 6.87727C10.8265 6.87727 10.2311 7.36424 9.98801 7.8258H9.96238V7.02467H8.21228V12.8998H10.0346V9.9906C10.0346 9.22467 10.1798 8.48393 11.1284 8.48393C12.063 8.48393 12.0769 9.3581 12.0769 10.0397V12.9001H13.8974ZM5.24481 7.025H7.06938V12.9001H5.24481V7.025ZM6.15638 4.1001C5.57294 4.1001 5.09961 4.57343 5.09961 5.15687C5.09961 5.74031 5.57294 6.22354 6.15638 6.22354C6.73982 6.22354 7.21315 5.74031 7.21315 5.15687C7.21271 4.57343 6.73938 4.1001 6.15638 4.1001Z" fill="#9596AA"/>
<circle cx="9" cy="9" r="8.5" stroke="#9596AA"/>
</svg>
