<svg width="41" height="32" viewBox="0 0 41 32" fill="none" xmlns="http://www.w3.org/2000/svg">
<path d="M21.8657 21.6104C22.9753 23.0368 24.4037 24.1834 26.0363 24.9584C27.6689 25.7334 29.4603 26.1152 31.267 26.0732C33.0737 26.0311 34.8454 25.5665 36.4402 24.7165C38.035 23.8664 39.4085 22.6546 40.4507 21.1782L40.1136 20.1322C39.945 19.6229 39.644 19.1676 39.2415 18.8129C38.839 18.4582 38.3493 18.2169 37.8229 18.1138L33.5008 17.2494H28.9539L24.6318 18.1138C24.1061 18.2176 23.6174 18.4592 23.2157 18.8138C22.814 19.1685 22.5137 19.6235 22.3454 20.1322L21.8657 21.6104Z" fill="#4E4B92"/>
<path d="M23.2838 23.1189C25.4246 25.0415 28.2054 26.0967 31.0828 26.0783C33.9601 26.06 36.7272 24.9693 38.8433 23.0195L39.0508 22.678L38.7698 21.6537C38.6586 21.1735 38.4195 20.7323 38.0778 20.3769C37.7362 20.0216 37.3047 19.7653 36.8292 19.6353L33.1684 18.7709H29.2785L25.6177 19.6353C25.1451 19.7682 24.7168 20.0256 24.3777 20.3807C24.0386 20.7358 23.8011 21.1754 23.6901 21.6537L23.2838 23.1189Z" fill="#4E69B5"/>
<path d="M31.2361 19.8342L33.315 20.8671L34.1794 18.5332C34.2281 18.4019 34.2386 18.2595 34.2095 18.1226C34.1804 17.9856 34.113 17.8597 34.0152 17.7596L33.5181 17.2885L31.2361 19.8342ZM31.2361 19.8342L29.1615 20.8671L28.297 18.5332C28.2504 18.4017 28.241 18.2598 28.27 18.1232C28.299 17.9867 28.3652 17.8608 28.4613 17.7596L28.9583 17.2885L31.2361 19.8342Z" fill="#678CD3"/>
<path d="M30.2803 21.9132H32.195L32.6401 20.5344L31.2355 19.8342L29.8351 20.5344L30.2803 21.9132Z" fill="#E1346E"/>
<path d="M29.472 25.9714C30.64 26.127 31.8249 26.1037 32.9858 25.9023L32.1949 21.913H30.2759L29.472 25.9714Z" fill="#FF526E"/>
<path d="M32.8737 1.77527e-06H29.5976C28.1922 -2.41861e-06 26.8441 0.557402 25.8491 1.54995C24.8542 2.54251 24.2935 3.88917 24.29 5.29456V9.31843H38.1855V5.29456C38.1821 3.88842 37.6208 2.5411 36.6249 1.54843C35.629 0.555751 34.2798 -0.00114749 32.8737 1.77527e-06Z" fill="#92606F"/>
<path d="M24.2173 8.79993H38.2511C38.8837 8.79993 39.3965 9.31272 39.3965 9.94528V10.2521C39.3965 10.8847 38.8837 11.3975 38.2511 11.3975H24.2173C23.5847 11.3975 23.0719 10.8847 23.0719 10.2521V9.94528C23.0719 9.31272 23.5847 8.79993 24.2173 8.79993Z" fill="#F8AD9D"/>
<path d="M28.9587 17.2666V13.9731H33.5142V17.2666L31.2364 19.8339L28.9587 17.2666Z" fill="#F8AD9D"/>
<path d="M33.5181 13.9731H28.9583V16.964H33.5181V13.9731Z" fill="#F88A7F"/>
<path d="M25.5702 8.79997V10.6412C25.5702 12.1428 26.1667 13.583 27.2285 14.6448C28.2903 15.7066 29.7305 16.3031 31.2321 16.3031C32.7337 16.3031 34.1739 15.7066 35.2357 14.6448C36.2975 13.583 36.894 12.1428 36.894 10.6412V8.79997L35.8481 7.46445C35.5804 7.11156 35.4293 6.68403 35.4159 6.2413L35.3554 4.58161C35.3497 4.39398 35.2703 4.21614 35.1344 4.08668C34.9984 3.95722 34.817 3.88658 34.6293 3.89008C32.4036 4.17177 30.1513 4.17177 27.9257 3.89008C27.8283 3.87985 27.7298 3.89006 27.6366 3.92003C27.5433 3.95001 27.4573 3.99911 27.3841 4.06418C27.3109 4.12926 27.2521 4.20888 27.2114 4.29798C27.1707 4.38707 27.149 4.48367 27.1477 4.58161L27.0829 6.2413C27.0718 6.68446 26.9205 7.11269 26.6507 7.46445L25.5702 8.79997Z" fill="#FBC4AB"/>
<path d="M28.8283 9.43083C28.9429 9.43083 29.0528 9.38529 29.1339 9.30424C29.215 9.22318 29.2605 9.11325 29.2605 8.99862V8.72633C29.2605 8.6117 29.215 8.50176 29.1339 8.42071C29.0528 8.33965 28.9429 8.29412 28.8283 8.29412C28.7137 8.29412 28.6037 8.33965 28.5227 8.42071C28.4416 8.50176 28.3961 8.6117 28.3961 8.72633V8.99862C28.3961 9.11325 28.4416 9.22318 28.5227 9.30424C28.6037 9.38529 28.7137 9.43083 28.8283 9.43083ZM28.2102 7.97428H29.442C29.5566 7.97428 29.6666 7.92874 29.7476 7.84769C29.8287 7.76664 29.8742 7.6567 29.8742 7.54207C29.8742 7.42744 29.8287 7.31751 29.7476 7.23645C29.6666 7.1554 29.5566 7.10986 29.442 7.10986H28.2102C28.0956 7.10986 27.9857 7.1554 27.9046 7.23645C27.8235 7.31751 27.778 7.42744 27.778 7.54207C27.778 7.6567 27.8235 7.76664 27.9046 7.84769C27.9857 7.92874 28.0956 7.97428 28.2102 7.97428ZM33.6301 9.43083C33.7448 9.43083 33.8547 9.38529 33.9357 9.30424C34.0168 9.22318 34.0623 9.11325 34.0623 8.99862V8.72633C34.0623 8.6117 34.0168 8.50176 33.9357 8.42071C33.8547 8.33965 33.7448 8.29412 33.6301 8.29412C33.5155 8.29412 33.4056 8.33965 33.3245 8.42071C33.2435 8.50176 33.1979 8.6117 33.1979 8.72633V8.99862C33.1979 9.11325 33.2435 9.22318 33.3245 9.30424C33.4056 9.38529 33.5155 9.43083 33.6301 9.43083ZM33.0337 7.97428H34.2612C34.3758 7.97428 34.4857 7.92874 34.5668 7.84769C34.6478 7.76664 34.6934 7.6567 34.6934 7.54207C34.6934 7.42744 34.6478 7.31751 34.5668 7.23645C34.4857 7.1554 34.3758 7.10986 34.2612 7.10986H33.0337C32.919 7.10986 32.8091 7.1554 32.7281 7.23645C32.647 7.31751 32.6015 7.42744 32.6015 7.54207C32.6015 7.6567 32.647 7.76664 32.7281 7.84769C32.8091 7.92874 32.919 7.97428 33.0337 7.97428ZM32.8132 13.4547C32.8453 13.4076 32.8678 13.3546 32.8794 13.2988C32.891 13.243 32.8915 13.1855 32.8809 13.1295C32.8702 13.0735 32.8487 13.0202 32.8174 12.9725C32.7862 12.9249 32.7458 12.8838 32.6987 12.8518C32.6516 12.8197 32.5986 12.7972 32.5428 12.7856C32.487 12.774 32.4295 12.7735 32.3735 12.7842C32.3175 12.7948 32.2642 12.8164 32.2165 12.8476C32.1689 12.8789 32.1279 12.9192 32.0958 12.9663C32.0012 13.1089 31.8727 13.226 31.7219 13.3069C31.5711 13.3878 31.4025 13.4302 31.2314 13.4302C31.0602 13.4302 30.8917 13.3878 30.7408 13.3069C30.59 13.226 30.4616 13.1089 30.3669 12.9663C30.3354 12.9189 30.2949 12.8782 30.2477 12.8464C30.2004 12.8147 30.1474 12.7926 30.0916 12.7814C30.0358 12.7701 29.9784 12.77 29.9225 12.781C29.8667 12.7919 29.8136 12.8138 29.7662 12.8453C29.7188 12.8768 29.6781 12.9173 29.6463 12.9645C29.6146 13.0118 29.5925 13.0648 29.5812 13.1206C29.57 13.1764 29.5699 13.2338 29.5808 13.2897C29.5918 13.3455 29.6137 13.3987 29.6452 13.446C29.8186 13.7068 30.0537 13.9208 30.3296 14.0691C30.6055 14.2174 30.9137 14.2955 31.2269 14.2963C31.5401 14.2972 31.8487 14.2208 32.1254 14.074C32.4021 13.9272 32.6383 13.7145 32.8132 13.4547Z" fill="#302D3D"/>
<path d="M11.0141 4.40633e-05H7.73798C6.33183 -0.0011052 4.98269 0.555793 3.98677 1.54847C2.99086 2.54114 2.42956 3.88846 2.42613 5.29461V13.5066C2.42613 14.9819 3.01218 16.3967 4.05535 17.4399C5.09853 18.4831 6.51338 19.0691 7.98866 19.0691H10.7591C11.4914 19.072 12.2171 18.9302 12.8944 18.6519C13.5718 18.3736 14.1876 17.9644 14.7064 17.4475C15.2252 16.9307 15.6369 16.3166 15.9178 15.6403C16.1987 14.964 16.3433 14.2389 16.3433 13.5066V5.29461C16.3416 4.59688 16.2023 3.90634 15.9335 3.26248C15.6646 2.61863 15.2715 2.0341 14.7765 1.54234C14.2815 1.05059 13.6945 0.661246 13.0489 0.396601C12.4033 0.131957 11.7118 -0.00279891 11.0141 4.40633e-05Z" fill="#92606F"/>
<path d="M-2.86102e-05 21.6104C1.10909 23.0376 2.53727 24.185 4.16995 24.9605C5.80262 25.736 7.59433 26.1181 9.40135 26.0761C11.2084 26.0341 12.9804 25.5691 14.5752 24.7185C16.1701 23.8679 17.5434 22.6554 18.585 21.1782L18.2522 20.1538C18.0839 19.6451 17.7836 19.1901 17.3819 18.8354C16.9802 18.4808 16.4915 18.2392 15.9658 18.1354L11.6437 17.271H7.09252L2.77043 18.1354C2.24394 18.2385 1.75433 18.4798 1.3518 18.8345C0.949272 19.1892 0.648296 19.6445 0.479723 20.1538L-2.86102e-05 21.6104Z" fill="#B9CEF2"/>
<path d="M0.761393 22.4749C1.82552 23.5924 3.1025 24.4857 4.51714 25.1021C5.93178 25.7185 7.45546 26.0456 8.99846 26.0642C10.5414 26.0827 12.0725 25.7923 13.5016 25.21C14.9306 24.6277 16.2287 23.7654 17.3193 22.6737L17.6392 21.3771L17.5484 21.0746C17.4122 20.5801 17.1445 20.1317 16.7739 19.777C16.4033 19.4224 15.9436 19.1748 15.4435 19.0605C12.0982 18.3473 11.692 18.1961 10.6158 18.1961C6.67834 18.1961 7.88852 18.0621 3.29414 19.0605C2.79409 19.1748 2.33435 19.4224 1.96374 19.777C1.59313 20.1317 1.3255 20.5801 1.18928 21.0746L0.761393 22.4749Z" fill="#E6ECF2"/>
<path d="M14.0287 17.7207V24.9948C15.8565 24.14 17.4308 22.8249 18.5972 21.1784L18.2687 20.154C18.1001 19.6447 17.7991 19.1894 17.3966 18.8347C16.9941 18.48 16.5045 18.2387 15.978 18.1356L14.0287 17.7207ZM0.00352859 21.6106C0.033783 21.6538 0.245567 21.9175 0.366587 22.0428C1.54702 23.4214 3.03696 24.5011 4.71461 25.1936V17.7207L2.76967 18.101C2.24317 18.2042 1.75357 18.4454 1.35104 18.8001C0.948511 19.1548 0.647535 19.6101 0.478962 20.1195L0.00352859 21.6106Z" fill="#4E69B5"/>
<path d="M15.9792 18.114L14.03 17.7207V18.7364L15.4433 19.0389C15.9434 19.1532 16.4031 19.4009 16.7737 19.7555C17.1443 20.1101 17.4119 20.5585 17.5482 21.053L17.6389 21.3556C17.5266 21.8267 17.4358 22.22 17.3191 22.6522C17.7936 22.1811 18.2273 21.6707 18.6157 21.1265L18.2829 20.1022C18.1112 19.5954 17.807 19.1439 17.4019 18.7943C16.9969 18.4447 16.5057 18.2098 15.9792 18.114ZM0.000478745 21.6106C0.173363 21.8699 0.722267 22.475 0.756844 22.4966L1.18905 21.079C1.32528 20.5844 1.59291 20.1361 1.96351 19.7814C2.33412 19.4268 2.79387 19.1792 3.29391 19.0649L4.71588 18.7623V17.7207L2.77094 18.101C2.24444 18.2042 1.75484 18.4454 1.35231 18.8001C0.94978 19.1548 0.648804 19.6101 0.48023 20.1195L0.000478745 21.6106Z" fill="#4E4B92"/>
<path d="M9.37437 19.8342L11.449 20.8671L12.3134 18.5332C12.3601 18.4017 12.3694 18.2598 12.3404 18.1232C12.3115 17.9867 12.2453 17.8608 12.1492 17.7596L11.6521 17.2885L9.37437 19.8342ZM9.37437 19.8342L7.29544 20.8671L6.45263 18.5332C6.40391 18.4019 6.39348 18.2595 6.42256 18.1226C6.45164 17.9856 6.51902 17.8597 6.61687 17.7596L7.0923 17.2885L9.37437 19.8342Z" fill="white"/>
<path d="M7.09254 17.2666V13.9731H11.6523V17.2666L9.3746 19.8339L7.09254 17.2666Z" fill="#F8AD9D"/>
<path d="M2.355 8.79993H16.3888C17.0214 8.79993 17.5342 9.31272 17.5342 9.94528V10.2521C17.5342 10.8847 17.0214 11.3975 16.3888 11.3975H2.355C1.72243 11.3975 1.20964 10.8847 1.20964 10.2521V9.94528C1.20964 9.31272 1.72243 8.79993 2.355 8.79993Z" fill="#F8AD9D"/>
<path d="M8.97265 2.80078H9.76792C12.6753 2.80078 15.0322 5.15769 15.0322 8.06509V11.0344C15.0322 13.9418 12.6753 16.2987 9.76792 16.2987H8.97265C6.06526 16.2987 3.70834 13.9418 3.70834 11.0344V8.06509C3.70834 5.15769 6.06526 2.80078 8.97265 2.80078Z" fill="#FBC4AB"/>
<path d="M15.4346 6.73394H14.5702C13.6642 6.73369 12.7741 6.49615 11.9885 6.04496C11.2029 5.59377 10.5492 4.94468 10.0925 4.16229C10.0225 4.0382 9.92074 3.93495 9.79771 3.8631C9.67468 3.79124 9.53476 3.75338 9.39229 3.75338C9.24981 3.75338 9.1099 3.79124 8.98687 3.8631C8.86383 3.93495 8.76211 4.0382 8.69211 4.16229C8.23536 4.94468 7.58165 5.59377 6.79605 6.04496C6.01045 6.49615 5.12037 6.73369 4.21442 6.73394H3.50992L3.73035 3.80788L7.42141 0.925049H11.3113L15.0456 3.6739L15.4346 6.73394Z" fill="#92606F"/>
<path d="M6.96312 10.023C7.07775 10.023 7.18769 9.97745 7.26874 9.8964C7.34979 9.81534 7.39533 9.70541 7.39533 9.59078V9.31849C7.39533 9.20386 7.34979 9.09393 7.26874 9.01287C7.18769 8.93182 7.07775 8.88628 6.96312 8.88628C6.84849 8.88628 6.73856 8.93182 6.6575 9.01287C6.57645 9.09393 6.53091 9.20386 6.53091 9.31849V9.59078C6.53091 9.70541 6.57645 9.81534 6.6575 9.8964C6.73856 9.97745 6.84849 10.023 6.96312 10.023ZM6.34938 8.56644H7.57686C7.69149 8.56644 7.80142 8.52091 7.88248 8.43985C7.96353 8.3588 8.00907 8.24886 8.00907 8.13424C8.00907 8.01961 7.96353 7.90967 7.88248 7.82862C7.80142 7.74756 7.69149 7.70203 7.57686 7.70203H6.34938C6.23475 7.70203 6.12482 7.74756 6.04376 7.82862C5.96271 7.90967 5.91717 8.01961 5.91717 8.13424C5.91717 8.24886 5.96271 8.3588 6.04376 8.43985C6.12482 8.52091 6.23475 8.56644 6.34938 8.56644ZM11.7823 10.023C11.8969 10.023 12.0068 9.97745 12.0879 9.8964C12.1689 9.81534 12.2145 9.70541 12.2145 9.59078V9.31849C12.2145 9.20386 12.1689 9.09393 12.0879 9.01287C12.0068 8.93182 11.8969 8.88628 11.7823 8.88628C11.6676 8.88628 11.5577 8.93182 11.4766 9.01287C11.3956 9.09393 11.35 9.20386 11.35 9.31849V9.59078C11.35 9.70541 11.3956 9.81534 11.4766 9.8964C11.5577 9.97745 11.6676 10.023 11.7823 10.023ZM11.1555 8.56644H12.4003C12.5149 8.56644 12.6249 8.52091 12.7059 8.43985C12.787 8.3588 12.8325 8.24886 12.8325 8.13424C12.8325 8.01961 12.787 7.90967 12.7059 7.82862C12.6249 7.74756 12.5149 7.70203 12.4003 7.70203H11.1555C11.0409 7.70203 10.931 7.74756 10.8499 7.82862C10.7689 7.90967 10.7233 8.01961 10.7233 8.13424C10.7233 8.24886 10.7689 8.3588 10.8499 8.43985C10.931 8.52091 11.0409 8.56644 11.1555 8.56644ZM10.9524 13.1263C11.0166 13.0311 11.0404 12.9144 11.0185 12.8017C10.9966 12.689 10.9309 12.5897 10.8357 12.5255C10.7406 12.4613 10.6238 12.4375 10.5112 12.4594C10.3985 12.4813 10.2991 12.547 10.2349 12.6422C10.1403 12.7848 10.0119 12.9018 9.86105 12.9828C9.71022 13.0637 9.5417 13.1061 9.37053 13.1061C9.19935 13.1061 9.03084 13.0637 8.88001 12.9828C8.72918 12.9018 8.60073 12.7848 8.50611 12.6422C8.44074 12.5495 8.34157 12.4863 8.23 12.4661C8.11842 12.4459 8.00338 12.4703 7.90966 12.5341C7.81491 12.5975 7.74903 12.6957 7.72637 12.8074C7.7037 12.9191 7.72609 13.0353 7.78864 13.1306C7.96269 13.3906 8.19824 13.6037 8.47438 13.751C8.75053 13.8982 9.05874 13.975 9.37168 13.9746C9.68462 13.9742 9.99262 13.8965 10.2684 13.7485C10.5441 13.6005 10.7791 13.3868 10.9524 13.1263Z" fill="#302D3D"/>
<path d="M10.7236 27.5232C11.8327 28.9504 13.2609 30.0978 14.8936 30.8734C16.5262 31.6489 18.318 32.031 20.125 31.9889C21.932 31.9469 23.704 31.482 25.2989 30.6314C26.8937 29.7808 28.267 28.5682 29.3086 27.091L28.9758 26.0667C28.8076 25.5579 28.5073 25.1029 28.1055 24.7483C27.7038 24.3937 27.2151 24.1521 26.6894 24.0483L22.3673 23.1838H17.8032L13.4811 24.0483C12.9554 24.1521 12.4667 24.3937 12.065 24.7483C11.6632 25.1029 11.3629 25.5579 11.1947 26.0667L10.7236 27.5232Z" fill="#4E6492"/>
<path d="M11.8223 28.7593C12.9197 29.8183 14.2159 30.6497 15.6361 31.2054C17.0563 31.7611 18.5725 32.0303 20.0972 31.9973C21.622 31.9644 23.1251 31.63 24.52 31.0134C25.9149 30.3969 27.1739 29.5103 28.2246 28.4049L27.9394 27.4281C27.817 26.9399 27.5641 26.4941 27.2078 26.1385C26.8515 25.783 26.4051 25.531 25.9166 25.4097L22.0959 24.5453H18.072L14.247 25.4097C13.7584 25.531 13.3121 25.783 12.9558 26.1385C12.5995 26.4941 12.3466 26.9399 12.2242 27.4281L11.8223 28.7593Z" fill="#5D78A1"/>
<path d="M20.0812 25.7598L22.1601 26.7971L23.0245 24.4632C23.0683 24.328 23.0728 24.1831 23.0376 24.0455C23.0024 23.9078 22.9289 23.7829 22.8257 23.6852L22.3503 23.1925L20.0812 25.7598ZM20.0812 25.7598L18.0066 26.7971L17.1421 24.4632C17.0955 24.3313 17.0866 24.1891 17.1164 24.0524C17.1461 23.9157 17.2134 23.7901 17.3107 23.6895L17.7861 23.1968L20.0812 25.7598Z" fill="#809BC4"/>
<path d="M19.126 27.8388H21.0407L21.4858 26.4601L20.0855 25.7599L18.6808 26.4601L19.126 27.8388Z" fill="#E1346E"/>
<path d="M18.322 31.8971C19.4885 32.052 20.6716 32.0301 21.8315 31.8322L21.0449 27.8386H19.1216L18.322 31.8971Z" fill="#FF526E"/>
<path d="M17.8025 23.1924V19.9033H22.3623V23.1924L20.0846 25.7598L17.8025 23.1924Z" fill="#F8AD9D"/>
<path d="M22.3623 19.9033H17.8025V22.9504H22.3623V19.9033Z" fill="#F88A7F"/>
<path d="M13.0664 14.7256H27.1003C27.7328 14.7256 28.2456 15.2384 28.2456 15.8709V16.1778C28.2456 16.8104 27.7328 17.3232 27.1003 17.3232H13.0664C12.4339 17.3232 11.9211 16.8104 11.9211 16.1778V15.8709C11.9211 15.2384 12.4339 14.7256 13.0664 14.7256Z" fill="#F8AD9D"/>
<path d="M26.5161 5.32043C26.3407 5.8885 25.988 6.38549 25.5097 6.73859C25.0314 7.09169 24.4526 7.28236 23.858 7.28266H23.616C24.3852 7.28266 25.1228 7.58821 25.6667 8.13209C26.2106 8.67597 26.5161 9.41363 26.5161 10.1828V14.7253H13.6406V10.373C13.6429 9.03215 14.1771 7.74704 15.126 6.79976C16.0749 5.85248 17.361 5.32043 18.7018 5.32043H26.5161Z" fill="#3F3C6A"/>
<path d="M21.0112 6.69066H18.5303C18.2484 6.69101 17.978 6.80288 17.7783 7.00185L17.3461 7.43406C17.276 7.50285 17.2204 7.58491 17.1824 7.67545C17.1444 7.76598 17.1249 7.86317 17.1249 7.96135C17.1249 8.05953 17.1444 8.15672 17.1824 8.24726C17.2204 8.33779 17.276 8.41985 17.3461 8.48865L17.5146 8.66153C17.6571 8.79982 17.8477 8.87731 18.0462 8.87764H20.3067C20.5845 8.87995 20.8567 8.79879 21.0878 8.64467C21.319 8.49055 21.4986 8.27057 21.6033 8.01322L21.7114 7.74525C21.7633 7.62995 21.7852 7.50336 21.7749 7.37733C21.7646 7.25129 21.7225 7.12992 21.6525 7.02457C21.5826 6.91922 21.4871 6.83333 21.3749 6.77493C21.2628 6.71654 21.1376 6.68754 21.0112 6.69066Z" fill="#6273A1"/>
<path d="M14.4198 14.7254V16.5666C14.4198 17.3102 14.5662 18.0464 14.8508 18.7334C15.1353 19.4203 15.5524 20.0445 16.0781 20.5702C16.6039 21.096 17.228 21.513 17.915 21.7976C18.6019 22.0821 19.3382 22.2286 20.0817 22.2286C20.8253 22.2286 21.5615 22.0821 22.2484 21.7976C22.9354 21.513 23.5595 21.096 24.0853 20.5702C24.6111 20.0445 25.0281 19.4203 25.3127 18.7334C25.5972 18.0464 25.7437 17.3102 25.7437 16.5666V14.7254L24.6934 13.3985C24.4245 13.048 24.2732 12.6214 24.2612 12.1797L24.1963 10.52C24.1896 10.3366 24.112 10.1629 23.9798 10.0355C23.8476 9.90812 23.6711 9.83701 23.4875 9.83713C21.2619 10.1188 19.0096 10.1188 16.784 9.83713C16.6864 9.82508 16.5874 9.83346 16.4932 9.86174C16.399 9.89002 16.3118 9.93758 16.237 10.0014C16.1622 10.0652 16.1015 10.1439 16.0588 10.2324C16.016 10.321 15.9921 10.4174 15.9887 10.5157L15.9109 12.1711C15.8984 12.6153 15.7472 13.0445 15.4787 13.3985L14.4198 14.7254Z" fill="#FBC4AB"/>
<path d="M17.6735 15.3564C17.7881 15.3564 17.8981 15.3108 17.9791 15.2298C18.0602 15.1487 18.1057 15.0388 18.1057 14.9242V14.6519C18.1057 14.5372 18.0602 14.4273 17.9791 14.3462C17.8981 14.2652 17.7881 14.2197 17.6735 14.2197C17.5589 14.2197 17.4489 14.2652 17.3679 14.3462C17.2868 14.4273 17.2413 14.5372 17.2413 14.6519V14.9242C17.2413 15.0388 17.2868 15.1487 17.3679 15.2298C17.4489 15.3108 17.5589 15.3564 17.6735 15.3564ZM17.0598 13.8998H18.2872C18.4019 13.8998 18.5118 13.8543 18.5929 13.7732C18.6739 13.6922 18.7194 13.5822 18.7194 13.4676C18.7194 13.353 18.6739 13.243 18.5929 13.162C18.5118 13.0809 18.4019 13.0354 18.2872 13.0354H17.0598C16.9451 13.0354 16.8352 13.0809 16.7541 13.162C16.6731 13.243 16.6275 13.353 16.6275 13.4676C16.6275 13.5822 16.6731 13.6922 16.7541 13.7732C16.8352 13.8543 16.9451 13.8998 17.0598 13.8998ZM22.4926 15.3564C22.6073 15.3564 22.7172 15.3108 22.7982 15.2298C22.8793 15.1487 22.9248 15.0388 22.9248 14.9242V14.6519C22.9248 14.5372 22.8793 14.4273 22.7982 14.3462C22.7172 14.2652 22.6073 14.2197 22.4926 14.2197C22.378 14.2197 22.2681 14.2652 22.187 14.3462C22.106 14.4273 22.0604 14.5372 22.0604 14.6519V14.9242C22.0604 15.0388 22.106 15.1487 22.187 15.2298C22.2681 15.3108 22.378 15.3564 22.4926 15.3564ZM21.8789 13.8998H23.1064C23.221 13.8998 23.3309 13.8543 23.412 13.7732C23.493 13.6922 23.5386 13.5822 23.5386 13.4676C23.5386 13.353 23.493 13.243 23.412 13.162C23.3309 13.0809 23.221 13.0354 23.1064 13.0354H21.8789C21.7643 13.0354 21.6543 13.0809 21.5733 13.162C21.4922 13.243 21.4467 13.353 21.4467 13.4676C21.4467 13.5822 21.4922 13.6922 21.5733 13.7732C21.6543 13.8543 21.7643 13.8998 21.8789 13.8998ZM21.6585 19.3802C21.6897 19.3324 21.7112 19.2788 21.7215 19.2226C21.7319 19.1664 21.7311 19.1087 21.719 19.0528C21.707 18.9969 21.6839 18.944 21.6513 18.8971C21.6186 18.8501 21.577 18.8102 21.5288 18.7795C21.434 18.7165 21.3183 18.6934 21.2066 18.7153C21.0949 18.7371 20.9964 18.8021 20.9324 18.8962C20.8371 19.0379 20.7084 19.154 20.5576 19.2343C20.4069 19.3146 20.2387 19.3566 20.0679 19.3566C19.8971 19.3566 19.729 19.3146 19.5782 19.2343C19.4275 19.154 19.2988 19.0379 19.2035 18.8962C19.1322 18.8284 19.04 18.7869 18.9419 18.7787C18.8439 18.7704 18.746 18.7958 18.6644 18.8508C18.5828 18.9057 18.5223 18.9868 18.493 19.0807C18.4638 19.1746 18.4674 19.2757 18.5033 19.3673C18.677 19.6256 18.9112 19.8375 19.1856 19.9844C19.46 20.1313 19.7662 20.2088 20.0775 20.2101C20.3887 20.2114 20.6955 20.1364 20.9711 19.9917C21.2467 19.8471 21.4827 19.6371 21.6585 19.3802Z" fill="#302D3D"/>
</svg>
