<svg width="24" height="24" viewBox="0 0 24 24" fill="none" xmlns="http://www.w3.org/2000/svg">
<rect width="24" height="24" rx="12" fill="#5252E2"/>
<path d="M14.2666 14.9234H9.52003C9.32101 14.9234 9.15967 14.7621 9.15967 14.5631V12.7492C9.15967 11.5877 10.1046 10.6428 11.266 10.6428H12.5206C13.682 10.6428 14.6269 11.5877 14.6269 12.7492V14.5631C14.6269 14.7621 14.4656 14.9234 14.2666 14.9234ZM9.8804 14.2027H13.9062V12.7492C13.9062 11.9851 13.2846 11.3636 12.5206 11.3636H11.266C10.502 11.3636 9.8804 11.9851 9.8804 12.7492V14.2027Z" fill="white"/>
<path d="M10.7066 14.9229C10.5076 14.9229 10.3463 14.7616 10.3463 14.5626V13.3759C10.3463 13.1769 10.5076 13.0156 10.7066 13.0156C10.9056 13.0156 11.067 13.1769 11.067 13.3759V14.5626C11.067 14.7616 10.9056 14.9229 10.7066 14.9229ZM13.0799 14.9229C12.8808 14.9229 12.7195 14.7616 12.7195 14.5626V13.3759C12.7195 13.1769 12.8808 13.0156 13.0799 13.0156C13.2789 13.0156 13.4402 13.1769 13.4402 13.3759V14.5626C13.4402 14.7616 13.2789 14.9229 13.0799 14.9229ZM11.8933 11.363C11.0402 11.363 10.3463 10.6691 10.3463 9.81604C10.3463 8.96301 11.0402 8.26904 11.8933 8.26904C12.7463 8.26904 13.4402 8.96301 13.4402 9.81604C13.4402 10.6691 12.7463 11.363 11.8933 11.363ZM11.8933 8.98977C11.4376 8.98977 11.067 9.36044 11.067 9.81604C11.067 10.2716 11.4376 10.6423 11.8933 10.6423C12.3489 10.6423 12.7195 10.2716 12.7195 9.81604C12.7195 9.36044 12.3489 8.98977 11.8933 8.98977Z" fill="white"/>
<path d="M11.8931 17C11.2039 17 10.535 16.8649 9.90519 16.5985C9.29703 16.3413 8.75092 15.9731 8.28202 15.5042C7.81313 15.0354 7.44496 14.4892 7.18773 13.8811C6.92133 13.2512 6.78625 12.5824 6.78625 11.8931C6.78625 11.2039 6.92133 10.535 7.18773 9.90519C7.44496 9.29703 7.81313 8.75092 8.28202 8.28202C8.75092 7.81313 9.29703 7.44496 9.90519 7.18773C10.535 6.92133 11.2039 6.78625 11.8931 6.78625C12.5824 6.78625 13.2512 6.92133 13.8811 7.18773C14.4892 7.44496 15.0354 7.81314 15.5042 8.28202C15.9731 8.75092 16.3413 9.29703 16.5986 9.90519C16.8649 10.535 17 11.2039 17 11.8931C17 12.5824 16.8649 13.2512 16.5986 13.8811C16.3413 14.4892 15.9731 15.0354 15.5042 15.5042C15.0354 15.9731 14.4892 16.3413 13.8811 16.5985C13.2512 16.8649 12.5824 17 11.8931 17ZM11.8931 7.50698C9.4746 7.50698 7.50698 9.4746 7.50698 11.8931C7.50698 14.3117 9.4746 16.2793 11.8931 16.2793C14.3117 16.2793 16.2793 14.3117 16.2793 11.8931C16.2793 9.4746 14.3117 7.50698 11.8931 7.50698Z" fill="white"/>
</svg>
