<svg width="10" height="11" viewBox="0 0 10 11" fill="none" xmlns="http://www.w3.org/2000/svg">
<path d="M0.8375 9.87487L0.8375 9.87498C0.8375 9.98438 0.880959 10.0893 0.958318 10.1667C1.03568 10.244 1.1406 10.2875 1.25 10.2875C1.3594 10.2875 1.46432 10.244 1.54168 10.1667C1.61903 10.0893 1.66248 9.98442 1.6625 9.87504M0.8375 9.87487L1.5625 9.87498M0.8375 9.87487C0.8396 7.97843 1.59486 6.16048 2.93719 4.82083C4.2233 3.53727 5.94744 2.79352 7.75763 2.73497M0.8375 9.87487L7.75763 2.73497M1.6625 9.87504C1.6625 9.87502 1.6625 9.875 1.6625 9.87498L1.5625 9.87498M1.6625 9.87504C1.6625 9.87506 1.6625 9.87508 1.6625 9.8751L1.5625 9.87498M1.6625 9.87504C1.66455 8.19742 2.33284 6.5893 3.5204 5.40434C4.64983 4.27738 6.16099 3.62093 7.74936 3.56076M1.5625 9.87498C1.56457 8.17082 2.24343 6.53726 3.44977 5.33355C4.62236 4.16352 6.2 3.49277 7.85244 3.45768L7.74936 3.56076M7.74936 3.56076L6.43866 4.87145C6.40034 4.90977 6.36995 4.95527 6.34921 5.00534C6.32847 5.0554 6.31779 5.10907 6.31779 5.16326C6.31779 5.21745 6.32847 5.27111 6.34921 5.32118C6.36995 5.37125 6.40034 5.41674 6.43866 5.45506C6.47698 5.49338 6.52248 5.52378 6.57255 5.54452C6.62261 5.56526 6.67628 5.57593 6.73047 5.57593C6.78466 5.57593 6.83832 5.56526 6.88839 5.54452C6.93846 5.52378 6.98395 5.49338 7.02227 5.45506L9.04098 3.43635M7.74936 3.56076C7.79771 3.55893 7.84613 3.55765 7.89461 3.55693L6.50937 4.94217C6.48034 4.9712 6.45731 5.00567 6.4416 5.0436C6.42588 5.08154 6.41779 5.1222 6.41779 5.16326C6.41779 5.20432 6.42588 5.24498 6.4416 5.28291C6.45731 5.32085 6.48034 5.35532 6.50937 5.38435C6.53841 5.41339 6.57288 5.43642 6.61081 5.45213C6.64875 5.46785 6.68941 5.47593 6.73047 5.47593C6.77153 5.47593 6.81219 5.46785 6.85012 5.45213C6.88806 5.43642 6.92253 5.41339 6.95156 5.38435L8.97031 3.3656M9.04098 3.43635C9.041 3.43634 9.04101 3.43633 9.04102 3.43631L8.97031 3.3656M9.04098 3.43635L8.97031 3.3656M9.04098 3.43635L8.97031 3.3656M7.75763 2.73497L6.43866 1.416L6.43857 1.41609L6.43515 1.41231C6.36419 1.33371 6.32617 1.23084 6.32896 1.12499C6.33175 1.01914 6.37514 0.91841 6.45015 0.843667C6.52516 0.768924 6.62604 0.725889 6.7319 0.723472C6.83776 0.721055 6.9405 0.759441 7.01884 0.830681L7.01892 0.830598L7.02227 0.833955L9.04098 2.85266L9.04102 2.8527L8.97031 2.92342C8.99937 2.95244 9.02242 2.9869 9.03814 3.02484L7.75763 2.73497Z" fill="#5252E2" stroke="#5252E2" stroke-width="0.2"/>
</svg>
