<svg width="40" height="40" viewBox="0 0 40 40" fill="none" xmlns="http://www.w3.org/2000/svg">
<path d="M22.3555 17.6324C22.3372 17.0178 22.0802 16.4346 21.639 16.0064C21.1978 15.5781 20.6071 15.3386 19.9922 15.3386C19.3773 15.3386 18.7866 15.5781 18.3454 16.0064C17.9041 16.4346 17.6471 17.0178 17.6289 17.6324C22.5807 17.6366 22.3555 17.6407 22.3555 17.6324ZM17.6289 23.5382C17.6471 24.1527 17.9041 24.736 18.3454 25.1642C18.7866 25.5924 19.3773 25.8319 19.9922 25.8319C20.6071 25.8319 21.1978 25.5924 21.639 25.1642C22.0802 24.736 22.3372 24.1527 22.3555 23.5382V19.9943H17.6289V23.5382ZM18.8173 36.4629V38.8623C18.8301 39.1653 18.9595 39.4516 19.1784 39.6615C19.3973 39.8714 19.6889 39.9886 19.9922 39.9886C20.2955 39.9886 20.5871 39.8714 20.806 39.6615C21.0249 39.4516 21.1543 39.1653 21.1671 38.8623V36.4546C20.3848 36.51 19.5996 36.51 18.8173 36.4546V36.4629ZM21.1671 3.52565V1.12624C21.1543 0.823252 21.0249 0.536917 20.806 0.327046C20.5871 0.117174 20.2955 0 19.9922 0C19.6889 0 19.3973 0.117174 19.1784 0.327046C18.9595 0.536917 18.8301 0.823252 18.8173 1.12624V3.52565C19.5996 3.47026 20.3848 3.47026 21.1671 3.52565ZM3.52621 18.8144H1.12641C0.823381 18.8271 0.537001 18.9565 0.327097 19.1754C0.117192 19.3943 0 19.6858 0 19.9891C0 20.2923 0.117192 20.5839 0.327097 20.8028C0.537001 21.0217 0.823381 21.151 1.12641 21.1638H3.52621C3.47086 20.3816 3.47086 19.5965 3.52621 18.8144ZM38.8601 18.8144H36.4603C36.5156 19.5965 36.5156 20.3816 36.4603 21.1638H38.8601C39.1631 21.151 39.4495 21.0217 39.6594 20.8028C39.8693 20.5839 39.9865 20.2923 39.9865 19.9891C39.9865 19.6858 39.8693 19.3943 39.6594 19.1754C39.4495 18.9565 39.1631 18.8271 38.8601 18.8144Z" fill="#B70002"/>
</svg>
