<svg width="33" height="33" viewBox="0 0 33 33" fill="none" xmlns="http://www.w3.org/2000/svg">
<path d="M29.4438 16.4665C29.4438 16.1547 29.5677 15.8557 29.7882 15.6352C30.0088 15.4147 30.3079 15.2908 30.6197 15.2908H32.9361C32.6537 11.3288 30.9518 7.60146 28.1426 4.79277C25.3335 1.98408 21.6056 0.282411 17.6429 0V2.31603C17.6496 2.47446 17.6242 2.6326 17.5681 2.78094C17.5121 2.92928 17.4266 3.06476 17.3169 3.17922C17.2071 3.29368 17.0754 3.38475 16.9295 3.44697C16.7836 3.50919 16.6267 3.54127 16.4681 3.54127C16.3095 3.54127 16.1525 3.50919 16.0067 3.44697C15.8608 3.38475 15.729 3.29368 15.6192 3.17922C15.5095 3.06476 15.424 2.92928 15.368 2.78094C15.312 2.6326 15.2865 2.47446 15.2932 2.31603V0.00209144C11.3305 0.284503 7.60264 1.98616 4.79351 4.79485C1.98438 7.60354 0.282455 11.3309 0 15.2929H2.31639C2.47484 15.2862 2.63301 15.3117 2.78137 15.3677C2.92973 15.4237 3.06523 15.5092 3.17971 15.6189C3.29418 15.7286 3.38527 15.8604 3.4475 16.0062C3.50973 16.1521 3.54181 16.309 3.54181 16.4676C3.54181 16.6262 3.50973 16.7831 3.4475 16.9289C3.38527 17.0748 3.29418 17.2065 3.17971 17.3163C3.06523 17.426 2.92973 17.5115 2.78137 17.5675C2.63301 17.6235 2.47484 17.649 2.31639 17.6423H0C0.282455 21.6043 1.98438 25.3316 4.79351 28.1403C7.60264 30.949 11.3305 32.6507 15.2932 32.9331V30.615C15.306 30.312 15.4353 30.0256 15.6543 29.8158C15.8732 29.6059 16.1648 29.4887 16.4681 29.4887C16.7714 29.4887 17.0629 29.6059 17.2819 29.8158C17.5008 30.0256 17.6302 30.312 17.6429 30.615V32.931C21.6053 32.6486 25.3329 30.9473 28.142 28.139C30.9511 25.3308 32.6532 21.6039 32.9361 17.6423H30.6177C30.3062 17.6417 30.0076 17.5176 29.7875 17.2972C29.5674 17.0767 29.4438 16.778 29.4438 16.4665ZM24.7235 23.5376C24.5066 23.5361 24.2943 23.4745 24.1103 23.3597C23.9263 23.2449 23.7777 23.0814 23.681 22.8872L22.8262 21.1778H21.0394C20.7778 22.1892 20.1876 23.085 19.3615 23.7246C18.5354 24.3642 17.5202 24.7112 16.4754 24.7112C15.4306 24.7112 14.4154 24.3642 13.5893 23.7246C12.7631 23.085 12.1729 22.1892 11.9114 21.1778H10.1121L9.25723 22.8872C9.19587 23.0365 9.10444 23.1715 8.98862 23.2839C8.87281 23.3963 8.73509 23.4837 8.58404 23.5406C8.433 23.5975 8.27186 23.6226 8.11065 23.6146C7.94945 23.6065 7.79164 23.5653 7.64704 23.4936C7.50245 23.4219 7.37416 23.3212 7.27018 23.1977C7.1662 23.0743 7.08875 22.9308 7.04265 22.7761C6.99655 22.6215 6.98278 22.459 7.00221 22.2988C7.02164 22.1386 7.07385 21.9841 7.15559 21.8449L8.33567 19.4872C8.43256 19.2932 8.58121 19.1298 8.76519 19.015C8.94916 18.9002 9.1613 18.8385 9.37815 18.8368H11.7404V16.4624H9.39275C9.1759 16.4606 8.96376 16.3989 8.77978 16.2842C8.5958 16.1694 8.44715 16.006 8.35027 15.812L7.16184 13.448C7.0801 13.3088 7.02789 13.1543 7.00846 12.9941C6.98903 12.8339 7.00281 12.6714 7.04891 12.5168C7.09501 12.3621 7.17246 12.2186 7.27644 12.0952C7.38042 11.9717 7.5087 11.871 7.65329 11.7993C7.79789 11.7276 7.9557 11.6864 8.1169 11.6783C8.27811 11.6703 8.43925 11.6954 8.5903 11.7523C8.74134 11.8092 8.87907 11.8966 8.99488 12.009C9.1107 12.1214 9.20213 12.2564 9.26348 12.4057L10.1183 14.1151H11.755C11.755 12.877 12.2435 11.6889 13.1144 10.8088L11.9239 8.82427C11.838 8.6915 11.7798 8.5428 11.7526 8.38704C11.7254 8.23127 11.7299 8.07164 11.7657 7.91764C11.8016 7.76364 11.8681 7.61843 11.9612 7.49068C12.0544 7.36292 12.1724 7.25523 12.308 7.17402C12.4437 7.09282 12.5944 7.03976 12.751 7.01801C12.9077 6.99626 13.0671 7.00627 13.2198 7.04744C13.3725 7.08861 13.5153 7.16009 13.6398 7.25763C13.7642 7.35517 13.8678 7.47677 13.9442 7.61518L15.1347 9.59767C16.0096 9.3377 16.9412 9.3377 17.816 9.59767L19.0065 7.61518C19.1723 7.35882 19.4312 7.17686 19.7286 7.10765C20.026 7.03845 20.3387 7.0874 20.6007 7.2442C20.8627 7.40099 21.0535 7.65338 21.133 7.94814C21.2125 8.24291 21.1745 8.55703 21.0268 8.82427L19.8196 10.8047C20.6909 11.6845 21.1795 12.8728 21.179 14.1109C21.179 14.1109 21.0539 14.1109 22.8157 14.1109L23.6643 12.4057C23.7257 12.2564 23.8171 12.1214 23.9329 12.009C24.0487 11.8966 24.1865 11.8092 24.3375 11.7523C24.4885 11.6954 24.6497 11.6703 24.8109 11.6783C24.9721 11.6864 25.1299 11.7276 25.2745 11.7993C25.4191 11.871 25.5474 11.9717 25.6514 12.0952C25.7553 12.2186 25.8328 12.3621 25.8789 12.5168C25.925 12.6714 25.9388 12.8339 25.9193 12.9941C25.8999 13.1543 25.8477 13.3088 25.766 13.448L24.5859 15.8057C24.489 15.9997 24.3403 16.1631 24.1564 16.2779C23.9724 16.3927 23.7602 16.4544 23.5434 16.4561H21.177V18.8222H23.5496C23.7665 18.8239 23.9786 18.8856 24.1626 19.0004C24.3466 19.1152 24.4952 19.2786 24.5921 19.4726L25.7639 21.8366C25.8526 22.015 25.8945 22.2131 25.8856 22.4122C25.8767 22.6113 25.8174 22.8048 25.7132 22.9747C25.6089 23.1446 25.4633 23.2851 25.2898 23.3832C25.1163 23.4814 24.9207 23.5338 24.7214 23.5355L24.7235 23.5376Z" fill="#B70002"/>
</svg>
