<svg width="32" height="32" viewBox="0 0 32 32" fill="none" xmlns="http://www.w3.org/2000/svg">
<path d="M27.3137 5.7196L25 7.03335L23.071 9.96229C24.8807 11.7719 26 14.2719 26 17.0334C26 19.3848 25.1884 21.5467 23.83 23.2542C23.4233 23.7654 23.4675 24.5009 23.9294 24.9628L26.3631 27.3965C26.8974 27.9308 27.7749 27.8925 28.2607 27.3138C30.5945 24.5334 32 20.9475 32 17.0334C32 12.615 30.2091 8.61504 27.3137 5.7196Z" fill="#E94444"/>
<path d="M6 17.0334C6 14.2719 7.11931 11.7719 8.92894 9.96229L7 7.03335L4.68631 5.7196C1.79088 8.61504 0 12.615 0 17.0334C0 20.9475 1.4055 24.5334 3.73931 27.3138C4.22506 27.8925 5.10262 27.9308 5.63688 27.3965L8.07056 24.9628C8.53244 24.5009 8.57662 23.7654 8.17 23.2542C6.81163 21.5467 6 19.3848 6 17.0334Z" fill="#80D261"/>
<path d="M16 7.03333C18.7614 7.03333 21.2614 8.15264 23.071 9.96226L27.3137 5.71964C24.4182 2.82414 20.4182 1.03333 16 1.03333C11.5817 1.03333 7.58172 2.8242 4.68628 5.71957L8.9289 9.9622C10.7385 8.15258 13.2385 7.03333 16 7.03333Z" fill="#FFC344"/>
<path d="M27.3137 5.7196L26.3259 6.28048C28.2738 8.93117 29.4245 12.204 29.4245 15.7456C29.4245 18.6609 28.6448 21.394 27.2827 23.748C26.6477 24.8453 25.5053 25.417 24.3606 25.3939L26.3631 27.3964C26.8974 27.9307 27.7749 27.8925 28.2607 27.3137C30.5945 24.5333 32 20.9475 32 17.0334C32 12.615 30.2092 8.61504 27.3137 5.7196Z" fill="#D83131"/>
<path d="M26.505 6.5286L27.314 5.71954C25.7666 4.1721 23.9037 2.94023 21.8301 2.12854C23.6682 3.26621 25.2581 4.7627 26.505 6.5286Z" fill="#FEB237"/>
<path d="M20.429 30.1805L16.4539 23.2954C16.2522 22.946 15.7479 22.946 15.5462 23.2954L11.571 30.1805C11.3693 30.5299 11.6214 30.9666 12.0248 30.9666H19.9751C20.3786 30.9666 20.6308 30.5299 20.429 30.1805Z" fill="#FFC344"/>
<path d="M19.1615 18.1666L17.6125 19.1893L16.3184 14.3597L18.1712 14.4709C19.0347 14.5227 19.9009 14.435 20.7365 14.2111L26.7194 12.608C27.5195 12.3936 28.342 12.8684 28.5565 13.6687C28.7709 14.4689 28.296 15.2914 27.4958 15.5058L21.5129 17.1089C20.6774 17.3328 19.8834 17.6899 19.1615 18.1666Z" fill="#004281"/>
<path d="M16 20.0333C17.6569 20.0333 19 18.6902 19 17.0333C19 15.3765 17.6569 14.0333 16 14.0333C14.3431 14.0333 13 15.3765 13 17.0333C13 18.6902 14.3431 20.0333 16 20.0333Z" fill="#0067C5"/>
<path d="M16 27.502C15.8757 27.502 15.7565 27.4526 15.6685 27.3647C15.5806 27.2768 15.5312 27.1575 15.5312 27.0332V26.0332C15.5312 25.7743 15.7411 25.5645 16 25.5645C16.2589 25.5645 16.4688 25.7743 16.4688 26.0332V27.0332C16.4688 27.1575 16.4194 27.2768 16.3315 27.3647C16.2435 27.4526 16.1243 27.502 16 27.502Z" fill="#0055A3"/>
<path d="M16 29.5021C16.2589 29.5021 16.4688 29.2922 16.4688 29.0333C16.4688 28.7744 16.2589 28.5646 16 28.5646C15.7411 28.5646 15.5312 28.7744 15.5312 29.0333C15.5312 29.2922 15.7411 29.5021 16 29.5021Z" fill="#0055A3"/>
</svg>
