<svg width="16" height="17" viewBox="0 0 16 17" fill="none" xmlns="http://www.w3.org/2000/svg">
<g clip-path="url(#clip0_233_4550)">
<path d="M14.0467 6.38002C13.9266 6.2904 13.8328 6.17002 13.7753 6.03158C13.7178 5.89313 13.6987 5.74173 13.7201 5.59335C14.0001 3.83335 13.6801 3.29335 13.4401 3.05335C13.2001 2.81335 12.6667 2.50002 10.9067 2.78002C10.7584 2.79994 10.6075 2.7802 10.4693 2.72282C10.3311 2.66543 10.2106 2.57246 10.1201 2.45335C8.96006 0.906685 8.3534 0.726685 8.00006 0.726685C7.64673 0.726685 7.04006 0.906685 5.88006 2.45335C5.7895 2.57246 5.66899 2.66543 5.5308 2.72282C5.39262 2.7802 5.24169 2.79994 5.0934 2.78002C3.3334 2.50002 2.80007 2.82002 2.56007 3.05335C2.32007 3.28668 2.00007 3.83335 2.28007 5.59335C2.30141 5.74173 2.28233 5.89313 2.22484 6.03158C2.16735 6.17002 2.07357 6.2904 1.9534 6.38002C0.406732 7.54002 0.233398 8.14668 0.233398 8.50002C0.233398 8.85335 0.406732 9.46002 1.9534 10.62C2.07357 10.7096 2.16735 10.83 2.22484 10.9685C2.28233 11.1069 2.30141 11.2583 2.28007 11.4067C2.02673 13.18 2.32007 13.7067 2.56007 13.9467C2.80007 14.1867 3.32007 14.4734 5.0934 14.22C5.24178 14.1987 5.39318 14.2178 5.53162 14.2752C5.67007 14.3327 5.79045 14.4265 5.88006 14.5467C7.04006 16.0934 7.64673 16.2734 8.00006 16.2734C8.3534 16.2734 8.96006 16.0934 10.1201 14.5467C10.2097 14.4265 10.3301 14.3327 10.4685 14.2752C10.607 14.2178 10.7583 14.1987 10.9067 14.22C12.6867 14.4734 13.2001 14.18 13.4401 13.9467C13.6801 13.7134 13.9734 13.18 13.7201 11.4067C13.6987 11.2583 13.7178 11.1069 13.7753 10.9685C13.8328 10.83 13.9266 10.7096 14.0467 10.62C15.5934 9.46002 15.7667 8.85335 15.7667 8.50002C15.7667 8.14668 15.5934 7.54002 14.0467 6.38002Z" fill="#38E894"/>
<path d="M7.66679 10.8333C7.57905 10.8338 7.49208 10.817 7.41085 10.7838C7.32963 10.7507 7.25575 10.7018 7.19346 10.64L5.86012 9.30667C5.73459 9.18113 5.66406 9.01087 5.66406 8.83333C5.66406 8.6558 5.73459 8.48554 5.86012 8.36C5.98566 8.23446 6.15592 8.16394 6.33346 8.16394C6.51099 8.16394 6.68125 8.23446 6.80679 8.36L7.66679 9.22667L9.86012 7.02667C9.9221 6.96418 9.99583 6.91459 10.0771 6.88074C10.1583 6.84689 10.2454 6.82947 10.3335 6.82947C10.4215 6.82947 10.5086 6.84689 10.5898 6.88074C10.6711 6.91459 10.7448 6.96418 10.8068 7.02667C10.8693 7.08864 10.9189 7.16238 10.9527 7.24362C10.9866 7.32485 11.004 7.41199 11.004 7.5C11.004 7.58801 10.9866 7.67515 10.9527 7.75638C10.9189 7.83762 10.8693 7.91136 10.8068 7.97333L8.14012 10.64C8.07783 10.7018 8.00395 10.7507 7.92273 10.7838C7.8415 10.817 7.75453 10.8338 7.66679 10.8333Z" fill="white"/>
</g>
<defs>
<clipPath id="clip0_233_4550">
<rect width="16" height="16" fill="white" transform="translate(0 0.5)"/>
</clipPath>
</defs>
</svg>
