<svg width="32" height="32" viewBox="0 0 32 32" fill="none" xmlns="http://www.w3.org/2000/svg">
<g clip-path="url(#clip0_233_4111)">
<path d="M20.7967 15.0015H21.7952V16H20.7967V15.0015ZM15.4956 23.7007H16.4941V24.6992H15.4956V23.7007ZM10.1997 15.0015H11.1982V16H10.1997V15.0015Z" fill="#193651"/>
<path d="M15.9974 12.7482C18.099 12.7482 19.9444 11.6974 21.0475 10.0506C19.9496 8.45084 18.0989 7.40002 15.9974 7.40002C13.8958 7.40002 12.0503 8.45084 10.9473 10.0506C12.0503 11.7027 13.8958 12.7482 15.9974 12.7482Z" fill="#FDBF5E"/>
<path d="M15.9974 6.34922C17.0455 6.34922 17.8951 5.49957 17.8951 4.45147C17.8951 3.40337 17.0455 2.55371 15.9974 2.55371C14.9493 2.55371 14.0996 3.40337 14.0996 4.45147C14.0996 5.49957 14.9493 6.34922 15.9974 6.34922Z" fill="#FDBF5E"/>
<path d="M6.64973 31.4955C8.75135 31.4955 10.5968 30.4447 11.6998 28.7979C10.602 27.1982 8.75127 26.1473 6.64973 26.1473C4.54818 26.1473 2.70266 27.1982 1.59961 28.7979C2.65042 30.4499 4.50111 31.4955 6.64973 31.4955Z" fill="#F16051"/>
<path d="M6.64971 25.0965C7.69781 25.0965 8.54747 24.2469 8.54747 23.1988C8.54747 22.1507 7.69781 21.301 6.64971 21.301C5.60161 21.301 4.75195 22.1507 4.75195 23.1988C4.75195 24.2469 5.60161 25.0965 6.64971 25.0965Z" fill="#F16051"/>
<path d="M25.345 31.4955C27.4467 31.4955 29.2921 30.4447 30.3952 28.7979C29.2973 27.1982 27.4466 26.1473 25.345 26.1473C23.2434 26.1473 21.398 27.1982 20.2949 28.7979C21.398 30.4499 23.2487 31.4955 25.345 31.4955Z" fill="#2EA2DB"/>
<path d="M25.345 25.0965C26.3931 25.0965 27.2428 24.2469 27.2428 23.1988C27.2428 22.1507 26.3931 21.301 25.345 21.301C24.2969 21.301 23.4473 22.1507 23.4473 23.1988C23.4473 24.2469 24.2969 25.0965 25.345 25.0965Z" fill="#2EA2DB"/>
<path d="M25.3449 18.7499C23.5935 18.7499 22.0461 19.4505 20.8436 20.5013L16.4941 18.0023V13.2553C19.8922 13.0044 22.6421 10.1552 22.6421 6.65769C22.6473 2.95113 19.6465 0.00256348 15.9974 0.00256348C12.3482 0.00256348 9.3475 2.95113 9.3475 6.65243C9.3475 10.1499 12.0451 12.9991 15.4955 13.2501V17.997L11.1459 20.4959C9.94868 19.3981 8.396 18.7446 6.64461 18.7446C2.94857 18.7499 0 21.6984 0 25.3474C0 29.0488 2.94857 31.9973 6.64987 31.9973C10.2989 31.9973 13.2997 29.0487 13.2997 25.3474C13.2997 23.8 12.7508 22.3989 11.8516 21.2487L16.0496 18.8491L20.2476 21.2487C19.3484 22.3989 18.7995 23.7999 18.7995 25.3474C18.7995 28.9965 21.7481 31.9973 25.4494 31.9973C29.0513 31.9973 31.9999 29.0487 31.9999 25.3474C31.9947 21.6984 29.0463 18.7499 25.3449 18.7499ZM6.64987 30.9988C3.50269 30.9988 0.998491 28.4999 0.998491 25.3474C0.998491 22.2473 3.49743 19.6961 6.64987 19.6961C9.74999 19.6961 12.3012 22.195 12.3012 25.3474C12.249 28.4999 9.75007 30.9988 6.64987 30.9988ZM10.346 6.65251C10.346 3.50533 12.8972 1.00114 15.9974 1.00114C19.0976 1.00114 21.6487 3.50007 21.6487 6.65251C21.6487 9.75263 19.1498 12.3039 15.9974 12.3039C12.8973 12.2516 10.346 9.75263 10.346 6.65251ZM25.3449 30.9988C22.2448 30.9988 19.6935 28.4999 19.6935 25.3474C19.6935 22.2473 22.1924 19.6961 25.3449 19.6961C28.445 19.6961 30.9963 22.195 30.9963 25.3474C30.9963 28.4999 28.4973 30.9988 25.3449 30.9988Z" fill="#193651"/>
</g>
<defs>
<clipPath id="clip0_233_4111">
<rect width="32" height="32" fill="white"/>
</clipPath>
</defs>
</svg>
