<svg width="40" height="40" viewBox="0 0 40 40" fill="none" xmlns="http://www.w3.org/2000/svg">
<g clip-path="url(#clip0_257_2130)">
<path d="M16.6667 15H23.3334V35H16.6667V15Z" fill="#00B4DE"/>
<path d="M25 10H31.6667V35H25V10Z" fill="#44C5E4"/>
<path d="M33.3334 5H40V35H33.3334V5Z" fill="#95D8E8"/>
<path d="M8.33331 20H15V35H8.33331V20Z" fill="#00A3D8"/>
<path d="M0 25H6.66667V35H0V25Z" fill="#008CC1"/>
<path d="M16.6667 35H23.3333V15H16.6667V35ZM25 35H31.6667V10H25V35ZM33.3333 5V35H40V5H33.3333ZM8.33333 35H15V20H8.33333V35ZM0 35H6.66667V25H0V35Z" fill="url(#paint0_linear_257_2130)"/>
</g>
<defs>
<linearGradient id="paint0_linear_257_2130" x1="5.48667" y1="13.2333" x2="42.1733" y2="30.34" gradientUnits="userSpaceOnUse">
<stop stop-color="white" stop-opacity="0.2"/>
<stop offset="1" stop-color="white" stop-opacity="0"/>
</linearGradient>
<clipPath id="clip0_257_2130">
<rect width="40" height="40" fill="white"/>
</clipPath>
</defs>
</svg>
