<svg width="16" height="16" viewBox="0 0 16 16" fill="none" xmlns="http://www.w3.org/2000/svg">
<g clip-path="url(#clip0_233_4557)">
<path d="M13.667 9.33317H11.667C11.5786 9.33317 11.4938 9.29805 11.4313 9.23554C11.3688 9.17303 11.3337 9.08824 11.3337 8.99984C11.3337 8.91143 11.3688 8.82665 11.4313 8.76413C11.4938 8.70162 11.5786 8.6665 11.667 8.6665H13.667C13.9321 8.66624 14.1863 8.5608 14.3738 8.37332C14.5613 8.18584 14.6667 7.93164 14.667 7.6665V3.33317H1.33366V7.6665C1.33392 7.93164 1.43937 8.18584 1.62684 8.37332C1.81432 8.5608 2.06852 8.66624 2.33366 8.6665H4.33366C4.42206 8.6665 4.50685 8.70162 4.56936 8.76413C4.63187 8.82665 4.66699 8.91143 4.66699 8.99984C4.66699 9.08824 4.63187 9.17303 4.56936 9.23554C4.50685 9.29805 4.42206 9.33317 4.33366 9.33317H2.33366C1.89179 9.33264 1.46818 9.15688 1.15573 8.84443C0.843286 8.53199 0.667521 8.10837 0.666992 7.6665V2.99984C0.666992 2.91143 0.702111 2.82665 0.764623 2.76414C0.827135 2.70162 0.91192 2.6665 1.00033 2.6665H15.0003C15.0887 2.6665 15.1735 2.70162 15.236 2.76414C15.2985 2.82665 15.3337 2.91143 15.3337 2.99984V7.6665C15.3331 8.10837 15.1574 8.53199 14.8449 8.84443C14.5325 9.15688 14.1089 9.33264 13.667 9.33317Z" fill="#9596AA"/>
<path d="M10.334 9.33317H5.66732C5.57891 9.33317 5.49413 9.29805 5.43162 9.23554C5.3691 9.17303 5.33398 9.08824 5.33398 8.99984C5.33398 8.91143 5.3691 8.82665 5.43162 8.76414C5.49413 8.70162 5.57891 8.6665 5.66732 8.6665H10.334C10.4224 8.6665 10.5072 8.70162 10.5697 8.76414C10.6322 8.82665 10.6673 8.91143 10.6673 8.99984C10.6673 9.08824 10.6322 9.17303 10.5697 9.23554C10.5072 9.29805 10.4224 9.33317 10.334 9.33317ZM10.334 3.33317H5.66732C5.57891 3.33317 5.49413 3.29805 5.43162 3.23554C5.3691 3.17303 5.33398 3.08824 5.33398 2.99984V0.999837C5.33398 0.911432 5.3691 0.826647 5.43162 0.764135C5.49413 0.701623 5.57891 0.666504 5.66732 0.666504H10.334C10.4224 0.666504 10.5072 0.701623 10.5697 0.764135C10.6322 0.826647 10.6673 0.911432 10.6673 0.999837V2.99984C10.6673 3.08824 10.6322 3.17303 10.5697 3.23554C10.5072 3.29805 10.4224 3.33317 10.334 3.33317ZM6.00065 2.6665H10.0007V1.33317H6.00065V2.6665Z" fill="#9596AA"/>
<path d="M13.6673 15.333H2.33398C2.06885 15.3327 1.81465 15.2273 1.62717 15.0398C1.43969 14.8523 1.33425 14.5981 1.33398 14.333V8.81966C1.33398 8.73126 1.3691 8.64647 1.43162 8.58396C1.49413 8.52145 1.57891 8.48633 1.66732 8.48633C1.75572 8.48633 1.84051 8.52145 1.90302 8.58396C1.96553 8.64647 2.00065 8.73126 2.00065 8.81966V14.333C2.00074 14.4214 2.03589 14.5061 2.09838 14.5686C2.16087 14.6311 2.24561 14.6662 2.33398 14.6663H13.6673C13.7557 14.6662 13.8404 14.6311 13.9029 14.5686C13.9654 14.5061 14.0006 14.4214 14.0007 14.333V8.81966C14.0007 8.73126 14.0358 8.64647 14.0983 8.58396C14.1608 8.52145 14.2456 8.48633 14.334 8.48633C14.4224 8.48633 14.5072 8.52145 14.5697 8.58396C14.6322 8.64647 14.6673 8.73126 14.6673 8.81966V14.333C14.6671 14.5981 14.5616 14.8523 14.3741 15.0398C14.1867 15.2273 13.9325 15.3327 13.6673 15.333Z" fill="#9596AA"/>
<path d="M5.66667 10.6663H4.33333C4.24493 10.6663 4.16014 10.6312 4.09763 10.5687C4.03512 10.5062 4 10.4214 4 10.333V7.66634C4 7.57794 4.03512 7.49315 4.09763 7.43064C4.16014 7.36813 4.24493 7.33301 4.33333 7.33301H5.66667C5.75507 7.33301 5.83986 7.36813 5.90237 7.43064C5.96488 7.49315 6 7.57794 6 7.66634V10.333C6 10.4214 5.96488 10.5062 5.90237 10.5687C5.83986 10.6312 5.75507 10.6663 5.66667 10.6663ZM4.66667 9.99967H5.33333V7.99967H4.66667V9.99967ZM11.6667 10.6663H10.3333C10.2449 10.6663 10.1601 10.6312 10.0976 10.5687C10.0351 10.5062 10 10.4214 10 10.333V7.66634C10 7.57794 10.0351 7.49315 10.0976 7.43064C10.1601 7.36813 10.2449 7.33301 10.3333 7.33301H11.6667C11.7551 7.33301 11.8399 7.36813 11.9024 7.43064C11.9649 7.49315 12 7.57794 12 7.66634V10.333C12 10.4214 11.9649 10.5062 11.9024 10.5687C11.8399 10.6312 11.7551 10.6663 11.6667 10.6663ZM10.6667 9.99967H11.3333V7.99967H10.6667V9.99967Z" fill="#9596AA"/>
</g>
<defs>
<clipPath id="clip0_233_4557">
<rect width="16" height="16" fill="white"/>
</clipPath>
</defs>
</svg>
