<svg width="40" height="40" viewBox="0 0 40 40" fill="none" xmlns="http://www.w3.org/2000/svg">
<path d="M9.94531 36.5391C10.2031 36.5391 10.4141 36.75 10.4141 37.0078C10.4141 37.2656 10.2031 37.4766 9.94531 37.4766C5.07813 37.4766 1.17188 33.5156 1.17188 28.7109C1.17188 27.2031 1.5625 25.6953 2.35156 24.3281C2.47656 24.1016 2.76562 24.0313 2.99219 24.1563C3.21094 24.2813 3.28906 24.5703 3.16406 24.7891C2.46094 26.0156 2.10938 27.3594 2.10938 28.7109C2.10938 33 5.57813 36.5391 9.94531 36.5391ZM36.8359 24.7891C36.7109 24.5625 36.7813 24.2813 37.0078 24.1563C37.2266 24.0313 37.5156 24.1016 37.6406 24.3281C39.2187 27.0625 39.2187 30.3594 37.6406 33.0938C36.0703 35.8203 33.1953 37.4766 30.0469 37.4766C29.7891 37.4766 29.5781 37.2656 29.5781 37.0078C29.5781 36.75 29.7891 36.5391 30.0469 36.5391C32.8672 36.5391 35.4219 35.0625 36.8281 32.625C38.2422 30.1953 38.2422 27.2266 36.8359 24.7891ZM13.2187 7.38281C13.0859 7.60937 12.8047 7.67969 12.5781 7.55469C12.3516 7.42187 12.2813 7.14062 12.4063 6.91406C13.1953 5.55469 14.3047 4.46094 15.6094 3.70312C19.7969 1.28125 25.1641 2.71875 27.5859 6.91406C27.7109 7.14062 27.6406 7.42187 27.4141 7.55469C27.1875 7.67969 26.9063 7.60937 26.7734 7.38281C24.5938 3.58594 19.7578 2.38281 16.0781 4.51562C14.8984 5.20312 13.9375 6.13281 13.2187 7.38281ZM9.94531 34.3203C10.2031 34.3203 10.4141 34.5312 10.4141 34.7891C10.4141 35.0469 10.2031 35.2578 9.94531 35.2578C6.3125 35.2578 3.39844 32.3125 3.39063 28.7109C3.39063 27.5859 3.6875 26.4609 4.27344 25.4375C4.39844 25.2109 4.6875 25.1328 4.91406 25.2656C5.14063 25.3906 5.21094 25.6797 5.08594 25.9062C4.58594 26.7812 4.32813 27.7422 4.32813 28.7109C4.32813 31.7734 6.8125 34.3203 9.94531 34.3203ZM34.9141 25.9062C34.7891 25.6797 34.8594 25.3984 35.0859 25.2656C35.3125 25.1406 35.5937 25.2109 35.7266 25.4375C37.5703 28.6328 36.4063 32.6094 33.3359 34.3828C32.3594 34.9453 31.2344 35.2578 30.0547 35.2578C29.7969 35.2578 29.5859 35.0469 29.5859 34.7891C29.5859 34.5312 29.7969 34.3203 30.0547 34.3203C31.0703 34.3203 32.0313 34.0547 32.8594 33.5703C35.5547 31.9922 36.4687 28.6016 34.9141 25.9062ZM15.1406 8.48437C15.0156 8.71094 14.7266 8.78906 14.5 8.65625C14.2734 8.52344 14.1953 8.24219 14.3281 8.01562C15.5 5.97656 17.6484 4.74219 20 4.74219C21.1563 4.74219 22.3203 5.05469 23.2734 5.61719C24.25 6.17969 25.0703 7 25.6641 8.01562C25.7891 8.24219 25.7187 8.52344 25.4922 8.65625C25.2656 8.78125 24.9844 8.71094 24.8516 8.48437C24.3438 7.60937 23.6406 6.90625 22.8047 6.42969C20.1641 4.90625 16.7109 5.76562 15.1406 8.48437ZM32.9922 27.0156L22.9375 9.60156C22.6328 9.07031 22.2031 8.64844 21.7031 8.35156C20.6719 7.75781 19.3438 7.75781 18.3047 8.35156C17.7891 8.65625 17.3828 9.05469 17.0703 9.60156L7.00781 27.0156C5.71094 29.2656 7.32031 32.1016 9.94531 32.1016H30.0547C32.6797 32.1016 34.2891 29.2656 32.9922 27.0156ZM31.0703 28.125L21.0156 10.7109C20.9063 10.5234 20.7578 10.375 20.5859 10.2734C20.0625 9.96875 19.3281 10.1172 18.9844 10.7109L8.92969 28.125C8.59375 28.7109 8.82031 29.4219 9.35156 29.7266C9.52344 29.8203 9.71875 29.875 9.9375 29.875H30.0469C30.9844 29.8828 31.5156 28.8906 31.0703 28.125ZM21.8359 10.2656L31.875 27.6562C32.6953 29.0781 31.6641 30.8203 30.0469 30.8203H9.94531C9.57031 30.8203 9.19531 30.7266 8.89063 30.5391C7.91406 29.9766 7.52344 28.7031 8.125 27.6562L18.1797 10.2422C18.7812 9.20312 20.0859 8.89844 21.0625 9.46875C21.3516 9.63281 21.6797 9.94531 21.8359 10.2656ZM19.2266 26.4531V27.6406C19.2266 27.7422 19.3125 27.8281 19.4141 27.8281H20.6094C20.7109 27.8281 20.7969 27.7422 20.7969 27.6406V26.4531C20.7969 26.3516 20.7109 26.2656 20.6094 26.2656H19.4141C19.3125 26.2656 19.2266 26.3516 19.2266 26.4531ZM18.2891 27.6406V26.4531C18.2891 25.8359 18.7969 25.3281 19.4141 25.3281H20.6094C21.2266 25.3281 21.7344 25.8359 21.7344 26.4531V27.6406C21.7344 28.2578 21.2344 28.7656 20.6094 28.7656H19.4141C18.7969 28.7656 18.2891 28.2656 18.2891 27.6406ZM19.1172 18.2812L19.6875 23.0078C19.7109 23.2109 19.9375 23.1719 20.125 23.1719C20.2266 23.1719 20.2969 23.1094 20.3125 23.0078L20.875 18.2656V15.8906C20.875 15.7891 20.7891 15.7031 20.6875 15.7031H19.2969C19.1953 15.7031 19.1094 15.7891 19.1094 15.8906V18.2812H19.1172ZM18.7656 23.1172L18.1953 18.3984L18.1875 18.2578V15.8828C18.1875 15.2656 18.6875 14.7578 19.3125 14.7578H20.7031C21.3203 14.7578 21.8281 15.2578 21.8281 15.8828V18.2578L21.8203 18.3906L21.2578 23.1094C21.1875 23.6719 20.7109 24.1016 20.1406 24.1016C19.7578 24.1016 19.4687 24.1094 19.1406 23.8203C18.9297 23.6484 18.7969 23.3984 18.7656 23.1172Z" fill="#ED1C24"/>
</svg>
