<svg width="32" height="33" viewBox="0 0 32 33" fill="none" xmlns="http://www.w3.org/2000/svg">
<path d="M21.987 21.8334H21.7603C21.5866 21.8044 21.4204 21.7412 21.2712 21.6476C21.1221 21.554 20.9929 21.4317 20.8913 21.2879C20.7896 21.1441 20.7175 20.9816 20.679 20.8098C20.6405 20.6379 20.6364 20.4601 20.667 20.2867L22.0003 12.18C22.0604 11.8264 22.2586 11.5112 22.5511 11.3036C22.8437 11.0961 23.2067 11.0133 23.5603 11.0734C23.9139 11.1335 24.2292 11.3316 24.4367 11.6242C24.6443 11.9167 24.7271 12.2798 24.667 12.6334L23.3337 20.74C23.2765 21.053 23.1094 21.3351 22.8624 21.5356C22.6155 21.7361 22.305 21.8417 21.987 21.8334ZM17.907 23.78C17.6677 23.78 17.4328 23.7155 17.227 23.5934L10.7337 19.7C10.4667 19.5059 10.2813 19.2196 10.2132 18.8967C10.1451 18.5737 10.1993 18.2369 10.3652 17.9516C10.5311 17.6662 10.797 17.4525 11.1113 17.3519C11.4257 17.2512 11.7662 17.2708 12.067 17.4067L18.667 21.3C18.8165 21.3959 18.9453 21.5206 19.0459 21.6669C19.1466 21.8132 19.2169 21.9782 19.253 22.152C19.289 22.3259 19.2899 22.5052 19.2557 22.6795C19.2215 22.8537 19.1528 23.0194 19.0537 23.1667C18.9308 23.3583 18.7609 23.5153 18.5602 23.6226C18.3594 23.73 18.1346 23.7842 17.907 23.78ZM8.00033 13.8334C7.6467 13.8334 7.30757 13.6929 7.05752 13.4428C6.80747 13.1928 6.66699 12.8537 6.66699 12.5V7.16671C6.66699 6.81309 6.80747 6.47395 7.05752 6.2239C7.30757 5.97385 7.6467 5.83337 8.00033 5.83337C8.35395 5.83337 8.69309 5.97385 8.94313 6.2239C9.19318 6.47395 9.33366 6.81309 9.33366 7.16671V12.5C9.33366 12.8537 9.19318 13.1928 8.94313 13.4428C8.69309 13.6929 8.35395 13.8334 8.00033 13.8334Z" fill="#0078EE"/>
<path d="M21.3336 29.8334C24.2791 29.8334 26.6669 27.4455 26.6669 24.5C26.6669 21.5545 24.2791 19.1667 21.3336 19.1667C18.3881 19.1667 16.0002 21.5545 16.0002 24.5C16.0002 27.4455 18.3881 29.8334 21.3336 29.8334Z" fill="#55ABFF"/>
<path d="M8.00033 21.8334C10.9458 21.8334 13.3337 19.4455 13.3337 16.5C13.3337 13.5545 10.9458 11.1667 8.00033 11.1667C5.05481 11.1667 2.66699 13.5545 2.66699 16.5C2.66699 19.4455 5.05481 21.8334 8.00033 21.8334Z" fill="#55ABFF"/>
<path d="M24.0003 13.8334C26.9458 13.8334 29.3337 11.4455 29.3337 8.50002C29.3337 5.5545 26.9458 3.16669 24.0003 3.16669C21.0548 3.16669 18.667 5.5545 18.667 8.50002C18.667 11.4455 21.0548 13.8334 24.0003 13.8334Z" fill="#55ABFF"/>
</svg>
