<svg width="27" height="29" viewBox="0 0 27 29" fill="none" xmlns="http://www.w3.org/2000/svg">
<path d="M17.7035 9.76855C17.5078 9.76855 17.3201 9.84631 17.1817 9.98469C17.0433 10.1231 16.9656 10.3108 16.9656 10.5065V24.4455C16.9616 24.5448 16.9777 24.6439 17.013 24.7368C17.0483 24.8297 17.102 24.9145 17.1708 24.9862C17.2397 25.0578 17.3223 25.1149 17.4137 25.1538C17.5052 25.1927 17.6035 25.2128 17.7029 25.2128C17.8023 25.2128 17.9006 25.1927 17.9921 25.1538C18.0835 25.1149 18.1661 25.0578 18.235 24.9862C18.3038 24.9145 18.3575 24.8297 18.3928 24.7368C18.428 24.6439 18.4442 24.5448 18.4402 24.4455V10.51C18.4407 10.4129 18.422 10.3166 18.3852 10.2268C18.3484 10.1369 18.2942 10.0552 18.2257 9.98634C18.1573 9.91746 18.0759 9.86278 17.9863 9.82541C17.8967 9.78804 17.8006 9.76871 17.7035 9.76855ZM9.00143 9.76855C8.80572 9.76855 8.61804 9.84631 8.47965 9.98469C8.34127 10.1231 8.26353 10.3108 8.26353 10.5065V24.4455C8.25956 24.5448 8.27569 24.6439 8.31096 24.7368C8.34623 24.8297 8.3999 24.9145 8.46875 24.9862C8.53761 25.0578 8.62023 25.1149 8.71166 25.1538C8.8031 25.1927 8.90145 25.2128 9.00083 25.2128C9.10021 25.2128 9.19857 25.1927 9.29 25.1538C9.38143 25.1149 9.46406 25.0578 9.53291 24.9862C9.60177 24.9145 9.65544 24.8297 9.69071 24.7368C9.72598 24.6439 9.74211 24.5448 9.73815 24.4455V10.51C9.73861 10.4129 9.71991 10.3166 9.68311 10.2268C9.6463 10.1369 9.59213 10.0552 9.52369 9.98634C9.45525 9.91746 9.37389 9.86278 9.28427 9.82541C9.19464 9.78804 9.09853 9.76871 9.00143 9.76855Z" fill="#E80000"/>
<path d="M2.65881 8.79461V25.066C2.65791 25.5365 2.75347 26.0021 2.93961 26.4342C3.12574 26.8663 3.39848 27.2556 3.74099 27.5782C4.45744 28.2411 5.39927 28.6065 6.37534 28.6004H20.3296C21.3058 28.6076 22.2481 28.2429 22.9652 27.5805C23.3078 27.2578 23.5806 26.8683 23.7668 26.436C23.9529 26.0037 24.0484 25.5378 24.0473 25.0672V8.79461C24.6769 8.67861 25.2396 8.32962 25.6233 7.8172C26.007 7.30479 26.1836 6.6666 26.1177 6.02984C25.9904 5.39068 25.6389 4.81806 25.1265 4.41535C24.6141 4.01264 23.9747 3.80636 23.3235 3.83376H19.5471V3.01126C19.5458 2.65922 19.4693 2.31152 19.3226 1.99152C19.1758 1.67151 18.9623 1.38661 18.6964 1.15594C18.1233 0.657701 17.3865 0.388647 16.6272 0.400413H10.0789C9.31927 0.388356 8.58194 0.657428 8.00859 1.15594C7.74309 1.38622 7.52985 1.67055 7.38314 1.98991C7.23643 2.30928 7.15963 2.65629 7.15789 3.00774V3.83024H3.38144C2.73001 3.80327 2.09042 4.01017 1.5782 4.41356C1.06599 4.81696 0.714939 5.39024 0.588465 6.02984C0.522599 6.6666 0.699115 7.30479 1.08283 7.8172C1.46654 8.32962 2.02926 8.67861 2.65881 8.79461ZM20.3296 27.2785H6.37651C6.08303 27.2842 5.79138 27.231 5.51875 27.1222C5.24613 27.0134 4.99804 26.8511 4.78911 26.6449C4.58018 26.4387 4.41464 26.1928 4.30223 25.9216C4.18983 25.6505 4.13284 25.3595 4.13461 25.066V8.85219H22.5715V25.0672C22.5732 25.3606 22.5161 25.6514 22.4036 25.9224C22.2911 26.1935 22.1255 26.4393 21.9166 26.6453C21.7077 26.8514 21.4597 27.0136 21.1871 27.1223C20.9146 27.2311 20.623 27.2842 20.3296 27.2785ZM8.63251 3.00774C8.63192 2.83366 8.669 2.66151 8.7412 2.50311C8.8134 2.3447 8.91903 2.2038 9.05081 2.09006C9.33505 1.84303 9.70129 1.71103 10.0778 1.71994H16.626C17.0025 1.71103 17.3688 1.84303 17.653 2.09006C17.7848 2.2038 17.8904 2.3447 17.9626 2.50311C18.0348 2.66151 18.0719 2.83366 18.0713 3.00774V3.83024H8.63251V3.00774ZM3.38144 5.15446H23.3235C23.6576 5.13585 23.9855 5.25043 24.2352 5.4731C24.485 5.69576 24.6363 6.00836 24.656 6.34239C24.6366 6.67576 24.4861 6.98792 24.2373 7.21071C23.9885 7.43349 23.6617 7.54881 23.3282 7.53149H3.38144C3.04795 7.54881 2.72115 7.43349 2.47238 7.21071C2.22362 6.98792 2.0731 6.67576 2.05369 6.34239C2.0731 6.00901 2.22362 5.69686 2.47238 5.47407C2.72115 5.25128 3.04795 5.13714 3.38144 5.15446Z" fill="#E80000"/>
<path d="M13.3539 9.76855C13.1581 9.76855 12.9705 9.84631 12.8321 9.98469C12.6937 10.1231 12.6159 10.3108 12.6159 10.5065V24.4455C12.612 24.5448 12.6281 24.6439 12.6634 24.7368C12.6987 24.8297 12.7523 24.9145 12.8212 24.9862C12.89 25.0578 12.9727 25.1149 13.0641 25.1538C13.1555 25.1927 13.2539 25.2128 13.3533 25.2128C13.4526 25.2128 13.551 25.1927 13.6424 25.1538C13.7339 25.1149 13.8165 25.0578 13.8853 24.9862C13.9542 24.9145 14.0079 24.8297 14.0431 24.7368C14.0784 24.6439 14.0945 24.5448 14.0906 24.4455V10.51C14.091 10.4129 14.0723 10.3166 14.0355 10.2268C13.9987 10.1369 13.9445 10.0552 13.8761 9.98634C13.8077 9.91746 13.7263 9.86278 13.6367 9.82541C13.5471 9.78804 13.451 9.76871 13.3539 9.76855Z" fill="#E80000"/>
</svg>
