<svg width="24" height="24" viewBox="0 0 24 24" fill="none" xmlns="http://www.w3.org/2000/svg">
<rect width="24" height="24" rx="12" fill="#76BF4C"/>
<path d="M11.4425 16.0613C11.1807 16.3231 10.8256 16.4701 10.4553 16.4701C10.0851 16.4701 9.72998 16.3231 9.46812 16.0613L6.40906 13.0023C6.27944 12.8726 6.17662 12.7187 6.10647 12.5493C6.03633 12.38 6.00023 12.1984 6.00024 12.0151C6.00026 11.8318 6.03638 11.6502 6.10654 11.4809C6.17671 11.3115 6.27955 11.1576 6.40919 11.028C6.53883 10.8984 6.69274 10.7956 6.86211 10.7254C7.03149 10.6553 7.21302 10.6192 7.39635 10.6192C7.57968 10.6192 7.76121 10.6553 7.93057 10.7255C8.09994 10.7956 8.25383 10.8985 8.38345 11.0281L10.2061 12.8505C10.2723 12.9164 10.362 12.9534 10.4554 12.9534C10.5489 12.9534 10.6386 12.9164 10.7048 12.8505L15.6399 7.9154C15.9038 7.66383 16.2556 7.52543 16.6201 7.52976C16.9846 7.5341 17.333 7.68082 17.5908 7.9386C17.8487 8.19637 17.9954 8.54475 17.9998 8.90929C18.0042 9.27383 17.8658 9.62564 17.6143 9.88953L11.4425 16.0613Z" fill="white"/>
</svg>
