<svg width="40" height="40" viewBox="0 0 40 40" fill="none" xmlns="http://www.w3.org/2000/svg">
<g clip-path="url(#clip0_257_2120)">
<path fill-rule="evenodd" clip-rule="evenodd" d="M5.19684 11.6219H24.9948C24.1159 11.2259 23.489 10.2342 23.489 9.08386C23.489 7.58603 24.5498 6.3617 25.8475 6.3617H31.5167C28.5428 3.02872 24.4879 0.979004 20.0167 0.979004C13.5147 0.979004 7.88965 5.31616 5.19684 11.6218V11.6219Z" fill="#579FFF"/>
<path fill-rule="evenodd" clip-rule="evenodd" d="M23.4891 9.08386C23.4891 10.2342 24.1159 11.2259 24.9948 11.6219H34.8364C33.995 9.65124 32.8677 7.87503 31.5167 6.36169H25.8475C24.5498 6.36169 23.4891 7.58594 23.4891 9.08386ZM14.5578 28.2489H5.11047C5.94758 30.2705 7.08586 32.0957 8.45422 33.6471H14.1235C15.4215 33.6471 16.4823 32.4203 16.4823 30.9249C16.4823 29.5985 15.6495 28.484 14.5578 28.2489Z" fill="#CBE558"/>
<path fill-rule="evenodd" clip-rule="evenodd" d="M16.4823 30.9251C16.4823 32.4205 15.4215 33.6472 14.1239 33.6472H8.45435C11.4332 37.0185 15.5145 39.0993 20.0168 39.0993C26.5894 39.0993 32.2654 34.6645 34.9229 28.249H14.5579C15.6494 28.4841 16.4823 29.5986 16.4823 30.9251Z" fill="#579FFF"/>
<path fill-rule="evenodd" clip-rule="evenodd" d="M14.5578 28.2489H36.5969C38.0388 28.2489 39.219 26.8865 39.219 25.2226V14.6457C39.219 12.9818 38.0388 11.6219 36.5969 11.6219H3.40054C1.9589 11.6219 0.781006 12.9818 0.781006 14.6457V25.2226C0.781006 26.8865 1.9589 28.2489 3.40054 28.2489H14.5578Z" fill="#FFBD5A"/>
<path d="M25.4624 18.4695C25.2387 18.4695 25.0415 18.5565 24.8731 18.7356C24.7025 18.912 24.6186 19.1369 24.6186 19.4104C24.6186 19.684 24.7025 19.9089 24.8731 20.0853C25.0415 20.2617 25.2387 20.3511 25.4624 20.3511C25.6925 20.3511 25.8854 20.2617 26.0425 20.08C26.1997 19.8987 26.2772 19.6763 26.2772 19.4104C26.2772 19.1521 26.1975 18.9299 26.0382 18.7458C25.8786 18.5617 25.6861 18.4695 25.4624 18.4695ZM25.4624 21.9791C25.2387 21.9791 25.0436 22.071 24.8777 22.2551C24.7117 22.4393 24.6274 22.6642 24.6274 22.9299C24.6274 23.1806 24.7071 23.4052 24.8667 23.6047C25.0327 23.7913 25.232 23.8832 25.4624 23.8832C25.6861 23.8832 25.8786 23.7913 26.0379 23.6047C26.1975 23.4206 26.2772 23.201 26.2772 22.9426C26.2772 22.6768 26.1975 22.4494 26.0379 22.2601C25.8786 22.0738 25.6861 21.9791 25.4624 21.9791ZM16.5995 17.506H16.15L16.1588 16.5091C16.1588 16.2666 16.0858 16.067 15.9372 15.911C15.7911 15.7425 15.6208 15.6583 15.4304 15.6583C15.2243 15.6583 15.0516 15.7399 14.9075 15.9061C14.7635 16.0723 14.6906 16.274 14.6906 16.5091V17.5061H14.4514C14.2654 17.5061 14.1059 17.5775 13.9731 17.7232C13.8379 17.8665 13.7717 18.0453 13.7717 18.2601C13.7717 18.4592 13.8336 18.6357 13.9622 18.7891C14.0906 18.9451 14.2545 19.0218 14.4514 19.0218H14.7016V22.71C14.7016 22.8352 14.7193 22.9479 14.7547 23.0475C14.7879 23.1471 14.8411 23.2365 14.9122 23.3183C15.0538 23.4872 15.2243 23.5713 15.4304 23.5713C15.6406 23.5713 15.8155 23.4872 15.9528 23.3183C16.0901 23.1471 16.1588 22.9452 16.1588 22.71L16.15 19.0345H16.5906C16.7768 19.0345 16.934 18.9578 17.0646 18.8071C17.1952 18.6564 17.2617 18.4773 17.2617 18.2703C17.2617 18.0559 17.1976 17.8743 17.0691 17.7285C16.9428 17.5803 16.7856 17.5061 16.5995 17.5061V17.506ZM12.6486 17.506H12.1971L12.208 16.5091C12.208 16.2666 12.1329 16.067 11.9868 15.911C11.8406 15.7425 11.67 15.6583 11.4795 15.6583C11.2736 15.6583 11.0986 15.7399 10.9568 15.9061C10.8131 16.0722 10.7398 16.274 10.7398 16.5091V17.5061H10.5005C10.3147 17.5061 10.155 17.5775 10.0202 17.7232C9.88715 17.8665 9.81848 18.0453 9.81848 18.2601C9.81848 18.4592 9.88286 18.6357 10.0114 18.7891C10.1398 18.9451 10.3012 19.0218 10.5005 19.0218H10.7486V22.71C10.7486 22.8352 10.7664 22.9479 10.8018 23.0475C10.8372 23.1471 10.8905 23.2365 10.9614 23.3183C11.1008 23.4872 11.2736 23.5713 11.4795 23.5713C11.6898 23.5713 11.8647 23.4872 12.0023 23.3183C12.1393 23.1471 12.208 22.9452 12.208 22.71L12.1971 19.0345H12.6398C12.8239 19.0345 12.9832 18.9578 13.1137 18.8071C13.2443 18.6564 13.3109 18.4773 13.3109 18.2703C13.3109 18.0559 13.2468 17.8743 13.1183 17.7285C12.9899 17.5803 12.8348 17.5061 12.6486 17.5061V17.506ZM7.33614 17.3962C6.91958 17.3962 6.54333 17.5085 6.20426 17.7387L5.99184 17.9048V15.6787C5.99184 15.4358 5.91864 15.2362 5.77247 15.083C5.63083 14.912 5.45809 14.8275 5.25426 14.8275C5.04856 14.8275 4.8734 14.912 4.72723 15.0831C4.57887 15.2517 4.50598 15.4509 4.50598 15.6788V22.7307C4.50598 22.9606 4.57887 23.1602 4.72723 23.3288C4.87333 23.4974 5.04856 23.5844 5.25426 23.5844C5.45817 23.5844 5.63301 23.4998 5.777 23.3338C5.92098 23.1677 5.99184 22.9683 5.99184 22.7307V19.8195C5.99184 19.546 6.07825 19.3133 6.25098 19.1214C6.42364 18.9299 6.63184 18.8353 6.87536 18.8353C7.10583 18.8353 7.30293 18.9324 7.46895 19.1292C7.6352 19.3235 7.71918 19.5587 7.71918 19.8322V22.7307C7.71918 22.9683 7.79239 23.1705 7.93856 23.339C8.08692 23.5101 8.26176 23.5946 8.46778 23.5946C8.67833 23.5946 8.85106 23.5101 8.98598 23.339C9.13208 23.1705 9.20536 22.9683 9.20536 22.7307V19.5534C9.20536 18.9199 9.05458 18.4214 8.75551 18.0609C8.37684 17.6159 7.90536 17.3963 7.33614 17.3963V17.3962ZM22.9597 18.8455C22.8534 18.6434 22.7229 18.4519 22.5678 18.2731C22.0829 17.7131 21.5027 17.4346 20.825 17.4346C20.329 17.4346 19.8771 17.5775 19.4675 17.8665C19.2438 17.2248 18.0967 17.0512 18.0967 18.2931V25.1435C18.0967 25.3965 18.1696 25.5982 18.3157 25.7542C18.4641 25.9232 18.6393 26.0074 18.8453 26.0074C19.0555 26.0074 19.224 25.9179 19.3613 25.7542C19.505 25.5856 19.5825 25.3913 19.5825 25.1561V22.7793C19.9613 23.0141 20.3754 23.1345 20.825 23.1345C21.5226 23.1345 22.1073 22.8609 22.5833 22.3115C23.0573 21.7645 23.2944 21.0896 23.2944 20.2846C23.2944 19.9392 23.2477 19.6171 23.1525 19.3158C23.1082 19.1548 23.0418 18.9962 22.9596 18.8454L22.9597 18.8455ZM20.8005 21.5011C20.2005 21.5011 19.7154 20.9414 19.7154 20.2514C19.7154 19.5611 20.2005 18.9989 20.8005 18.9989C21.3983 18.9989 21.8836 19.5611 21.8836 20.2514C21.8836 20.9414 21.3986 21.5011 20.8005 21.5011Z" fill="black"/>
<path d="M36.597 10.7214H35.3137C33.9031 7.64304 31.8209 5.04219 29.2727 3.17554C26.5076 1.14935 23.3069 0.078125 20.0168 0.078125C18.6905 0.078125 17.3734 0.25097 16.1017 0.592063C15.6814 0.70507 15.4202 1.18909 15.5179 1.67347C15.6155 2.15821 16.0352 2.4592 16.4554 2.34691C17.6111 2.03673 18.8092 1.87939 20.0168 1.87939C23.4949 1.87939 26.7655 3.17031 29.4241 5.46082H25.8475C24.1165 5.46082 22.7081 7.08617 22.7081 9.08389C22.7081 9.66226 22.8317 10.222 23.053 10.7211H6.51273C7.69961 8.43441 9.31516 6.46166 11.2424 4.96418C11.6 4.68644 11.6946 4.12673 11.4538 3.71417C11.213 3.30161 10.7278 3.19239 10.3698 3.47022C7.99798 5.31409 6.05727 7.80467 4.71984 10.721H3.40055C1.52555 10.7215 0 12.482 0 14.6458V25.2226C0 27.3878 1.52555 29.1497 3.40055 29.1497H4.62656C5.47313 31.0519 6.57879 32.7851 7.90141 34.2832C7.90227 34.2839 7.90297 34.285 7.90383 34.2857C8.74892 35.2427 9.67658 36.0976 10.6723 36.8371C13.4586 38.9062 16.6898 40 20.0165 40C23.3432 40 26.5744 38.9062 29.3606 36.8371C31.933 34.9267 34.0145 32.2771 35.4065 29.1497H36.597C38.4732 29.1497 40 27.3878 40 25.2226V14.6457C40 12.4819 38.4734 10.7214 36.597 10.7214ZM24.27 9.08389C24.27 8.07953 24.9777 7.26253 25.8475 7.26253H31.2125C32.0889 8.29041 32.8662 9.4485 33.5236 10.7214H25.1584C24.6222 10.417 24.2701 9.77734 24.2701 9.08389H24.27ZM14.4714 29.1497C15.187 29.3355 15.7013 30.0705 15.7013 30.9249C15.7013 31.9292 14.9936 32.7462 14.1235 32.7462H8.79086C7.86855 31.6673 7.06748 30.459 6.40648 29.1496L14.4714 29.1497ZM38.4381 25.2226C38.4381 26.3947 37.6123 27.348 36.597 27.348H27.8607C27.4295 27.348 27.0798 27.7515 27.0798 28.2489C27.0798 28.7464 27.4295 29.1497 27.8607 29.1497H33.6267C30.8313 34.6901 25.6192 38.1984 20.0168 38.1984C16.5646 38.1984 13.2611 36.8664 10.5793 34.5479H14.1238C15.8548 34.5479 17.2632 32.9227 17.2632 30.9249C17.2634 30.303 17.1246 29.6916 16.8601 29.1496H21.6202C22.0514 29.1496 22.4008 28.7463 22.4008 28.2489C22.4008 27.7515 22.0514 27.348 21.6202 27.348H3.40055C2.3868 27.348 1.56188 26.3947 1.56188 25.2226V14.6457C1.56188 13.4753 2.3868 12.5228 3.40055 12.5228H24.9899C24.9915 12.5228 24.993 12.5231 24.9948 12.5231C24.9957 12.5231 24.997 12.5228 24.9979 12.5228H36.5969C37.6123 12.5228 38.438 13.4749 38.438 14.6457L38.4381 25.2226Z" fill="black"/>
<path d="M33.3994 15.3818L30.8127 22.7993C30.7816 22.8863 30.7618 22.9784 30.7618 23.0728C30.7618 24.2052 31.9797 24.3791 32.2743 23.4973L34.8719 16.0616C34.9051 15.9775 34.9228 15.8804 34.9228 15.7783C34.9228 14.5972 33.6804 14.5 33.3994 15.3818ZM31.5568 15.5582C31.5568 14.3748 30.3122 14.2803 30.033 15.1594L27.4466 22.5797C27.4132 22.6657 27.3959 22.7589 27.3957 22.8532C27.3957 23.9828 28.6136 24.1566 28.9082 23.2749L31.5058 15.8395C31.5399 15.751 31.5572 15.6551 31.5568 15.5583V15.5582ZM13.2917 3.53081C13.4089 3.53081 13.5282 3.50017 13.6401 3.43574L13.6536 3.42799C14.0393 3.20549 14.1956 2.66443 14.0027 2.21952C13.8098 1.77461 13.3408 1.59393 12.955 1.81679L12.9416 1.82418C12.5559 2.04703 12.3996 2.58774 12.5925 3.03265C12.6574 3.18243 12.7572 3.30839 12.8807 3.39638C13.0042 3.48438 13.1465 3.53093 13.2917 3.53081ZM24.7559 27.348H24.7403C24.3091 27.348 23.9594 27.7515 23.9594 28.2489C23.9594 28.7464 24.3091 29.1498 24.7403 29.1498H24.7559C25.1871 29.1498 25.5368 28.7463 25.5368 28.2489C25.5368 27.7515 25.1871 27.348 24.7559 27.348Z" fill="black"/>
</g>
<defs>
<clipPath id="clip0_257_2120">
<rect width="40" height="40" fill="white"/>
</clipPath>
</defs>
</svg>
