<svg width="40" height="40" viewBox="0 0 40 40" fill="none" xmlns="http://www.w3.org/2000/svg">
<g clip-path="url(#clip0_233_3980)">
<path d="M29.0219 39.2117H11.3951C9.68729 39.2117 8.30273 37.8272 8.30273 36.1193V3.88087C8.30273 2.173 9.68729 0.788452 11.3951 0.788452H29.0219C30.7298 0.788452 32.1143 2.173 32.1143 3.88087V36.1193C32.1143 37.8272 30.7298 39.2117 29.0219 39.2117Z" fill="#3D6D93"/>
<path d="M29.0215 0.788452H26.7021C28.41 0.788452 29.7946 2.173 29.7946 3.88087V36.1193C29.7946 37.8272 28.41 39.2117 26.7021 39.2117H29.0215C30.7293 39.2117 32.1139 37.8272 32.1139 36.1193V3.88087C32.1139 2.173 30.7293 0.788452 29.0215 0.788452Z" fill="#335E80"/>
<path d="M25.8881 3.72627C25.8881 4.30347 25.4202 4.77143 24.843 4.77143H15.576C14.9988 4.77143 14.5309 4.30347 14.5309 3.72627C14.5309 3.56224 14.4657 3.40493 14.3497 3.28894C14.2337 3.17295 14.0764 3.10779 13.9124 3.10779H11.7827C11.1423 3.10779 10.623 3.627 10.623 4.26744V35.7328C10.623 36.3732 11.1423 36.8924 11.7827 36.8924H28.6364C29.2768 36.8924 29.796 36.3732 29.796 35.7328V4.26744C29.796 3.627 29.2768 3.10779 28.6364 3.10779H26.5067C26.4255 3.10778 26.345 3.12377 26.27 3.15485C26.1949 3.18592 26.1268 3.23148 26.0693 3.28891C26.0119 3.34634 25.9663 3.41453 25.9352 3.48957C25.9041 3.56461 25.8881 3.64504 25.8881 3.72627Z" fill="#F9F7F8"/>
<path d="M7.68194 18.3796C11.3739 18.3796 14.3668 15.3867 14.3668 11.6948C14.3668 8.00281 11.3739 5.00989 7.68194 5.00989C3.98999 5.00989 0.99707 8.00281 0.99707 11.6948C0.99707 15.3867 3.98999 18.3796 7.68194 18.3796Z" fill="#FFE179"/>
<path d="M7.68212 5.00989C7.28636 5.00989 6.89935 5.04622 6.52246 5.11217C9.66134 5.66146 12.0477 8.39856 12.0477 11.6948C12.0477 14.991 9.66134 17.728 6.52246 18.2774C6.90533 18.3449 7.29333 18.3792 7.68212 18.3796C11.3741 18.3796 14.367 15.3867 14.367 11.6948C14.367 8.0028 11.374 5.00989 7.68212 5.00989Z" fill="#FBD268"/>
<path d="M10.0014 15.1736H5.36278C4.72234 15.1736 4.20312 14.6544 4.20312 14.014V9.37535C4.20312 8.73491 4.72234 8.2157 5.36278 8.2157H10.0014C10.6418 8.2157 11.1611 8.73491 11.1611 9.37535V14.014C11.1611 14.6545 10.6419 15.1736 10.0014 15.1736Z" fill="#F58A97"/>
<path d="M10.0012 8.21582H7.68188C8.32232 8.21582 8.84154 8.73504 8.84154 9.37548V14.0141C8.84154 14.6545 8.32232 15.1738 7.68188 15.1738H10.0012C10.6416 15.1738 11.1609 14.6545 11.1609 14.0141V9.37548C11.1609 8.73504 10.6416 8.21582 10.0012 8.21582Z" fill="#F07281"/>
<path d="M7.68212 12.8543C8.32258 12.8543 8.84177 12.3351 8.84177 11.6947C8.84177 11.0542 8.32258 10.535 7.68212 10.535C7.04166 10.535 6.52246 11.0542 6.52246 11.6947C6.52246 12.3351 7.04166 12.8543 7.68212 12.8543Z" fill="white"/>
<path d="M7.26495 34.156C10.9569 34.156 13.9498 31.1631 13.9498 27.4711C13.9498 23.7792 10.9569 20.7863 7.26495 20.7863C3.573 20.7863 0.580078 23.7792 0.580078 27.4711C0.580078 31.1631 3.573 34.156 7.26495 34.156Z" fill="#8FD8FA"/>
<path d="M7.26513 20.7863C6.85016 20.7867 6.43612 20.8255 6.02832 20.9024C9.12909 21.4827 11.4764 24.202 11.4764 27.4711C11.4764 30.7403 9.12909 33.4596 6.02832 34.0399C6.43612 34.1167 6.85016 34.1556 7.26513 34.156C10.9571 34.156 13.95 31.1631 13.95 27.4711C13.95 23.7792 10.957 20.7863 7.26513 20.7863Z" fill="#6BCDFE"/>
<path d="M9.39329 24.9076C8.85791 24.292 7.92493 24.227 7.30931 24.7623C7.14737 24.9032 7.01806 25.0776 6.93038 25.2735C6.8427 25.4694 6.79876 25.6821 6.80161 25.8967V26.2264C6.28192 26.2399 5.76571 26.1379 5.29017 25.9278C4.81464 25.7178 4.39162 25.4048 4.05161 25.0116C3.94894 24.8928 3.75605 24.9314 3.71167 25.082C3.4693 25.9054 3.1378 27.977 5.4827 29.0192C5.01918 29.3338 4.4924 29.5432 3.93935 29.6326C3.7964 29.6557 3.86699 29.9194 3.90317 30.0138C4.15203 30.6632 6.95879 30.9325 8.67778 29.5188C9.73168 28.652 10.0541 27.4179 10.1638 26.7531C10.4392 26.4693 10.6569 26.1349 10.805 25.7683C10.8858 25.5678 10.9448 25.3592 10.9812 25.1461C11.0302 24.8605 10.7366 24.645 10.4758 24.7714C10.3577 24.8287 10.2334 24.8721 10.1052 24.9007C9.87098 24.9524 9.62851 24.9548 9.39329 24.9076Z" fill="white"/>
<path d="M32.7357 34.156C36.4276 34.156 39.4205 31.1631 39.4205 27.4711C39.4205 23.7792 36.4276 20.7863 32.7357 20.7863C29.0437 20.7863 26.0508 23.7792 26.0508 27.4711C26.0508 31.1631 29.0437 34.156 32.7357 34.156Z" fill="#F58A97"/>
<path d="M32.7349 20.7863C32.3391 20.7863 31.9521 20.8226 31.5752 20.8885C34.7141 21.4379 37.1004 24.1749 37.1004 27.4711C37.1004 30.7673 34.7141 33.5044 31.5752 34.0537C31.9581 34.1213 32.3461 34.1555 32.7349 34.156C36.4268 34.156 39.4197 31.1631 39.4197 27.4711C39.4197 23.7792 36.4268 20.7863 32.7349 20.7863Z" fill="#F07281"/>
<path d="M31.094 25.1975C31.094 25.0245 31.2811 24.9165 31.4308 25.003L35.4964 27.3514C35.6461 27.4379 35.6461 27.654 35.4964 27.7404L31.4308 30.0889C31.2811 30.1753 31.094 30.0673 31.094 29.8944V25.1975Z" fill="white"/>
<path d="M32.7357 18.3796C36.4276 18.3796 39.4205 15.3867 39.4205 11.6948C39.4205 8.00281 36.4276 5.00989 32.7357 5.00989C29.0437 5.00989 26.0508 8.00281 26.0508 11.6948C26.0508 15.3867 29.0437 18.3796 32.7357 18.3796Z" fill="#8FD8FA"/>
<path d="M32.7349 5.00989C32.3391 5.00989 31.9521 5.04622 31.5752 5.11217C34.7141 5.66146 37.1004 8.39856 37.1004 11.6947C37.1004 14.9908 34.7141 17.7279 31.5752 18.2773C31.9581 18.3449 32.3461 18.3791 32.7349 18.3796C36.4268 18.3796 39.4197 15.3866 39.4197 11.6947C39.4197 8.0028 36.4268 5.00989 32.7349 5.00989Z" fill="#6BCDFE"/>
<path d="M20.0825 15.3293C17.6787 15.3923 15.6928 17.3068 15.5446 19.7069C15.5061 20.3167 15.5878 20.9282 15.7848 21.5065C15.8229 21.6199 15.8219 21.7428 15.7818 21.8554L15.1597 23.6251C15.0737 23.8699 15.3092 24.1055 15.554 24.0194L16.7989 23.5817C16.976 23.5194 17.1712 23.5555 17.3186 23.6718C18.1451 24.3233 19.1966 24.702 20.3377 24.6711C22.8461 24.6031 24.8721 22.5256 24.8806 20.0162C24.8894 17.3864 22.7258 15.2599 20.0825 15.3293Z" fill="#AEE69C"/>
<path d="M20.0825 15.3292C19.7278 15.3384 19.3825 15.3891 19.0506 15.4746C21.0738 15.9926 22.5686 17.8297 22.5613 20.016C22.5541 22.1719 21.0571 24.0077 19.0449 24.5256C19.467 24.634 19.9022 24.6829 20.3378 24.6709C22.8462 24.6029 24.8722 22.5254 24.8806 20.016C24.8894 17.3863 22.7257 15.2598 20.0825 15.3292Z" fill="#89DAA4"/>
<path d="M30.708 12.0919H31.6418V15.7776C31.6418 16.0979 31.9014 16.3574 32.2216 16.3574C32.5419 16.3574 32.8015 16.0979 32.8015 15.7776V12.0919H33.7352C34.0555 12.0919 34.3151 11.8324 34.3151 11.5121C34.3151 11.1918 34.0555 10.9323 33.7352 10.9323H32.8015V9.24767C32.8015 8.92389 33.0648 8.66057 33.3886 8.66057H34.7625C35.0828 8.66057 35.3424 8.40104 35.3424 8.08075C35.3424 7.76045 35.0828 7.50092 34.7625 7.50092H33.3886C32.4254 7.50092 31.6418 8.28454 31.6418 9.24767V10.9323H30.708C30.3877 10.9323 30.1282 11.1918 30.1282 11.5121C30.1282 11.8324 30.3878 12.0919 30.708 12.0919ZM20.2085 3.35971C20.3623 3.35971 20.5098 3.29862 20.6185 3.18988C20.7273 3.08115 20.7884 2.93366 20.7884 2.77988C20.7884 2.6261 20.7273 2.47862 20.6185 2.36988C20.5098 2.26114 20.3623 2.20006 20.2085 2.20006C20.0548 2.20006 19.9073 2.26114 19.7985 2.36988C19.6898 2.47862 19.6287 2.6261 19.6287 2.77988C19.6287 2.93366 19.6898 3.08115 19.7985 3.18988C19.9073 3.29862 20.0548 3.35971 20.2085 3.35971ZM7.68171 13.4343C8.64083 13.4343 9.4212 12.654 9.4212 11.6949C9.4212 10.7357 8.64083 9.95537 7.68171 9.95537C6.7226 9.95537 5.94223 10.7357 5.94223 11.6949C5.94223 12.654 6.7226 13.4343 7.68171 13.4343ZM7.68171 11.115C8.00147 11.115 8.26154 11.3751 8.26154 11.6949C8.26154 12.0146 8.00147 12.2747 7.68171 12.2747C7.36196 12.2747 7.10188 12.0146 7.10188 11.6949C7.10188 11.3751 7.36203 11.115 7.68171 11.115ZM10.001 15.7536C10.9601 15.7536 11.7405 14.9733 11.7405 14.0142V9.37554C11.7405 8.41643 10.9601 7.63606 10.001 7.63606H5.3624C4.40329 7.63606 3.62292 8.41643 3.62292 9.37554V14.0142C3.62292 14.9733 4.40329 15.7536 5.3624 15.7536H10.001ZM4.78257 14.0142V9.37554C4.78257 9.05579 5.04265 8.79571 5.3624 8.79571H10.001C10.3208 8.79571 10.5809 9.05579 10.5809 9.37554V14.0142C10.5809 14.3339 10.3208 14.594 10.001 14.594H5.3624C5.04272 14.594 4.78257 14.3338 4.78257 14.0142ZM11.1958 24.3427C10.9143 24.1309 10.5417 24.0954 10.2233 24.2496C10.1452 24.2874 10.0632 24.316 9.97945 24.3348C9.87744 24.3577 9.77271 24.366 9.66836 24.3597C9.32665 24.0456 8.89185 23.8577 8.42204 23.825C7.87445 23.7863 7.34379 23.9643 6.9291 24.3249C6.54952 24.6544 6.30406 25.1118 6.23926 25.6103C5.56457 25.5015 4.94647 25.16 4.49065 24.6326C4.39908 24.5264 4.28059 24.4469 4.14764 24.4024C4.0147 24.3579 3.87221 24.35 3.73517 24.3796C3.59909 24.4091 3.47345 24.4746 3.37151 24.5695C3.26956 24.6643 3.19507 24.7849 3.15589 24.9185C2.96083 25.5811 2.54915 27.611 4.26266 28.9644C3.93564 29.0642 3.56269 29.0567 3.37197 29.3879C3.20003 29.6864 3.29195 30.0381 3.36207 30.2213C3.49907 30.5789 3.85655 30.8364 4.4244 30.9864C4.73433 31.0684 5.13944 31.1213 5.59596 31.1213C6.6548 31.1212 7.9891 30.8362 9.04647 29.9666C10.1003 29.0999 10.5312 27.9183 10.705 27.0217C10.9748 26.7147 11.1906 26.3641 11.3431 25.9849C11.4392 25.746 11.5096 25.4976 11.5531 25.2439C11.6122 24.8981 11.4754 24.5528 11.1958 24.3427ZM9.74783 26.3496C9.66568 26.4343 9.61135 26.5422 9.59213 26.6587C9.47377 27.3754 9.15525 28.3757 8.30986 29.071C7.28774 29.9115 5.84907 30.0295 5.0217 29.923C5.2977 29.8086 5.56139 29.6666 5.80871 29.499C5.89425 29.4409 5.96271 29.361 6.007 29.2676C6.05129 29.1742 6.0698 29.0706 6.0606 28.9677C6.05141 28.8647 6.01485 28.766 5.95471 28.6819C5.89457 28.5978 5.81304 28.5314 5.71857 28.4894C4.2748 27.8476 4.04735 26.7552 4.13703 25.8984C4.89297 26.5119 5.84386 26.8339 6.817 26.8059C6.96812 26.802 7.11174 26.7392 7.21725 26.631C7.32276 26.5227 7.38182 26.3775 7.38183 26.2263V25.8966L7.38175 25.8888C7.37988 25.7584 7.40651 25.6292 7.45978 25.5102C7.51305 25.3912 7.59167 25.2852 7.69014 25.1997C7.77891 25.1222 7.88216 25.063 7.99395 25.0255C8.10573 24.9881 8.22382 24.9732 8.3414 24.9816C8.45902 24.9895 8.57391 25.0207 8.67943 25.0732C8.78494 25.1258 8.87897 25.1988 8.9561 25.2879C9.04039 25.3849 9.15446 25.451 9.28041 25.4761C9.62359 25.5444 9.97095 25.5356 10.3063 25.4486C10.1876 25.7858 9.99708 26.0933 9.74783 26.3496ZM32.7353 20.2063C32.7215 20.2063 32.7079 20.2069 32.6942 20.207V18.959C32.7079 18.9591 32.7215 18.9596 32.7353 18.9596C36.7411 18.9596 40 15.7007 40 11.6949C40 7.67278 36.7148 4.40789 32.6942 4.43069V3.88086C32.6942 1.85602 31.0468 0.208618 29.0219 0.208618H11.3952C9.37033 0.208618 7.72292 1.85602 7.72292 3.88086V4.43069C6.30242 4.42242 4.92413 4.82451 3.73695 5.59352C3.67269 5.63475 3.6172 5.68826 3.57367 5.751C3.53014 5.81373 3.49943 5.88444 3.4833 5.95907C3.46717 6.0337 3.46594 6.11079 3.47969 6.18589C3.49343 6.261 3.52187 6.33265 3.56337 6.39674C3.60488 6.46083 3.65864 6.51609 3.72155 6.55935C3.78447 6.6026 3.85532 6.63301 3.93002 6.64881C4.00472 6.66462 4.08181 6.66552 4.15685 6.65145C4.2319 6.63739 4.30343 6.60864 4.36734 6.56685C5.35405 5.92765 6.50018 5.58981 7.68171 5.58981C11.048 5.58981 13.7868 8.32853 13.7868 11.6949C13.7868 15.0612 11.048 17.7999 7.68171 17.7999C4.31539 17.7999 1.57667 15.0612 1.57667 11.6949C1.57667 10.4744 1.93547 9.29668 2.6141 8.28902C2.69856 8.16146 2.72919 8.00568 2.6993 7.85564C2.66941 7.7056 2.58144 7.57345 2.45454 7.48798C2.32765 7.40252 2.17212 7.37067 2.02185 7.39938C1.87157 7.42808 1.73873 7.51502 1.65228 7.64124C0.844229 8.84109 0.417012 10.2427 0.417012 11.6949C0.417012 15.7006 3.67588 18.9596 7.68171 18.9596C7.69547 18.9596 7.70908 18.9591 7.72284 18.959V20.2213C7.57029 20.2115 7.41748 20.2066 7.26462 20.2064C3.25886 20.2063 0 23.4653 0 27.471C0 31.4768 3.25886 34.7358 7.2647 34.7358C7.41863 34.7358 7.57131 34.7304 7.72292 34.721V36.1193C7.72292 38.1441 9.37033 39.7915 11.3952 39.7915H29.0219C31.0468 39.7915 32.6942 38.1441 32.6942 36.1193V34.7354C32.7079 34.7354 32.7215 34.7359 32.7353 34.7359C36.7411 34.7359 40 31.477 40 27.4711C40 23.4653 36.7411 20.2063 32.7353 20.2063ZM32.7353 5.58981C36.1016 5.58981 38.8403 8.32853 38.8403 11.6949C38.8403 15.0612 36.1016 17.7999 32.7353 17.7999C29.369 17.7999 26.6303 15.0612 26.6303 11.6949C26.6303 8.32853 29.369 5.58981 32.7353 5.58981ZM31.5345 18.8597V20.3048C31.1406 20.3698 30.7527 20.4673 30.3749 20.5963V18.5655C30.7526 18.6956 31.1405 18.794 31.5345 18.8597ZM10.0422 4.26734V4.82405C9.66451 4.69399 9.27662 4.5956 8.88257 4.52988V3.88078C8.88257 2.4953 10.0097 1.3682 11.3952 1.3682H29.0219C30.4074 1.3682 31.5345 2.4953 31.5345 3.88078V4.52988C31.1405 4.5956 30.7526 4.69399 30.3749 4.82405V4.26734C30.3749 3.30822 29.5945 2.52785 28.6354 2.52785H26.5055C25.8447 2.52785 25.3072 3.06539 25.3072 3.72616C25.307 3.84956 25.2579 3.96785 25.1706 4.0551C25.0834 4.14235 24.9651 4.19143 24.8417 4.19157H15.5753C15.4519 4.19143 15.3336 4.14235 15.2464 4.0551C15.1591 3.96785 15.11 3.84956 15.1098 3.72616C15.1098 3.40571 14.9853 3.10474 14.7575 2.87706C14.6464 2.76607 14.5145 2.6781 14.3693 2.61818C14.2242 2.55825 14.0686 2.52756 13.9115 2.52785H11.7816C10.8225 2.52785 10.0422 3.30822 10.0422 4.26734ZM8.88257 18.8597C9.27662 18.7939 9.66451 18.6956 10.0422 18.5655V20.7586C9.66683 20.6026 9.27889 20.4787 8.88257 20.3882V18.8597ZM7.2647 33.5762C3.89838 33.5762 1.15966 30.8374 1.15966 27.471C1.15966 24.1047 3.89838 21.366 7.2647 21.366C10.631 21.366 13.3697 24.1047 13.3697 27.471C13.3697 31.0292 10.561 33.5762 7.2647 33.5762ZM31.5345 36.1192C31.5345 37.5047 30.4074 38.6318 29.0219 38.6318H11.3952C10.0097 38.6318 8.88257 37.5047 8.88257 36.1192V34.554C9.2789 34.4634 9.66684 34.3395 10.0422 34.1834V35.7327C10.0422 36.6918 10.8226 37.4721 11.7817 37.4721H28.6354C29.5945 37.4721 30.3749 36.6918 30.3749 35.7327V34.3418C30.7526 34.4719 31.1405 34.5703 31.5345 34.636V36.1192ZM32.7353 33.5762C29.369 33.5762 26.6303 30.8374 26.6303 27.471C26.6303 26.9479 26.6964 26.4286 26.8269 25.9275C26.8657 25.7787 26.8437 25.6206 26.7659 25.488C26.6881 25.3554 26.5608 25.2591 26.412 25.2203C26.3383 25.2011 26.2616 25.1966 26.1862 25.207C26.1107 25.2175 26.0381 25.2427 25.9724 25.2812C25.9067 25.3198 25.8493 25.3709 25.8034 25.4316C25.7575 25.4923 25.7239 25.5615 25.7048 25.6352C25.549 26.2347 25.4703 26.8516 25.4707 27.471C25.4707 30.2005 26.9839 32.5827 29.2153 33.824V35.7327C29.2153 36.0524 28.9552 36.3125 28.6355 36.3125H11.7818C11.462 36.3125 11.202 36.0524 11.202 35.7327V33.5736C13.2028 32.2783 14.5295 30.0268 14.5295 27.471C14.5295 24.9153 13.2028 22.6638 11.202 21.3685V18.0477C13.4333 16.8064 14.9466 14.4241 14.9466 11.6948C14.9466 8.96541 13.4333 6.58317 11.202 5.34187V4.26734C11.202 3.94758 11.462 3.68751 11.7818 3.68751H13.9117C13.9226 3.68751 13.9324 3.69176 13.9392 3.69864C13.9429 3.7022 13.9458 3.70648 13.9477 3.71122C13.9496 3.71596 13.9505 3.72105 13.9503 3.72616C13.9503 4.62219 14.6794 5.35123 15.5755 5.35123H24.8418C25.7379 5.35123 26.467 4.62219 26.467 3.72616C26.467 3.7049 26.4844 3.68751 26.5056 3.68751H28.6355C28.9553 3.68751 29.2154 3.94758 29.2154 4.26734V5.34187C26.984 6.58317 25.4708 8.96541 25.4708 11.6948C25.4708 14.4258 26.9859 16.8093 29.2195 18.05C29.217 18.0719 29.2154 18.0941 29.2154 18.1166V21.1108C28.3603 21.5849 27.5987 22.235 26.979 23.0388C26.8857 23.1607 26.8444 23.3145 26.8643 23.4667C26.8842 23.6189 26.9637 23.757 27.0852 23.8507C27.2068 23.9444 27.3605 23.9861 27.5127 23.9666C27.665 23.9472 27.8033 23.8682 27.8974 23.7469C29.0639 22.2332 30.8023 21.366 32.7355 21.366C36.1018 21.366 38.8405 24.1047 38.8405 27.471C38.8403 30.8374 36.1016 33.5762 32.7353 33.5762ZM22.3333 19.8083C22.2019 19.7285 22.0441 19.7042 21.8947 19.7408C21.7454 19.7773 21.6166 19.8716 21.5367 20.003C21.4293 20.18 21.2778 20.3316 21.104 20.4441C21.0213 20.4972 20.9253 20.5261 20.8271 20.5275C20.7288 20.5289 20.6321 20.5028 20.5479 20.4521L19.68 19.9253C19.507 19.8202 19.4124 19.6185 19.432 19.4141C19.4517 19.2111 19.5168 19.0152 19.6224 18.8407C19.7022 18.7093 19.7266 18.5515 19.6901 18.4021C19.6536 18.2527 19.5592 18.124 19.4278 18.0441C19.2963 17.9643 19.1386 17.9399 18.9892 17.9764C18.8398 18.0129 18.711 18.1073 18.6312 18.2387C18.4347 18.5634 18.3138 18.928 18.2773 19.3057L18.2762 19.3174C18.215 19.9559 18.5297 20.5835 19.078 20.9166L19.9458 21.4434C20.2092 21.6027 20.5113 21.6868 20.8191 21.6863C21.1437 21.6868 21.4616 21.5935 21.7343 21.4175C22.0543 21.2101 22.3302 20.9308 22.528 20.6049C22.6078 20.4735 22.6322 20.3157 22.5956 20.1663C22.5591 20.0169 22.4648 19.8881 22.3333 19.8083ZM35.7864 26.8493L31.7208 24.5009C31.1949 24.1913 30.5096 24.5937 30.5142 25.1974V29.8944C30.5088 30.4967 31.1991 30.8987 31.7207 30.591L35.7863 28.2426C36.312 27.9446 36.3101 27.1459 35.7864 26.8493ZM31.6737 29.2789V25.813L34.6739 27.546L31.6737 29.2789ZM20.0678 14.7495C17.3731 14.8201 15.1323 16.9819 14.9664 19.6709C14.924 20.3557 15.013 21.0302 15.2306 21.6761L14.6132 23.4325C14.4987 23.7581 14.5793 24.112 14.8233 24.356C15.0672 24.6 15.4212 24.6805 15.7467 24.5661L16.9712 24.1357C17.932 24.8889 19.1332 25.2835 20.354 25.2505C23.1606 25.1744 25.4516 22.827 25.4609 20.0179C25.4657 18.5854 24.9041 17.245 23.8796 16.2436C22.8553 15.2425 21.5009 14.711 20.0678 14.7495ZM20.3225 24.0912C19.365 24.1155 18.4268 23.8064 17.678 23.2162C17.4735 23.0548 17.2271 22.971 16.9777 22.971C16.8534 22.971 16.7281 22.9918 16.607 23.0344L15.8942 23.285L16.3292 22.0475C16.4121 21.8118 16.4138 21.5531 16.334 21.3191C16.1611 20.812 16.0904 20.2815 16.1236 19.7423C16.253 17.6476 17.9987 15.9637 20.098 15.9086C21.2157 15.8783 22.2707 16.2928 23.0689 17.0729C23.8672 17.8532 24.3048 18.8977 24.301 20.0139C24.2939 22.2029 22.509 24.0319 20.3225 24.0912Z" fill="black"/>
</g>
<defs>
<clipPath id="clip0_233_3980">
<rect width="40" height="40" fill="white"/>
</clipPath>
</defs>
</svg>
