<svg width="24" height="24" viewBox="0 0 24 24" fill="none" xmlns="http://www.w3.org/2000/svg">
<g clip-path="url(#clip0_233_3245)">
<path fill-rule="evenodd" clip-rule="evenodd" d="M17.1687 6.83166L11.6698 14.7517L14.4315 23.0357C14.6247 23.614 15.1672 24.0035 15.7767 24.0002C16.3862 23.9969 16.9254 23.6028 17.1118 23.0224L23.9323 1.84294C24.0941 1.33951 23.9613 0.786924 23.5873 0.412945C23.2134 0.0390091 22.6608 -0.093853 22.1573 0.0680313L0.977972 6.88857C0.397501 7.07497 0.00347157 7.61416 0.000101278 8.22366C-0.00322515 8.83315 0.386339 9.37567 0.964579 9.56881L9.28874 12.3439L17.1687 6.83166Z" fill="#5252E2"/>
</g>
<defs>
<clipPath id="clip0_233_3245">
<rect width="24" height="24" fill="white" transform="matrix(1.19249e-08 -1 -1 -1.19249e-08 24 24)"/>
</clipPath>
</defs>
</svg>
