<svg width="24" height="24" viewBox="0 0 24 24" fill="none" xmlns="http://www.w3.org/2000/svg">
<rect width="24" height="24" rx="12" fill="#E80000"/>
<g clip-path="url(#clip0_233_3808)">
<path d="M17.8943 16.0573L16.0568 17.8948C15.9892 17.9623 15.8976 18.0002 15.8021 18.0002C15.7065 18.0002 15.6149 17.9623 15.5473 17.8948L11.9998 14.3469L8.45216 17.8946C8.38459 17.9621 8.29297 18 8.19744 18C8.10192 18 8.0103 17.9621 7.94272 17.8946L6.10522 16.0571C5.9646 15.9165 5.9646 15.6885 6.10522 15.5477L9.6531 12.0002L6.10541 8.45247C5.96479 8.31184 5.96479 8.08384 6.10541 7.94303L7.94291 6.10553C8.08354 5.9649 8.31154 5.9649 8.45235 6.10553L11.9998 9.6534L15.5475 6.10572C15.6882 5.96509 15.9162 5.96509 16.057 6.10572L17.8945 7.94322C18.0351 8.08384 18.0351 8.31184 17.8945 8.45265L14.3466 12.0002L17.8943 15.5478C17.9278 15.5813 17.9543 15.621 17.9724 15.6647C17.9906 15.7084 17.9999 15.7552 17.9999 15.8026C17.9999 15.8499 17.9906 15.8967 17.9724 15.9404C17.9543 15.9841 17.9278 16.0238 17.8943 16.0573Z" fill="white"/>
</g>
<defs>
<clipPath id="clip0_233_3808">
<rect width="12" height="12" fill="white" transform="matrix(1 0 0 -1 6 18)"/>
</clipPath>
</defs>
</svg>
